G04 #@! TF.FileFunction,Soldermask,Bot*
%FSLAX46Y46*%
G04 Gerber Fmt 4.6, Leading zero omitted, Abs format (unit mm)*
G04 Created by KiCad (PCBNEW 4.0.2+dfsg1-stable) date Mo 03 Apr 2017 04:54:38 CEST*
%MOMM*%
G01*
G04 APERTURE LIST*
%ADD10C,0.100000*%
%ADD11R,6.000000X3.000000*%
%ADD12R,1.501140X2.700020*%
%ADD13R,0.800100X0.800100*%
%ADD14R,2.029460X1.140460*%
%ADD15R,3.000000X3.000000*%
%ADD16R,2.032000X2.032000*%
%ADD17O,2.032000X2.032000*%
%ADD18C,1.000000*%
%ADD19R,2.120000X2.500000*%
%ADD20R,0.850000X2.500000*%
%ADD21R,1.050000X2.200000*%
%ADD22R,1.000000X1.050000*%
%ADD23R,0.400000X1.350000*%
%ADD24R,2.100000X1.600000*%
%ADD25R,1.900000X1.900000*%
%ADD26R,1.800000X1.900000*%
G04 APERTURE END LIST*
D10*
D11*
X50400000Y-96600000D03*
X73600000Y-92700000D03*
D12*
X54100300Y-100000000D03*
X49299700Y-100000000D03*
D13*
X56500760Y-95650000D03*
X56500760Y-97550000D03*
X54501780Y-96600000D03*
D12*
X49299700Y-103200000D03*
X54100300Y-103200000D03*
D14*
X56300000Y-101603960D03*
X56300000Y-99196040D03*
D11*
X50400000Y-92700000D03*
D15*
X75100000Y-100100000D03*
D11*
X73600000Y-96600000D03*
D16*
X75100000Y-113060000D03*
D17*
X75100000Y-115600000D03*
D18*
X54100000Y-113000000D03*
X54100000Y-114200000D03*
X52500000Y-114200000D03*
X54900000Y-117800000D03*
X51200000Y-114200000D03*
X54900000Y-119000000D03*
X51200000Y-113000000D03*
X54900000Y-120200000D03*
X54900000Y-121400000D03*
X58500000Y-105700000D03*
X70900000Y-119700000D03*
X69700000Y-119700000D03*
X72300000Y-108900000D03*
X67300000Y-119700000D03*
X68500000Y-119700000D03*
D19*
X74840000Y-122300000D03*
D20*
X72935000Y-122300000D03*
X71665000Y-122300000D03*
X70395000Y-122300000D03*
X69125000Y-122300000D03*
X67855000Y-122300000D03*
X66585000Y-122300000D03*
X65315000Y-122300000D03*
X64045000Y-122300000D03*
X62775000Y-122300000D03*
X61505000Y-122300000D03*
X60235000Y-122300000D03*
D19*
X58330000Y-122300000D03*
X58330000Y-86678000D03*
X58330000Y-83122000D03*
D20*
X60235000Y-86678000D03*
X60235000Y-83122000D03*
X61505000Y-86678000D03*
X61505000Y-83122000D03*
X62775000Y-86678000D03*
X62775000Y-83122000D03*
X64045000Y-86678000D03*
X64045000Y-83122000D03*
X65315000Y-86678000D03*
X65315000Y-83122000D03*
X66585000Y-86678000D03*
X66585000Y-83122000D03*
X67855000Y-86678000D03*
X67855000Y-83122000D03*
X69125000Y-86678000D03*
X69125000Y-83122000D03*
X70395000Y-86678000D03*
X70395000Y-83122000D03*
X71665000Y-86678000D03*
X71665000Y-83122000D03*
X72935000Y-86678000D03*
X72935000Y-83122000D03*
D19*
X74840000Y-86678000D03*
X74840000Y-83122000D03*
D21*
X48125000Y-122075000D03*
X51075000Y-122075000D03*
D22*
X49600000Y-123600000D03*
D23*
X60700000Y-95050000D03*
X61350000Y-95050000D03*
X62000000Y-95050000D03*
X62650000Y-95050000D03*
X63300000Y-95050000D03*
D24*
X65100000Y-94925000D03*
X58900000Y-94925000D03*
D25*
X60800000Y-92375000D03*
X63200000Y-92375000D03*
D26*
X58000000Y-92375000D03*
X66000000Y-92375000D03*
M02*
