G04 #@! TF.FileFunction,Legend,Bot*
%FSLAX46Y46*%
G04 Gerber Fmt 4.6, Leading zero omitted, Abs format (unit mm)*
G04 Created by KiCad (PCBNEW 4.0.2+dfsg1-stable) date Mo 22 Aug 2016 12:27:58 CEST*
%MOMM*%
G01*
G04 APERTURE LIST*
%ADD10C,0.100000*%
%ADD11C,0.300000*%
%ADD12C,0.200000*%
%ADD13C,0.150000*%
G04 APERTURE END LIST*
D10*
D11*
X69642857Y-106878571D02*
X69642857Y-105378571D01*
X69071429Y-105378571D01*
X68928571Y-105450000D01*
X68857143Y-105521429D01*
X68785714Y-105664286D01*
X68785714Y-105878571D01*
X68857143Y-106021429D01*
X68928571Y-106092857D01*
X69071429Y-106164286D01*
X69642857Y-106164286D01*
X67571429Y-106807143D02*
X67714286Y-106878571D01*
X68000000Y-106878571D01*
X68142857Y-106807143D01*
X68214286Y-106664286D01*
X68214286Y-106092857D01*
X68142857Y-105950000D01*
X68000000Y-105878571D01*
X67714286Y-105878571D01*
X67571429Y-105950000D01*
X67500000Y-106092857D01*
X67500000Y-106235714D01*
X68214286Y-106378571D01*
X66214286Y-106807143D02*
X66357143Y-106878571D01*
X66642857Y-106878571D01*
X66785715Y-106807143D01*
X66857143Y-106735714D01*
X66928572Y-106592857D01*
X66928572Y-106164286D01*
X66857143Y-106021429D01*
X66785715Y-105950000D01*
X66642857Y-105878571D01*
X66357143Y-105878571D01*
X66214286Y-105950000D01*
X64928572Y-106878571D02*
X64928572Y-106092857D01*
X65000001Y-105950000D01*
X65142858Y-105878571D01*
X65428572Y-105878571D01*
X65571429Y-105950000D01*
X64928572Y-106807143D02*
X65071429Y-106878571D01*
X65428572Y-106878571D01*
X65571429Y-106807143D01*
X65642858Y-106664286D01*
X65642858Y-106521429D01*
X65571429Y-106378571D01*
X65428572Y-106307143D01*
X65071429Y-106307143D01*
X64928572Y-106235714D01*
X64214286Y-105878571D02*
X64214286Y-106878571D01*
X64214286Y-106021429D02*
X64142858Y-105950000D01*
X64000000Y-105878571D01*
X63785715Y-105878571D01*
X63642858Y-105950000D01*
X63571429Y-106092857D01*
X63571429Y-106878571D01*
X69642857Y-109278571D02*
X69642857Y-107778571D01*
X69071429Y-107778571D01*
X68928571Y-107850000D01*
X68857143Y-107921429D01*
X68785714Y-108064286D01*
X68785714Y-108278571D01*
X68857143Y-108421429D01*
X68928571Y-108492857D01*
X69071429Y-108564286D01*
X69642857Y-108564286D01*
X68142857Y-109278571D02*
X68142857Y-108278571D01*
X68142857Y-107778571D02*
X68214286Y-107850000D01*
X68142857Y-107921429D01*
X68071429Y-107850000D01*
X68142857Y-107778571D01*
X68142857Y-107921429D01*
X66785714Y-109207143D02*
X66928571Y-109278571D01*
X67214285Y-109278571D01*
X67357143Y-109207143D01*
X67428571Y-109135714D01*
X67500000Y-108992857D01*
X67500000Y-108564286D01*
X67428571Y-108421429D01*
X67357143Y-108350000D01*
X67214285Y-108278571D01*
X66928571Y-108278571D01*
X66785714Y-108350000D01*
X65928571Y-109278571D02*
X66071429Y-109207143D01*
X66142857Y-109135714D01*
X66214286Y-108992857D01*
X66214286Y-108564286D01*
X66142857Y-108421429D01*
X66071429Y-108350000D01*
X65928571Y-108278571D01*
X65714286Y-108278571D01*
X65571429Y-108350000D01*
X65500000Y-108421429D01*
X65428571Y-108564286D01*
X65428571Y-108992857D01*
X65500000Y-109135714D01*
X65571429Y-109207143D01*
X65714286Y-109278571D01*
X65928571Y-109278571D01*
X63428571Y-108421429D02*
X63571429Y-108350000D01*
X63642857Y-108278571D01*
X63714286Y-108135714D01*
X63714286Y-108064286D01*
X63642857Y-107921429D01*
X63571429Y-107850000D01*
X63428571Y-107778571D01*
X63142857Y-107778571D01*
X63000000Y-107850000D01*
X62928571Y-107921429D01*
X62857143Y-108064286D01*
X62857143Y-108135714D01*
X62928571Y-108278571D01*
X63000000Y-108350000D01*
X63142857Y-108421429D01*
X63428571Y-108421429D01*
X63571429Y-108492857D01*
X63642857Y-108564286D01*
X63714286Y-108707143D01*
X63714286Y-108992857D01*
X63642857Y-109135714D01*
X63571429Y-109207143D01*
X63428571Y-109278571D01*
X63142857Y-109278571D01*
X63000000Y-109207143D01*
X62928571Y-109135714D01*
X62857143Y-108992857D01*
X62857143Y-108707143D01*
X62928571Y-108564286D01*
X63000000Y-108492857D01*
X63142857Y-108421429D01*
X61571429Y-109278571D02*
X61571429Y-108492857D01*
X61642858Y-108350000D01*
X61785715Y-108278571D01*
X62071429Y-108278571D01*
X62214286Y-108350000D01*
X61571429Y-109207143D02*
X61714286Y-109278571D01*
X62071429Y-109278571D01*
X62214286Y-109207143D01*
X62285715Y-109064286D01*
X62285715Y-108921429D01*
X62214286Y-108778571D01*
X62071429Y-108707143D01*
X61714286Y-108707143D01*
X61571429Y-108635714D01*
D12*
X66900000Y-103300000D02*
X64400000Y-103300000D01*
X67400000Y-102800000D02*
X66900000Y-103300000D01*
X67400000Y-101800000D02*
X67400000Y-102800000D01*
X64400000Y-103300000D02*
X62300000Y-101200000D01*
X62300000Y-101200000D02*
X56000000Y-101200000D01*
X70400000Y-98800000D02*
X67400000Y-101800000D01*
X48166667Y-99690476D02*
X48166667Y-100166667D01*
X48452381Y-99595238D02*
X47452381Y-99928571D01*
X48452381Y-100261905D01*
X47785714Y-101023810D02*
X48452381Y-101023810D01*
X47785714Y-100595238D02*
X48309524Y-100595238D01*
X48404762Y-100642857D01*
X48452381Y-100738095D01*
X48452381Y-100880953D01*
X48404762Y-100976191D01*
X48357143Y-101023810D01*
X47785714Y-101928572D02*
X48595238Y-101928572D01*
X48690476Y-101880953D01*
X48738095Y-101833334D01*
X48785714Y-101738095D01*
X48785714Y-101595238D01*
X48738095Y-101500000D01*
X48404762Y-101928572D02*
X48452381Y-101833334D01*
X48452381Y-101642857D01*
X48404762Y-101547619D01*
X48357143Y-101500000D01*
X48261905Y-101452381D01*
X47976190Y-101452381D01*
X47880952Y-101500000D01*
X47833333Y-101547619D01*
X47785714Y-101642857D01*
X47785714Y-101833334D01*
X47833333Y-101928572D01*
X49147619Y-99690476D02*
X49100000Y-99738095D01*
X49052381Y-99833333D01*
X49052381Y-100071429D01*
X49100000Y-100166667D01*
X49147619Y-100214286D01*
X49242857Y-100261905D01*
X49338095Y-100261905D01*
X49480952Y-100214286D01*
X50052381Y-99642857D01*
X50052381Y-100261905D01*
X49052381Y-100880952D02*
X49052381Y-100976191D01*
X49100000Y-101071429D01*
X49147619Y-101119048D01*
X49242857Y-101166667D01*
X49433333Y-101214286D01*
X49671429Y-101214286D01*
X49861905Y-101166667D01*
X49957143Y-101119048D01*
X50004762Y-101071429D01*
X50052381Y-100976191D01*
X50052381Y-100880952D01*
X50004762Y-100785714D01*
X49957143Y-100738095D01*
X49861905Y-100690476D01*
X49671429Y-100642857D01*
X49433333Y-100642857D01*
X49242857Y-100690476D01*
X49147619Y-100738095D01*
X49100000Y-100785714D01*
X49052381Y-100880952D01*
X50052381Y-102166667D02*
X50052381Y-101595238D01*
X50052381Y-101880952D02*
X49052381Y-101880952D01*
X49195238Y-101785714D01*
X49290476Y-101690476D01*
X49338095Y-101595238D01*
X49052381Y-103023810D02*
X49052381Y-102833333D01*
X49100000Y-102738095D01*
X49147619Y-102690476D01*
X49290476Y-102595238D01*
X49480952Y-102547619D01*
X49861905Y-102547619D01*
X49957143Y-102595238D01*
X50004762Y-102642857D01*
X50052381Y-102738095D01*
X50052381Y-102928572D01*
X50004762Y-103023810D01*
X49957143Y-103071429D01*
X49861905Y-103119048D01*
X49623810Y-103119048D01*
X49528571Y-103071429D01*
X49480952Y-103023810D01*
X49433333Y-102928572D01*
X49433333Y-102738095D01*
X49480952Y-102642857D01*
X49528571Y-102595238D01*
X49623810Y-102547619D01*
X72438095Y-115200000D02*
X72533333Y-115152381D01*
X72676190Y-115152381D01*
X72819048Y-115200000D01*
X72914286Y-115295238D01*
X72961905Y-115390476D01*
X73009524Y-115580952D01*
X73009524Y-115723810D01*
X72961905Y-115914286D01*
X72914286Y-116009524D01*
X72819048Y-116104762D01*
X72676190Y-116152381D01*
X72580952Y-116152381D01*
X72438095Y-116104762D01*
X72390476Y-116057143D01*
X72390476Y-115723810D01*
X72580952Y-115723810D01*
X71961905Y-116152381D02*
X71961905Y-115152381D01*
X71390476Y-116152381D01*
X71390476Y-115152381D01*
X70914286Y-116152381D02*
X70914286Y-115152381D01*
X70676191Y-115152381D01*
X70533333Y-115200000D01*
X70438095Y-115295238D01*
X70390476Y-115390476D01*
X70342857Y-115580952D01*
X70342857Y-115723810D01*
X70390476Y-115914286D01*
X70438095Y-116009524D01*
X70533333Y-116104762D01*
X70676191Y-116152381D01*
X70914286Y-116152381D01*
X66738095Y-123052381D02*
X67309524Y-123052381D01*
X67023810Y-123052381D02*
X67023810Y-122052381D01*
X67119048Y-122195238D01*
X67214286Y-122290476D01*
X67309524Y-122338095D01*
X66452381Y-122052381D02*
X66119048Y-123052381D01*
X65785714Y-122052381D01*
X65309524Y-122480952D02*
X65404762Y-122433333D01*
X65452381Y-122385714D01*
X65500000Y-122290476D01*
X65500000Y-122242857D01*
X65452381Y-122147619D01*
X65404762Y-122100000D01*
X65309524Y-122052381D01*
X65119047Y-122052381D01*
X65023809Y-122100000D01*
X64976190Y-122147619D01*
X64928571Y-122242857D01*
X64928571Y-122290476D01*
X64976190Y-122385714D01*
X65023809Y-122433333D01*
X65119047Y-122480952D01*
X65309524Y-122480952D01*
X65404762Y-122528571D01*
X65452381Y-122576190D01*
X65500000Y-122671429D01*
X65500000Y-122861905D01*
X65452381Y-122957143D01*
X65404762Y-123004762D01*
X65309524Y-123052381D01*
X65119047Y-123052381D01*
X65023809Y-123004762D01*
X64976190Y-122957143D01*
X64928571Y-122861905D01*
X64928571Y-122671429D01*
X64976190Y-122576190D01*
X65023809Y-122528571D01*
X65119047Y-122480952D01*
X59719048Y-113052381D02*
X59100000Y-113052381D01*
X59433334Y-113433333D01*
X59290476Y-113433333D01*
X59195238Y-113480952D01*
X59147619Y-113528571D01*
X59100000Y-113623810D01*
X59100000Y-113861905D01*
X59147619Y-113957143D01*
X59195238Y-114004762D01*
X59290476Y-114052381D01*
X59576191Y-114052381D01*
X59671429Y-114004762D01*
X59719048Y-113957143D01*
X58814286Y-113052381D02*
X58480953Y-114052381D01*
X58147619Y-113052381D01*
X57909524Y-113052381D02*
X57290476Y-113052381D01*
X57623810Y-113433333D01*
X57480952Y-113433333D01*
X57385714Y-113480952D01*
X57338095Y-113528571D01*
X57290476Y-113623810D01*
X57290476Y-113861905D01*
X57338095Y-113957143D01*
X57385714Y-114004762D01*
X57480952Y-114052381D01*
X57766667Y-114052381D01*
X57861905Y-114004762D01*
X57909524Y-113957143D01*
X72657143Y-101366666D02*
X72704762Y-101319047D01*
X72752381Y-101176190D01*
X72752381Y-101080952D01*
X72704762Y-100938094D01*
X72609524Y-100842856D01*
X72514286Y-100795237D01*
X72323810Y-100747618D01*
X72180952Y-100747618D01*
X71990476Y-100795237D01*
X71895238Y-100842856D01*
X71800000Y-100938094D01*
X71752381Y-101080952D01*
X71752381Y-101176190D01*
X71800000Y-101319047D01*
X71847619Y-101366666D01*
X72752381Y-102271428D02*
X72752381Y-101795237D01*
X71752381Y-101795237D01*
X72752381Y-102604761D02*
X71752381Y-102604761D01*
X72752381Y-103176190D02*
X72180952Y-102747618D01*
X71752381Y-103176190D02*
X72323810Y-102604761D01*
X72657143Y-104938095D02*
X72704762Y-104890476D01*
X72752381Y-104747619D01*
X72752381Y-104652381D01*
X72704762Y-104509523D01*
X72609524Y-104414285D01*
X72514286Y-104366666D01*
X72323810Y-104319047D01*
X72180952Y-104319047D01*
X71990476Y-104366666D01*
X71895238Y-104414285D01*
X71800000Y-104509523D01*
X71752381Y-104652381D01*
X71752381Y-104747619D01*
X71800000Y-104890476D01*
X71847619Y-104938095D01*
X71752381Y-105223809D02*
X71752381Y-105795238D01*
X72752381Y-105509523D02*
X71752381Y-105509523D01*
X72752381Y-106700000D02*
X72276190Y-106366666D01*
X72752381Y-106128571D02*
X71752381Y-106128571D01*
X71752381Y-106509524D01*
X71800000Y-106604762D01*
X71847619Y-106652381D01*
X71942857Y-106700000D01*
X72085714Y-106700000D01*
X72180952Y-106652381D01*
X72228571Y-106604762D01*
X72276190Y-106509524D01*
X72276190Y-106128571D01*
X72752381Y-107604762D02*
X72752381Y-107128571D01*
X71752381Y-107128571D01*
X69804762Y-117952381D02*
X69471429Y-118952381D01*
X69138095Y-117952381D01*
X68804762Y-118952381D02*
X68804762Y-117952381D01*
X68566667Y-117952381D01*
X68423809Y-118000000D01*
X68328571Y-118095238D01*
X68280952Y-118190476D01*
X68233333Y-118380952D01*
X68233333Y-118523810D01*
X68280952Y-118714286D01*
X68328571Y-118809524D01*
X68423809Y-118904762D01*
X68566667Y-118952381D01*
X68804762Y-118952381D01*
X67804762Y-118952381D02*
X67804762Y-117952381D01*
X67566667Y-117952381D01*
X67423809Y-118000000D01*
X67328571Y-118095238D01*
X67280952Y-118190476D01*
X67233333Y-118380952D01*
X67233333Y-118523810D01*
X67280952Y-118714286D01*
X67328571Y-118809524D01*
X67423809Y-118904762D01*
X67566667Y-118952381D01*
X67804762Y-118952381D01*
X66852381Y-118666667D02*
X66376190Y-118666667D01*
X66947619Y-118952381D02*
X66614286Y-117952381D01*
X66280952Y-118952381D01*
X71109524Y-123004762D02*
X70966667Y-123052381D01*
X70728571Y-123052381D01*
X70633333Y-123004762D01*
X70585714Y-122957143D01*
X70538095Y-122861905D01*
X70538095Y-122766667D01*
X70585714Y-122671429D01*
X70633333Y-122623810D01*
X70728571Y-122576190D01*
X70919048Y-122528571D01*
X71014286Y-122480952D01*
X71061905Y-122433333D01*
X71109524Y-122338095D01*
X71109524Y-122242857D01*
X71061905Y-122147619D01*
X71014286Y-122100000D01*
X70919048Y-122052381D01*
X70680952Y-122052381D01*
X70538095Y-122100000D01*
X69538095Y-122957143D02*
X69585714Y-123004762D01*
X69728571Y-123052381D01*
X69823809Y-123052381D01*
X69966667Y-123004762D01*
X70061905Y-122909524D01*
X70109524Y-122814286D01*
X70157143Y-122623810D01*
X70157143Y-122480952D01*
X70109524Y-122290476D01*
X70061905Y-122195238D01*
X69966667Y-122100000D01*
X69823809Y-122052381D01*
X69728571Y-122052381D01*
X69585714Y-122100000D01*
X69538095Y-122147619D01*
X68633333Y-123052381D02*
X69109524Y-123052381D01*
X69109524Y-122052381D01*
X73004762Y-120890476D02*
X73052381Y-121033333D01*
X73052381Y-121271429D01*
X73004762Y-121366667D01*
X72957143Y-121414286D01*
X72861905Y-121461905D01*
X72766667Y-121461905D01*
X72671429Y-121414286D01*
X72623810Y-121366667D01*
X72576190Y-121271429D01*
X72528571Y-121080952D01*
X72480952Y-120985714D01*
X72433333Y-120938095D01*
X72338095Y-120890476D01*
X72242857Y-120890476D01*
X72147619Y-120938095D01*
X72100000Y-120985714D01*
X72052381Y-121080952D01*
X72052381Y-121319048D01*
X72100000Y-121461905D01*
X73052381Y-121890476D02*
X72052381Y-121890476D01*
X72052381Y-122128571D01*
X72100000Y-122271429D01*
X72195238Y-122366667D01*
X72290476Y-122414286D01*
X72480952Y-122461905D01*
X72623810Y-122461905D01*
X72814286Y-122414286D01*
X72909524Y-122366667D01*
X73004762Y-122271429D01*
X73052381Y-122128571D01*
X73052381Y-121890476D01*
X72766667Y-122842857D02*
X72766667Y-123319048D01*
X73052381Y-122747619D02*
X72052381Y-123080952D01*
X73052381Y-123414286D01*
X60885714Y-121852381D02*
X60885714Y-120852381D01*
X59838095Y-121852381D02*
X60171429Y-121376190D01*
X60409524Y-121852381D02*
X60409524Y-120852381D01*
X60028571Y-120852381D01*
X59933333Y-120900000D01*
X59885714Y-120947619D01*
X59838095Y-121042857D01*
X59838095Y-121185714D01*
X59885714Y-121280952D01*
X59933333Y-121328571D01*
X60028571Y-121376190D01*
X60409524Y-121376190D01*
X58742857Y-121947619D02*
X58838095Y-121900000D01*
X58933333Y-121804762D01*
X59076190Y-121661905D01*
X59171429Y-121614286D01*
X59266667Y-121614286D01*
X59219048Y-121852381D02*
X59314286Y-121804762D01*
X59409524Y-121709524D01*
X59457143Y-121519048D01*
X59457143Y-121185714D01*
X59409524Y-120995238D01*
X59314286Y-120900000D01*
X59219048Y-120852381D01*
X59028571Y-120852381D01*
X58933333Y-120900000D01*
X58838095Y-120995238D01*
X58790476Y-121185714D01*
X58790476Y-121519048D01*
X58838095Y-121709524D01*
X58933333Y-121804762D01*
X59028571Y-121852381D01*
X59219048Y-121852381D01*
X62314286Y-120052381D02*
X62647620Y-119576190D01*
X62885715Y-120052381D02*
X62885715Y-119052381D01*
X62504762Y-119052381D01*
X62409524Y-119100000D01*
X62361905Y-119147619D01*
X62314286Y-119242857D01*
X62314286Y-119385714D01*
X62361905Y-119480952D01*
X62409524Y-119528571D01*
X62504762Y-119576190D01*
X62885715Y-119576190D01*
X61885715Y-119528571D02*
X61552381Y-119528571D01*
X61409524Y-120052381D02*
X61885715Y-120052381D01*
X61885715Y-119052381D01*
X61409524Y-119052381D01*
X61028572Y-120004762D02*
X60885715Y-120052381D01*
X60647619Y-120052381D01*
X60552381Y-120004762D01*
X60504762Y-119957143D01*
X60457143Y-119861905D01*
X60457143Y-119766667D01*
X60504762Y-119671429D01*
X60552381Y-119623810D01*
X60647619Y-119576190D01*
X60838096Y-119528571D01*
X60933334Y-119480952D01*
X60980953Y-119433333D01*
X61028572Y-119338095D01*
X61028572Y-119242857D01*
X60980953Y-119147619D01*
X60933334Y-119100000D01*
X60838096Y-119052381D01*
X60600000Y-119052381D01*
X60457143Y-119100000D01*
X60028572Y-119528571D02*
X59695238Y-119528571D01*
X59552381Y-120052381D02*
X60028572Y-120052381D01*
X60028572Y-119052381D01*
X59552381Y-119052381D01*
X59266667Y-119052381D02*
X58695238Y-119052381D01*
X58980953Y-120052381D02*
X58980953Y-119052381D01*
X52390476Y-112157143D02*
X52438095Y-112204762D01*
X52580952Y-112252381D01*
X52676190Y-112252381D01*
X52819048Y-112204762D01*
X52914286Y-112109524D01*
X52961905Y-112014286D01*
X53009524Y-111823810D01*
X53009524Y-111680952D01*
X52961905Y-111490476D01*
X52914286Y-111395238D01*
X52819048Y-111300000D01*
X52676190Y-111252381D01*
X52580952Y-111252381D01*
X52438095Y-111300000D01*
X52390476Y-111347619D01*
X52009524Y-112204762D02*
X51866667Y-112252381D01*
X51628571Y-112252381D01*
X51533333Y-112204762D01*
X51485714Y-112157143D01*
X51438095Y-112061905D01*
X51438095Y-111966667D01*
X51485714Y-111871429D01*
X51533333Y-111823810D01*
X51628571Y-111776190D01*
X51819048Y-111728571D01*
X51914286Y-111680952D01*
X51961905Y-111633333D01*
X52009524Y-111538095D01*
X52009524Y-111442857D01*
X51961905Y-111347619D01*
X51914286Y-111300000D01*
X51819048Y-111252381D01*
X51580952Y-111252381D01*
X51438095Y-111300000D01*
X63328572Y-116852381D02*
X63328572Y-117661905D01*
X63280953Y-117757143D01*
X63233334Y-117804762D01*
X63138096Y-117852381D01*
X62947619Y-117852381D01*
X62852381Y-117804762D01*
X62804762Y-117757143D01*
X62757143Y-117661905D01*
X62757143Y-116852381D01*
X62328572Y-117566667D02*
X61852381Y-117566667D01*
X62423810Y-117852381D02*
X62090477Y-116852381D01*
X61757143Y-117852381D01*
X60852381Y-117852381D02*
X61185715Y-117376190D01*
X61423810Y-117852381D02*
X61423810Y-116852381D01*
X61042857Y-116852381D01*
X60947619Y-116900000D01*
X60900000Y-116947619D01*
X60852381Y-117042857D01*
X60852381Y-117185714D01*
X60900000Y-117280952D01*
X60947619Y-117328571D01*
X61042857Y-117376190D01*
X61423810Y-117376190D01*
X60566667Y-116852381D02*
X59995238Y-116852381D01*
X60280953Y-117852381D02*
X60280953Y-116852381D01*
X54652381Y-115038095D02*
X53652381Y-115038095D01*
X54366667Y-115371429D01*
X53652381Y-115704762D01*
X54652381Y-115704762D01*
X53652381Y-116371428D02*
X53652381Y-116561905D01*
X53700000Y-116657143D01*
X53795238Y-116752381D01*
X53985714Y-116800000D01*
X54319048Y-116800000D01*
X54509524Y-116752381D01*
X54604762Y-116657143D01*
X54652381Y-116561905D01*
X54652381Y-116371428D01*
X54604762Y-116276190D01*
X54509524Y-116180952D01*
X54319048Y-116133333D01*
X53985714Y-116133333D01*
X53795238Y-116180952D01*
X53700000Y-116276190D01*
X53652381Y-116371428D01*
X54604762Y-117180952D02*
X54652381Y-117323809D01*
X54652381Y-117561905D01*
X54604762Y-117657143D01*
X54557143Y-117704762D01*
X54461905Y-117752381D01*
X54366667Y-117752381D01*
X54271429Y-117704762D01*
X54223810Y-117657143D01*
X54176190Y-117561905D01*
X54128571Y-117371428D01*
X54080952Y-117276190D01*
X54033333Y-117228571D01*
X53938095Y-117180952D01*
X53842857Y-117180952D01*
X53747619Y-117228571D01*
X53700000Y-117276190D01*
X53652381Y-117371428D01*
X53652381Y-117609524D01*
X53700000Y-117752381D01*
X54652381Y-118180952D02*
X53652381Y-118180952D01*
X52852381Y-115038095D02*
X51852381Y-115038095D01*
X52566667Y-115371429D01*
X51852381Y-115704762D01*
X52852381Y-115704762D01*
X52852381Y-116180952D02*
X51852381Y-116180952D01*
X52804762Y-116609523D02*
X52852381Y-116752380D01*
X52852381Y-116990476D01*
X52804762Y-117085714D01*
X52757143Y-117133333D01*
X52661905Y-117180952D01*
X52566667Y-117180952D01*
X52471429Y-117133333D01*
X52423810Y-117085714D01*
X52376190Y-116990476D01*
X52328571Y-116799999D01*
X52280952Y-116704761D01*
X52233333Y-116657142D01*
X52138095Y-116609523D01*
X52042857Y-116609523D01*
X51947619Y-116657142D01*
X51900000Y-116704761D01*
X51852381Y-116799999D01*
X51852381Y-117038095D01*
X51900000Y-117180952D01*
X51852381Y-117799999D02*
X51852381Y-117990476D01*
X51900000Y-118085714D01*
X51995238Y-118180952D01*
X52185714Y-118228571D01*
X52519048Y-118228571D01*
X52709524Y-118180952D01*
X52804762Y-118085714D01*
X52852381Y-117990476D01*
X52852381Y-117799999D01*
X52804762Y-117704761D01*
X52709524Y-117609523D01*
X52519048Y-117561904D01*
X52185714Y-117561904D01*
X51995238Y-117609523D01*
X51900000Y-117704761D01*
X51852381Y-117799999D01*
X51004762Y-114990476D02*
X51052381Y-115133333D01*
X51052381Y-115371429D01*
X51004762Y-115466667D01*
X50957143Y-115514286D01*
X50861905Y-115561905D01*
X50766667Y-115561905D01*
X50671429Y-115514286D01*
X50623810Y-115466667D01*
X50576190Y-115371429D01*
X50528571Y-115180952D01*
X50480952Y-115085714D01*
X50433333Y-115038095D01*
X50338095Y-114990476D01*
X50242857Y-114990476D01*
X50147619Y-115038095D01*
X50100000Y-115085714D01*
X50052381Y-115180952D01*
X50052381Y-115419048D01*
X50100000Y-115561905D01*
X50957143Y-116561905D02*
X51004762Y-116514286D01*
X51052381Y-116371429D01*
X51052381Y-116276191D01*
X51004762Y-116133333D01*
X50909524Y-116038095D01*
X50814286Y-115990476D01*
X50623810Y-115942857D01*
X50480952Y-115942857D01*
X50290476Y-115990476D01*
X50195238Y-116038095D01*
X50100000Y-116133333D01*
X50052381Y-116276191D01*
X50052381Y-116371429D01*
X50100000Y-116514286D01*
X50147619Y-116561905D01*
X51052381Y-116990476D02*
X50052381Y-116990476D01*
X51052381Y-117561905D02*
X50480952Y-117133333D01*
X50052381Y-117561905D02*
X50623810Y-116990476D01*
X49252381Y-115038095D02*
X48252381Y-115038095D01*
X49252381Y-116085714D02*
X48776190Y-115752380D01*
X49252381Y-115514285D02*
X48252381Y-115514285D01*
X48252381Y-115895238D01*
X48300000Y-115990476D01*
X48347619Y-116038095D01*
X48442857Y-116085714D01*
X48585714Y-116085714D01*
X48680952Y-116038095D01*
X48728571Y-115990476D01*
X48776190Y-115895238D01*
X48776190Y-115514285D01*
X49347619Y-117180952D02*
X49300000Y-117085714D01*
X49204762Y-116990476D01*
X49061905Y-116847619D01*
X49014286Y-116752380D01*
X49014286Y-116657142D01*
X49252381Y-116704761D02*
X49204762Y-116609523D01*
X49109524Y-116514285D01*
X48919048Y-116466666D01*
X48585714Y-116466666D01*
X48395238Y-116514285D01*
X48300000Y-116609523D01*
X48252381Y-116704761D01*
X48252381Y-116895238D01*
X48300000Y-116990476D01*
X48395238Y-117085714D01*
X48585714Y-117133333D01*
X48919048Y-117133333D01*
X49109524Y-117085714D01*
X49204762Y-116990476D01*
X49252381Y-116895238D01*
X49252381Y-116704761D01*
D10*
X76550000Y-120500000D02*
X74050000Y-120500000D01*
X74050000Y-124200000D02*
X76550000Y-124200000D01*
D12*
X76550000Y-120550000D02*
X76550000Y-124150000D01*
X74050000Y-120550000D02*
X74050000Y-124150000D01*
X69419048Y-111052381D02*
X69514286Y-111004762D01*
X69561905Y-110957143D01*
X69609524Y-110861905D01*
X69609524Y-110576190D01*
X69561905Y-110480952D01*
X69514286Y-110433333D01*
X69419048Y-110385714D01*
X69276190Y-110385714D01*
X69180952Y-110433333D01*
X69133333Y-110480952D01*
X69085714Y-110576190D01*
X69085714Y-110861905D01*
X69133333Y-110957143D01*
X69180952Y-111004762D01*
X69276190Y-111052381D01*
X69419048Y-111052381D01*
X68752381Y-110385714D02*
X68514286Y-111052381D01*
X68276190Y-110385714D01*
X67514285Y-111004762D02*
X67609523Y-111052381D01*
X67800000Y-111052381D01*
X67895238Y-111004762D01*
X67942857Y-110909524D01*
X67942857Y-110528571D01*
X67895238Y-110433333D01*
X67800000Y-110385714D01*
X67609523Y-110385714D01*
X67514285Y-110433333D01*
X67466666Y-110528571D01*
X67466666Y-110623810D01*
X67942857Y-110719048D01*
X67038095Y-111052381D02*
X67038095Y-110385714D01*
X67038095Y-110576190D02*
X66990476Y-110480952D01*
X66942857Y-110433333D01*
X66847619Y-110385714D01*
X66752380Y-110385714D01*
X65799999Y-110385714D02*
X65419047Y-110385714D01*
X65657142Y-110052381D02*
X65657142Y-110909524D01*
X65609523Y-111004762D01*
X65514285Y-111052381D01*
X65419047Y-111052381D01*
X65085713Y-111052381D02*
X65085713Y-110052381D01*
X64657141Y-111052381D02*
X64657141Y-110528571D01*
X64704760Y-110433333D01*
X64799998Y-110385714D01*
X64942856Y-110385714D01*
X65038094Y-110433333D01*
X65085713Y-110480952D01*
X63799998Y-111004762D02*
X63895236Y-111052381D01*
X64085713Y-111052381D01*
X64180951Y-111004762D01*
X64228570Y-110909524D01*
X64228570Y-110528571D01*
X64180951Y-110433333D01*
X64085713Y-110385714D01*
X63895236Y-110385714D01*
X63799998Y-110433333D01*
X63752379Y-110528571D01*
X63752379Y-110623810D01*
X64228570Y-110719048D01*
X62561903Y-111052381D02*
X62561903Y-110052381D01*
X62133331Y-111052381D02*
X62133331Y-110528571D01*
X62180950Y-110433333D01*
X62276188Y-110385714D01*
X62419046Y-110385714D01*
X62514284Y-110433333D01*
X62561903Y-110480952D01*
X61657141Y-111052381D02*
X61657141Y-110385714D01*
X61657141Y-110052381D02*
X61704760Y-110100000D01*
X61657141Y-110147619D01*
X61609522Y-110100000D01*
X61657141Y-110052381D01*
X61657141Y-110147619D01*
X61038094Y-111052381D02*
X61133332Y-111004762D01*
X61180951Y-110909524D01*
X61180951Y-110052381D01*
X60514284Y-111052381D02*
X60609522Y-111004762D01*
X60657141Y-110909524D01*
X60657141Y-110052381D01*
X60180950Y-111004762D02*
X60085712Y-111052381D01*
X59895236Y-111052381D01*
X59799997Y-111004762D01*
X59752378Y-110909524D01*
X59752378Y-110861905D01*
X59799997Y-110766667D01*
X59895236Y-110719048D01*
X60038093Y-110719048D01*
X60133331Y-110671429D01*
X60180950Y-110576190D01*
X60180950Y-110528571D01*
X60133331Y-110433333D01*
X60038093Y-110385714D01*
X59895236Y-110385714D01*
X59799997Y-110433333D01*
X70400000Y-98800000D02*
X70400000Y-95700000D01*
X70400000Y-98800000D02*
X76500000Y-98800000D01*
X53600000Y-98800000D02*
X53600000Y-95700000D01*
X53600000Y-98800000D02*
X47500000Y-98800000D01*
X56000000Y-101200000D02*
X53600000Y-98800000D01*
X49500000Y-119538096D02*
X49452381Y-119442858D01*
X49452381Y-119300001D01*
X49500000Y-119157143D01*
X49595238Y-119061905D01*
X49690476Y-119014286D01*
X49880952Y-118966667D01*
X50023810Y-118966667D01*
X50214286Y-119014286D01*
X50309524Y-119061905D01*
X50404762Y-119157143D01*
X50452381Y-119300001D01*
X50452381Y-119395239D01*
X50404762Y-119538096D01*
X50357143Y-119585715D01*
X50023810Y-119585715D01*
X50023810Y-119395239D01*
X50452381Y-120014286D02*
X49452381Y-120014286D01*
X50452381Y-120585715D01*
X49452381Y-120585715D01*
X50452381Y-121061905D02*
X49452381Y-121061905D01*
X49452381Y-121300000D01*
X49500000Y-121442858D01*
X49595238Y-121538096D01*
X49690476Y-121585715D01*
X49880952Y-121633334D01*
X50023810Y-121633334D01*
X50214286Y-121585715D01*
X50309524Y-121538096D01*
X50404762Y-121442858D01*
X50452381Y-121300000D01*
X50452381Y-121061905D01*
X75171429Y-102738095D02*
X75171429Y-103500000D01*
X75552381Y-103119048D02*
X74790476Y-103119048D01*
X75504762Y-103928571D02*
X75552381Y-104071428D01*
X75552381Y-104309524D01*
X75504762Y-104404762D01*
X75457143Y-104452381D01*
X75361905Y-104500000D01*
X75266667Y-104500000D01*
X75171429Y-104452381D01*
X75123810Y-104404762D01*
X75076190Y-104309524D01*
X75028571Y-104119047D01*
X74980952Y-104023809D01*
X74933333Y-103976190D01*
X74838095Y-103928571D01*
X74742857Y-103928571D01*
X74647619Y-103976190D01*
X74600000Y-104023809D01*
X74552381Y-104119047D01*
X74552381Y-104357143D01*
X74600000Y-104500000D01*
X74552381Y-105119047D02*
X74552381Y-105309524D01*
X74600000Y-105404762D01*
X74695238Y-105500000D01*
X74885714Y-105547619D01*
X75219048Y-105547619D01*
X75409524Y-105500000D01*
X75504762Y-105404762D01*
X75552381Y-105309524D01*
X75552381Y-105119047D01*
X75504762Y-105023809D01*
X75409524Y-104928571D01*
X75219048Y-104880952D01*
X74885714Y-104880952D01*
X74695238Y-104928571D01*
X74600000Y-105023809D01*
X74552381Y-105119047D01*
X75552381Y-106452381D02*
X75552381Y-105976190D01*
X74552381Y-105976190D01*
X69671429Y-91309524D02*
X69671429Y-92071429D01*
X70052381Y-91690477D02*
X69290476Y-91690477D01*
X69528571Y-92880953D02*
X69576190Y-93023810D01*
X69623810Y-93071429D01*
X69719048Y-93119048D01*
X69861905Y-93119048D01*
X69957143Y-93071429D01*
X70004762Y-93023810D01*
X70052381Y-92928572D01*
X70052381Y-92547619D01*
X69052381Y-92547619D01*
X69052381Y-92880953D01*
X69100000Y-92976191D01*
X69147619Y-93023810D01*
X69242857Y-93071429D01*
X69338095Y-93071429D01*
X69433333Y-93023810D01*
X69480952Y-92976191D01*
X69528571Y-92880953D01*
X69528571Y-92547619D01*
X69766667Y-93500000D02*
X69766667Y-93976191D01*
X70052381Y-93404762D02*
X69052381Y-93738095D01*
X70052381Y-94071429D01*
X69052381Y-94261905D02*
X69052381Y-94833334D01*
X70052381Y-94547619D02*
X69052381Y-94547619D01*
X55000000Y-92238096D02*
X54952381Y-92142858D01*
X54952381Y-92000001D01*
X55000000Y-91857143D01*
X55095238Y-91761905D01*
X55190476Y-91714286D01*
X55380952Y-91666667D01*
X55523810Y-91666667D01*
X55714286Y-91714286D01*
X55809524Y-91761905D01*
X55904762Y-91857143D01*
X55952381Y-92000001D01*
X55952381Y-92095239D01*
X55904762Y-92238096D01*
X55857143Y-92285715D01*
X55523810Y-92285715D01*
X55523810Y-92095239D01*
X55952381Y-92714286D02*
X54952381Y-92714286D01*
X55952381Y-93285715D01*
X54952381Y-93285715D01*
X55952381Y-93761905D02*
X54952381Y-93761905D01*
X54952381Y-94000000D01*
X55000000Y-94142858D01*
X55095238Y-94238096D01*
X55190476Y-94285715D01*
X55380952Y-94333334D01*
X55523810Y-94333334D01*
X55714286Y-94285715D01*
X55809524Y-94238096D01*
X55904762Y-94142858D01*
X55952381Y-94000000D01*
X55952381Y-93761905D01*
X72628571Y-112928571D02*
X72485714Y-112976190D01*
X72438095Y-113023810D01*
X72390476Y-113119048D01*
X72390476Y-113261905D01*
X72438095Y-113357143D01*
X72485714Y-113404762D01*
X72580952Y-113452381D01*
X72961905Y-113452381D01*
X72961905Y-112452381D01*
X72628571Y-112452381D01*
X72533333Y-112500000D01*
X72485714Y-112547619D01*
X72438095Y-112642857D01*
X72438095Y-112738095D01*
X72485714Y-112833333D01*
X72533333Y-112880952D01*
X72628571Y-112928571D01*
X72961905Y-112928571D01*
X71771429Y-112452381D02*
X71580952Y-112452381D01*
X71485714Y-112500000D01*
X71390476Y-112595238D01*
X71342857Y-112785714D01*
X71342857Y-113119048D01*
X71390476Y-113309524D01*
X71485714Y-113404762D01*
X71580952Y-113452381D01*
X71771429Y-113452381D01*
X71866667Y-113404762D01*
X71961905Y-113309524D01*
X72009524Y-113119048D01*
X72009524Y-112785714D01*
X71961905Y-112595238D01*
X71866667Y-112500000D01*
X71771429Y-112452381D01*
X70723810Y-112452381D02*
X70533333Y-112452381D01*
X70438095Y-112500000D01*
X70342857Y-112595238D01*
X70295238Y-112785714D01*
X70295238Y-113119048D01*
X70342857Y-113309524D01*
X70438095Y-113404762D01*
X70533333Y-113452381D01*
X70723810Y-113452381D01*
X70819048Y-113404762D01*
X70914286Y-113309524D01*
X70961905Y-113119048D01*
X70961905Y-112785714D01*
X70914286Y-112595238D01*
X70819048Y-112500000D01*
X70723810Y-112452381D01*
X70009524Y-112452381D02*
X69438095Y-112452381D01*
X69723810Y-113452381D02*
X69723810Y-112452381D01*
X68914286Y-112452381D02*
X68819047Y-112452381D01*
X68723809Y-112500000D01*
X68676190Y-112547619D01*
X68628571Y-112642857D01*
X68580952Y-112833333D01*
X68580952Y-113071429D01*
X68628571Y-113261905D01*
X68676190Y-113357143D01*
X68723809Y-113404762D01*
X68819047Y-113452381D01*
X68914286Y-113452381D01*
X69009524Y-113404762D01*
X69057143Y-113357143D01*
X69104762Y-113261905D01*
X69152381Y-113071429D01*
X69152381Y-112833333D01*
X69104762Y-112642857D01*
X69057143Y-112547619D01*
X69009524Y-112500000D01*
X68914286Y-112452381D01*
D10*
X76600000Y-122900000D02*
X76600000Y-121800000D01*
X74000000Y-121800000D02*
X74000000Y-122900000D01*
X74000000Y-122900000D02*
X76600000Y-122900000D01*
X76600000Y-121800000D02*
X74000000Y-121800000D01*
D13*
X75100000Y-122350000D02*
X75550000Y-122350000D01*
X75050000Y-122600000D02*
X75050000Y-122100000D01*
X75050000Y-122350000D02*
X75300000Y-122600000D01*
X75300000Y-122600000D02*
X75300000Y-122100000D01*
X75300000Y-122100000D02*
X75050000Y-122350000D01*
X53150320Y-105200000D02*
X52200360Y-103950320D01*
X52200360Y-103950320D02*
X52200360Y-106449680D01*
X52200360Y-106449680D02*
X53198580Y-105200000D01*
X53198580Y-103950320D02*
X53198580Y-106449680D01*
X50899880Y-103950320D02*
X50800820Y-103950320D01*
X50899880Y-106449680D02*
X50800820Y-106449680D01*
X53198580Y-103950320D02*
X50849080Y-103950320D01*
X53198580Y-106449680D02*
X50950680Y-106449680D01*
X52650240Y-100200840D02*
X52650240Y-100249100D01*
X51949200Y-102999820D02*
X52650240Y-102999820D01*
X52650240Y-102999820D02*
X52650240Y-102750900D01*
X52650240Y-100200840D02*
X52650240Y-100000180D01*
X52650240Y-100000180D02*
X51949200Y-100000180D01*
D10*
X66850000Y-112850000D02*
X66850000Y-114450000D01*
X66850000Y-114450000D02*
X67750000Y-114450000D01*
X67750000Y-114450000D02*
X67750000Y-112850000D01*
X67750000Y-112850000D02*
X66850000Y-112850000D01*
D13*
X58249360Y-92200820D02*
X65950640Y-92200820D01*
X58249360Y-91200060D02*
X65950640Y-91200060D01*
X65950640Y-91200060D02*
X65950640Y-100399940D01*
X65950640Y-100399940D02*
X58249360Y-100399940D01*
X58249360Y-100399940D02*
X58249360Y-91200060D01*
X50849380Y-108900000D02*
X51799340Y-110149680D01*
X51799340Y-110149680D02*
X51799340Y-107650320D01*
X51799340Y-107650320D02*
X50801120Y-108900000D01*
X50801120Y-110149680D02*
X50801120Y-107650320D01*
X53099820Y-110149680D02*
X53198880Y-110149680D01*
X53099820Y-107650320D02*
X53198880Y-107650320D01*
X50801120Y-110149680D02*
X53150620Y-110149680D01*
X50801120Y-107650320D02*
X53049020Y-107650320D01*
D10*
X66550000Y-100950000D02*
X64950000Y-100950000D01*
X64950000Y-100950000D02*
X64950000Y-101850000D01*
X64950000Y-101850000D02*
X66550000Y-101850000D01*
X66550000Y-101850000D02*
X66550000Y-100950000D01*
D13*
X73830000Y-114330000D02*
X73830000Y-116870000D01*
X73550000Y-111510000D02*
X73550000Y-113060000D01*
X73830000Y-114330000D02*
X76370000Y-114330000D01*
X76650000Y-113060000D02*
X76650000Y-111510000D01*
X76650000Y-111510000D02*
X73550000Y-111510000D01*
X76370000Y-114330000D02*
X76370000Y-116870000D01*
X76370000Y-116870000D02*
X73830000Y-116870000D01*
D10*
X74150000Y-121700000D02*
X76450000Y-121700000D01*
X76450000Y-121700000D02*
X76450000Y-120500000D01*
X76450000Y-120500000D02*
X74150000Y-120500000D01*
X74150000Y-120500000D02*
X74150000Y-121700000D01*
X74000700Y-123000000D02*
X74000700Y-124100000D01*
X76600700Y-124100000D02*
X76600700Y-123000000D01*
X76600700Y-123000000D02*
X74000700Y-123000000D01*
X74000700Y-124100000D02*
X76600700Y-124100000D01*
D13*
X75500700Y-123550000D02*
X75050700Y-123550000D01*
X75550700Y-123300000D02*
X75550700Y-123800000D01*
X75550700Y-123550000D02*
X75300700Y-123300000D01*
X75300700Y-123300000D02*
X75300700Y-123800000D01*
X75300700Y-123800000D02*
X75550700Y-123550000D01*
D10*
X66550000Y-102050000D02*
X64950000Y-102050000D01*
X64950000Y-102050000D02*
X64950000Y-102950000D01*
X64950000Y-102950000D02*
X66550000Y-102950000D01*
X66550000Y-102950000D02*
X66550000Y-102050000D01*
X76500000Y-118100000D02*
X74200000Y-118100000D01*
X74200000Y-118100000D02*
X74200000Y-119300000D01*
X74200000Y-119300000D02*
X76500000Y-119300000D01*
X76500000Y-119300000D02*
X76500000Y-118100000D01*
M02*
