G04 #@! TF.FileFunction,Copper,L2,Inr,Signal*
%FSLAX46Y46*%
G04 Gerber Fmt 4.6, Leading zero omitted, Abs format (unit mm)*
G04 Created by KiCad (PCBNEW 4.0.2+dfsg1-stable) date Mo 22 Aug 2016 12:27:58 CEST*
%MOMM*%
G01*
G04 APERTURE LIST*
%ADD10C,0.100000*%
%ADD11C,0.400000*%
%ADD12C,0.800000*%
%ADD13C,0.700000*%
%ADD14C,1.000000*%
%ADD15C,0.800000*%
%ADD16C,0.200000*%
%ADD17C,0.600000*%
%ADD18C,0.500000*%
%ADD19C,0.140000*%
G04 APERTURE END LIST*
D10*
D11*
X59200000Y-115050000D03*
X71100000Y-107800000D03*
X73300000Y-110000000D03*
X67925000Y-115375000D03*
X67275000Y-115375000D03*
X66625000Y-115375000D03*
X65975000Y-115375000D03*
X65325000Y-115375000D03*
X60775000Y-110825000D03*
X65975000Y-106925000D03*
X64675000Y-108225000D03*
X65325000Y-108225000D03*
X65975000Y-108225000D03*
X62725000Y-110825000D03*
X62075000Y-110825000D03*
X62075000Y-111475000D03*
X62725000Y-112125000D03*
X68575000Y-110825000D03*
X68575000Y-112125000D03*
X70850000Y-113425000D03*
X69225000Y-113425000D03*
X68575000Y-112775000D03*
X70525000Y-115375000D03*
X65975000Y-117325000D03*
X54900000Y-112700000D03*
X53100000Y-114700000D03*
X65100000Y-100000000D03*
D12*
X75100000Y-119700000D03*
X58300000Y-104000000D03*
X57400000Y-112400000D03*
X50200000Y-112100000D03*
X57500000Y-103600000D03*
D11*
X62725000Y-111475000D03*
X62725000Y-110175000D03*
X64675000Y-110175000D03*
X64675000Y-110825000D03*
X65325000Y-110825000D03*
X65325000Y-110175000D03*
X65975000Y-110175000D03*
X65975000Y-110825000D03*
X66625000Y-110825000D03*
X66625000Y-110175000D03*
X67275000Y-110175000D03*
X67275000Y-110825000D03*
X65100000Y-94500000D03*
X69400000Y-92600000D03*
X70200000Y-94200000D03*
X71400000Y-94600000D03*
X69375000Y-94625000D03*
X68049997Y-98800000D03*
X68300000Y-98300000D03*
X67800000Y-98100000D03*
X63600000Y-101900000D03*
X62800000Y-101900000D03*
X52875000Y-107525000D03*
X52875000Y-108775000D03*
X51625000Y-108775000D03*
X51625000Y-107525000D03*
X59800000Y-107000000D03*
X60315692Y-112415692D03*
X58392150Y-115007850D03*
X57100000Y-114900000D03*
X57600000Y-114900000D03*
X55800000Y-116100000D03*
X47950000Y-108700000D03*
X47950000Y-105300000D03*
X47950000Y-104200000D03*
X57450000Y-100800000D03*
X55400000Y-100800000D03*
X55400000Y-101800000D03*
X57450000Y-101800000D03*
X65400000Y-104000000D03*
X72800000Y-103850000D03*
X73550000Y-111100000D03*
X76100000Y-120100000D03*
X65325000Y-114725000D03*
X65975000Y-114725000D03*
X66625000Y-114725000D03*
X67925000Y-114725000D03*
X69875000Y-108875000D03*
X69875000Y-109525000D03*
X65975000Y-108875000D03*
X65325000Y-108875000D03*
X63375000Y-112125000D03*
X63375000Y-112775000D03*
X66625000Y-112775000D03*
X66625000Y-112125000D03*
X65975000Y-112125000D03*
X65975000Y-112775000D03*
X65325000Y-112775000D03*
X65325000Y-112125000D03*
X64675000Y-112125000D03*
X64675000Y-112775000D03*
X64025000Y-112125000D03*
X64025000Y-112775000D03*
X64025000Y-113425000D03*
X64675000Y-113425000D03*
X65325000Y-113425000D03*
X65975000Y-113425000D03*
X66625000Y-113425000D03*
X68575000Y-110175000D03*
X69225000Y-112125000D03*
X69875000Y-112775000D03*
X73550000Y-113300000D03*
X74050000Y-114500000D03*
X73550000Y-115300000D03*
X73400000Y-116700000D03*
X70900000Y-117100000D03*
X67100000Y-118950000D03*
X64700000Y-118950000D03*
X58900000Y-120000000D03*
X54700000Y-110700000D03*
X52700000Y-112100000D03*
X47800000Y-122000000D03*
X47800000Y-119350000D03*
X51150000Y-118050000D03*
X52450000Y-118050000D03*
X52450000Y-119350000D03*
X51150000Y-119350000D03*
X53100000Y-121300000D03*
X54400000Y-121300000D03*
X55900000Y-122200000D03*
X63200000Y-123200000D03*
X68100000Y-123200000D03*
X71600000Y-123200000D03*
X71900000Y-121300000D03*
X68900000Y-121400000D03*
X62200000Y-96050000D03*
X48150000Y-92050000D03*
X48150000Y-91500000D03*
X48150000Y-94800000D03*
X48150000Y-94250000D03*
X48150000Y-92600000D03*
X48150000Y-93150000D03*
X48150000Y-93700000D03*
X62992150Y-92592150D03*
X50700000Y-99100000D03*
X50000000Y-99900000D03*
X50000000Y-99100000D03*
X48500000Y-99100000D03*
X49250000Y-99100000D03*
X65100000Y-93500000D03*
X65100000Y-94000000D03*
X61700000Y-96050000D03*
X65400000Y-121300000D03*
X55200000Y-91700000D03*
X55200000Y-94700000D03*
X55200000Y-93700000D03*
X55200000Y-92700000D03*
X60800000Y-93400000D03*
X60700000Y-96050000D03*
X56580000Y-94287500D03*
X56580000Y-93512500D03*
X57820000Y-93512500D03*
X57820000Y-94287500D03*
X73550000Y-107800000D03*
X69650000Y-100050000D03*
X70550000Y-100050000D03*
X70550000Y-100950000D03*
X69650000Y-100950000D03*
X68100000Y-102150000D03*
X73550000Y-106800000D03*
X48500000Y-100800000D03*
X71100000Y-108900000D03*
X60450000Y-109850000D03*
X67925000Y-107575000D03*
X68600000Y-97600000D03*
X68600000Y-97100000D03*
X68600000Y-96600000D03*
D12*
X66700000Y-95500000D03*
X55900000Y-96700000D03*
D11*
X68000000Y-92600000D03*
X58800000Y-91600000D03*
X56200000Y-91600000D03*
X64800000Y-97600000D03*
X72300000Y-100700000D03*
X64300000Y-100000000D03*
X67900000Y-100500000D03*
X69300000Y-103200000D03*
X54400000Y-114700000D03*
X52094836Y-114717214D03*
D12*
X57100000Y-104700000D03*
D11*
X70000010Y-103200000D03*
X70900000Y-119700000D03*
X71700000Y-102100000D03*
X67900000Y-119700000D03*
X67900000Y-121300000D03*
X59600000Y-108200000D03*
X62075000Y-109525000D03*
X69875000Y-112125000D03*
X62075000Y-108225000D03*
X55600000Y-103800000D03*
X60775000Y-108875000D03*
X50200000Y-110900000D03*
X60775000Y-108225000D03*
X50700000Y-110900000D03*
X61425000Y-108225000D03*
X51250000Y-110900000D03*
X62075000Y-107575000D03*
X51750000Y-110900000D03*
X61425000Y-106925000D03*
X52250000Y-110900000D03*
X60775000Y-106925000D03*
X52750000Y-110900000D03*
X61425000Y-107575000D03*
X53250000Y-110900000D03*
X67925000Y-116025000D03*
X48100000Y-112700000D03*
X57600000Y-118500000D03*
X71400000Y-119700000D03*
X57200000Y-91600000D03*
X70525000Y-116025000D03*
X63900000Y-121300000D03*
X69225000Y-116025000D03*
X66900000Y-119700000D03*
X69225000Y-115375000D03*
X65900000Y-121300000D03*
X74100000Y-109300000D03*
X69875000Y-110825000D03*
X70100000Y-98100000D03*
X69875000Y-106925000D03*
X67275000Y-107575000D03*
X64300000Y-97700000D03*
X68575000Y-108225000D03*
X64400000Y-121300000D03*
X63375000Y-114075000D03*
X55800000Y-117100000D03*
X60900000Y-117600000D03*
X55800000Y-117600000D03*
X68575000Y-108875000D03*
X68400000Y-119700000D03*
X67500000Y-105700000D03*
X73500000Y-102900000D03*
X72600000Y-101300000D03*
X62725000Y-106925000D03*
X73100000Y-101300000D03*
X63375000Y-106925000D03*
X63800000Y-106500020D03*
X63375000Y-107575000D03*
X67500000Y-105100000D03*
X73500000Y-102400000D03*
X67275000Y-106925000D03*
X65325000Y-107575000D03*
X64300000Y-106500020D03*
X67925000Y-116675000D03*
X49200000Y-112700000D03*
X57000000Y-118500000D03*
X70400000Y-119700000D03*
X56700000Y-91600000D03*
X64675000Y-116025000D03*
X74200000Y-106600000D03*
X73900000Y-116800000D03*
X61400000Y-117200000D03*
X74100000Y-111600000D03*
X61425000Y-116675000D03*
X61425000Y-113425000D03*
X62800010Y-119699990D03*
X61425000Y-112775000D03*
X62400000Y-121299990D03*
X60775000Y-112125000D03*
X63400000Y-121300000D03*
X61425000Y-112125000D03*
X61900000Y-121299990D03*
X62075000Y-113425000D03*
X62900000Y-121299990D03*
X66625000Y-116025000D03*
X64900000Y-121300000D03*
X67275000Y-116025000D03*
X67275000Y-117325000D03*
X69200011Y-119000000D03*
X54900000Y-98700000D03*
D12*
X70000000Y-91700000D03*
X71000000Y-91700000D03*
D13*
X59150000Y-99600000D03*
D11*
X62800000Y-104300000D03*
X62725000Y-108225000D03*
X59300000Y-104300000D03*
X57700000Y-91600000D03*
X60900000Y-119400000D03*
X47800000Y-118000000D03*
X50300000Y-114800000D03*
X70525000Y-116675000D03*
X69900000Y-119700000D03*
X68600000Y-98700000D03*
X71100000Y-111100000D03*
X62725000Y-113425000D03*
X60200000Y-113900000D03*
X64675000Y-106925000D03*
X64025000Y-108875000D03*
X61425000Y-116025000D03*
X55800000Y-119300000D03*
X60900000Y-118900000D03*
X55800000Y-118800000D03*
X61425000Y-115375000D03*
X63000000Y-96700000D03*
X60775000Y-115375000D03*
X63000000Y-97200000D03*
X65325000Y-106925000D03*
X54900000Y-98100000D03*
X63750000Y-92600000D03*
X59900000Y-99450000D03*
X63600000Y-94500000D03*
X65100000Y-93000000D03*
X61200000Y-96050000D03*
X60775000Y-114725000D03*
X63000000Y-97700000D03*
X68500000Y-92600000D03*
X69225000Y-106925000D03*
X68500000Y-99200000D03*
X71100000Y-112200000D03*
X69875000Y-111475000D03*
X67275000Y-114725000D03*
X73550000Y-113800000D03*
X64900000Y-104000000D03*
X66625000Y-106925000D03*
D14*
X51300000Y-113300000D02*
X50834315Y-113300000D01*
X50834315Y-113300000D02*
X50200000Y-112665685D01*
D15*
X50200000Y-112665685D02*
X50200000Y-112100000D01*
D16*
X64400000Y-103600000D02*
X58700000Y-103600000D01*
X58700000Y-103600000D02*
X58300000Y-104000000D01*
X65100000Y-102900000D02*
X65100000Y-100000000D01*
X65100000Y-102900000D02*
X64400000Y-103600000D01*
D14*
X59200000Y-114300000D02*
X59200000Y-113300000D01*
X59200000Y-113300000D02*
X59200000Y-112400000D01*
X58300000Y-113300000D02*
X59200000Y-113300000D01*
X59200000Y-112400000D02*
X60775000Y-110825000D01*
D17*
X70525000Y-110175000D02*
X70700000Y-110000000D01*
X70700000Y-110000000D02*
X71800000Y-110000000D01*
X69550000Y-110175000D02*
X70525000Y-110175000D01*
X68575000Y-110825000D02*
X68900000Y-110825000D01*
X68900000Y-110825000D02*
X69550000Y-110175000D01*
D16*
X71800000Y-110000000D02*
X73300000Y-110000000D01*
D17*
X71800000Y-108500000D02*
X71800000Y-110000000D01*
D14*
X73500000Y-118100000D02*
X75100000Y-119700000D01*
D17*
X63375000Y-110825000D02*
X62725000Y-110825000D01*
X67400000Y-111500000D02*
X64050000Y-111500000D01*
X64050000Y-111500000D02*
X63375000Y-110825000D01*
D15*
X71159000Y-115375000D02*
X72084000Y-116300000D01*
D14*
X72084000Y-116300000D02*
X72084000Y-116684000D01*
X72084000Y-116684000D02*
X73500000Y-118100000D01*
D17*
X70525000Y-115375000D02*
X71159000Y-115375000D01*
X62075000Y-111775000D02*
X62075000Y-111475000D01*
X62075000Y-111475000D02*
X62075000Y-110825000D01*
X62425000Y-112125000D02*
X62075000Y-111775000D01*
X62425000Y-112125000D02*
X62725000Y-112125000D01*
D14*
X54900000Y-113300000D02*
X53100000Y-113300000D01*
X54900000Y-113300000D02*
X57300000Y-113300000D01*
X57300000Y-113300000D02*
X58300000Y-113300000D01*
D15*
X57400000Y-112400000D02*
X57400000Y-113200000D01*
D16*
X57400000Y-113200000D02*
X57300000Y-113300000D01*
D17*
X71800000Y-108500000D02*
X71500001Y-108200001D01*
X71500001Y-108200001D02*
X71100000Y-107800000D01*
X68025000Y-112125000D02*
X67400000Y-111500000D01*
X68249989Y-112125000D02*
X68025000Y-112125000D01*
D16*
X59200000Y-114200000D02*
X59200000Y-114300000D01*
D14*
X59200000Y-114300000D02*
X59200000Y-115050000D01*
X62075000Y-110825000D02*
X60775000Y-110825000D01*
D17*
X62725000Y-110825000D02*
X62075000Y-110825000D01*
D14*
X51900000Y-113300000D02*
X51300000Y-113300000D01*
D18*
X68575000Y-112775000D02*
X69225000Y-113425000D01*
D17*
X68575000Y-112125000D02*
X68575000Y-112775000D01*
D14*
X53100000Y-113300000D02*
X51900000Y-113300000D01*
D16*
X53100000Y-114700000D02*
X53100000Y-113300000D01*
D15*
X54900000Y-112700000D02*
X54900000Y-113300000D01*
D16*
X54900000Y-113200000D02*
X54900000Y-112700000D01*
D17*
X68249989Y-112125000D02*
X68575000Y-112125000D01*
X65975000Y-115375000D02*
X65325000Y-115375000D01*
X66625000Y-115375000D02*
X65975000Y-115375000D01*
X67275000Y-115375000D02*
X66625000Y-115375000D01*
X67925000Y-115375000D02*
X67275000Y-115375000D01*
D18*
X70850000Y-113425000D02*
X69225000Y-113425000D01*
D16*
X60450000Y-109850000D02*
X61300000Y-109000000D01*
X61300000Y-109000000D02*
X62300000Y-109000000D01*
X62300000Y-109000000D02*
X62575001Y-109275001D01*
X62575001Y-109275001D02*
X66224999Y-109275001D01*
X66224999Y-109275001D02*
X67925000Y-107575000D01*
X71100000Y-108900000D02*
X70400000Y-108200000D01*
X70400000Y-108200000D02*
X69142002Y-108200000D01*
X69142002Y-108200000D02*
X68517002Y-107575000D01*
X68517002Y-107575000D02*
X68137132Y-107575000D01*
X68137132Y-107575000D02*
X67925000Y-107575000D01*
X71100000Y-108857998D02*
X71100000Y-108900000D01*
D15*
X64900000Y-95300000D02*
X65100000Y-95500000D01*
X65100000Y-95500000D02*
X66700000Y-95500000D01*
X63700000Y-95300000D02*
X63275736Y-95300000D01*
X58261855Y-96300000D02*
X56300000Y-96300000D01*
X56300000Y-96300000D02*
X55900000Y-96700000D01*
X63275736Y-95300000D02*
X60185679Y-95300000D01*
X64900000Y-95300000D02*
X63700000Y-95300000D01*
X58261855Y-96300000D02*
X59261855Y-95300000D01*
X59261855Y-95300000D02*
X60185679Y-95300000D01*
D16*
X60185679Y-95300000D02*
X60200000Y-95300000D01*
X65292001Y-99599999D02*
X64800000Y-99599999D01*
X64800000Y-99599999D02*
X64700001Y-99599999D01*
X64800000Y-97600000D02*
X64800000Y-99599999D01*
X67900000Y-100500000D02*
X66192002Y-100500000D01*
X66192002Y-100500000D02*
X65292001Y-99599999D01*
X64700001Y-99599999D02*
X64449999Y-99850001D01*
X64449999Y-99850001D02*
X64300000Y-100000000D01*
X56200000Y-91600000D02*
X56200000Y-91812132D01*
X56200000Y-91812132D02*
X56387869Y-92000001D01*
X56387869Y-92000001D02*
X58399999Y-92000001D01*
X58399999Y-92000001D02*
X58800000Y-91600000D01*
X67900000Y-100500000D02*
X72100000Y-100500000D01*
X72100000Y-100500000D02*
X72300000Y-100700000D01*
D15*
X58400000Y-105100000D02*
X57499999Y-105099999D01*
X57499999Y-105099999D02*
X57100000Y-104700000D01*
D16*
X52907999Y-115100001D02*
X53999999Y-115100001D01*
X53999999Y-115100001D02*
X54400000Y-114700000D01*
X52094836Y-114717214D02*
X52477622Y-115100000D01*
X52477622Y-115100000D02*
X52907999Y-115100001D01*
D15*
X63400000Y-105100000D02*
X65400000Y-105100000D01*
X65400000Y-105100000D02*
X65700000Y-104800000D01*
X62400000Y-105100000D02*
X63400000Y-105100000D01*
X58400000Y-105100000D02*
X62400000Y-105100000D01*
X67300000Y-103200000D02*
X68300000Y-103200000D01*
X68300000Y-103200000D02*
X69300000Y-103200000D01*
X65700000Y-104800000D02*
X65900000Y-104600000D01*
X67300000Y-103200000D02*
X65900000Y-104600000D01*
D16*
X62075000Y-109525000D02*
X62250000Y-109700000D01*
X62250000Y-109700000D02*
X67500000Y-109700000D01*
X67500000Y-109700000D02*
X67900000Y-110100000D01*
X67900000Y-110100000D02*
X67900000Y-111000000D01*
X67900000Y-111000000D02*
X68400000Y-111500000D01*
X68400000Y-111500000D02*
X69250000Y-111500000D01*
X69250000Y-111500000D02*
X69875000Y-112125000D01*
X62075000Y-108225000D02*
X62475001Y-107824999D01*
X62475001Y-107824999D02*
X62475001Y-107382999D01*
X55600000Y-104219252D02*
X55600000Y-104012132D01*
X62475001Y-107382999D02*
X62324999Y-107232997D01*
X61411969Y-105824979D02*
X57205727Y-105824979D01*
X57205727Y-105824979D02*
X55600000Y-104219252D01*
X62324999Y-107232997D02*
X62324999Y-106738009D01*
X62324999Y-106738009D02*
X61411969Y-105824979D01*
X55600000Y-104012132D02*
X55600000Y-103800000D01*
X50200000Y-110900000D02*
X50200000Y-111052108D01*
X59292942Y-109400020D02*
X60094968Y-109400020D01*
X50200000Y-111052108D02*
X51647893Y-112500001D01*
X54600000Y-112000000D02*
X56692962Y-112000000D01*
X51647893Y-112500001D02*
X54099999Y-112500001D01*
X54099999Y-112500001D02*
X54600000Y-112000000D01*
X56692962Y-112000000D02*
X59292942Y-109400020D01*
X60094968Y-109400020D02*
X60094988Y-109400000D01*
X60094988Y-109400000D02*
X60250000Y-109400000D01*
X60250000Y-109400000D02*
X60775000Y-108875000D01*
X51142880Y-111500000D02*
X51292891Y-111650011D01*
X51292891Y-111650011D02*
X53586979Y-111650011D01*
X53586979Y-111650011D02*
X53587000Y-111649990D01*
X53587000Y-111649990D02*
X56547984Y-111649990D01*
X56547984Y-111649990D02*
X59147964Y-109050010D01*
X59147964Y-109050010D02*
X59949990Y-109050010D01*
X59949990Y-109050010D02*
X60775000Y-108225000D01*
X51142880Y-111500000D02*
X50899992Y-111257112D01*
X50700000Y-111057120D02*
X51142880Y-111500000D01*
X50700000Y-110900000D02*
X50700000Y-111057120D01*
X51250000Y-110900000D02*
X51250000Y-111112132D01*
X56403006Y-111299980D02*
X59002986Y-108700000D01*
X51250000Y-111112132D02*
X51437869Y-111300001D01*
X51437869Y-111300001D02*
X53442001Y-111300001D01*
X59707998Y-108700000D02*
X60582999Y-107824999D01*
X53442001Y-111300001D02*
X53442022Y-111299980D01*
X53442022Y-111299980D02*
X56403006Y-111299980D01*
X59002986Y-108700000D02*
X59707998Y-108700000D01*
X60582999Y-107824999D02*
X61024999Y-107824999D01*
X61024999Y-107824999D02*
X61425000Y-108225000D01*
X62075000Y-107575000D02*
X61825001Y-107325001D01*
X61825001Y-107325001D02*
X61825001Y-106732999D01*
X61825001Y-106732999D02*
X61266991Y-106174989D01*
X53155043Y-109249969D02*
X51750000Y-110655012D01*
X61266991Y-106174989D02*
X59538021Y-106174989D01*
X59538021Y-106174989D02*
X56463041Y-109249969D01*
X56463041Y-109249969D02*
X53155043Y-109249969D01*
X51750000Y-110655012D02*
X51750000Y-110900000D01*
X52250000Y-110900000D02*
X52250000Y-110650000D01*
X52250000Y-110650000D02*
X53300021Y-109599979D01*
X53300021Y-109599979D02*
X56608019Y-109599979D01*
X56608019Y-109599979D02*
X59682999Y-106524999D01*
X59682999Y-106524999D02*
X61024999Y-106524999D01*
X61024999Y-106524999D02*
X61425000Y-106925000D01*
X59968033Y-107449989D02*
X60493022Y-106925000D01*
X60493022Y-106925000D02*
X60775000Y-106925000D01*
X59968033Y-107449989D02*
X59263021Y-107449989D01*
X59263021Y-107449989D02*
X56763021Y-109949989D01*
X56763021Y-109949989D02*
X53487879Y-109949989D01*
X52750000Y-110687868D02*
X52750000Y-110900000D01*
X53487879Y-109949989D02*
X52750000Y-110687868D01*
X61425000Y-107575000D02*
X61175001Y-107325001D01*
X61175001Y-107325001D02*
X60588009Y-107325001D01*
X60588009Y-107325001D02*
X60113011Y-107799999D01*
X60113011Y-107799999D02*
X59407999Y-107799999D01*
X59407999Y-107799999D02*
X56907999Y-110299999D01*
X56907999Y-110299999D02*
X53850001Y-110299999D01*
X53850001Y-110299999D02*
X53250000Y-110900000D01*
X67925000Y-116025000D02*
X67524999Y-116425001D01*
X67524999Y-116425001D02*
X63930021Y-116425001D01*
X63930021Y-116425001D02*
X63330012Y-117025010D01*
X61092002Y-118100000D02*
X58000000Y-118100000D01*
X63330012Y-117025010D02*
X62166992Y-117025010D01*
X62166992Y-117025010D02*
X61092002Y-118100000D01*
X58000000Y-118100000D02*
X57600000Y-118500000D01*
X71400000Y-119700000D02*
X71400000Y-119487868D01*
X71400000Y-119487868D02*
X71212131Y-119299999D01*
X71212131Y-119299999D02*
X70707119Y-119299999D01*
X70707119Y-119299999D02*
X68325001Y-116917881D01*
X68325001Y-116917881D02*
X68325001Y-116425001D01*
X68325001Y-116425001D02*
X68074999Y-116174999D01*
X68074999Y-116174999D02*
X67925000Y-116025000D01*
X69875000Y-110825000D02*
X70782998Y-110825000D01*
X70782998Y-110825000D02*
X71007998Y-110600000D01*
X71007998Y-110600000D02*
X73500000Y-110600000D01*
X73500000Y-110600000D02*
X73800000Y-110300000D01*
X73800000Y-110300000D02*
X73800000Y-109600000D01*
X73800000Y-109600000D02*
X74100000Y-109300000D01*
X55800000Y-117100000D02*
X56012132Y-117100000D01*
X56012132Y-117100000D02*
X56162122Y-117249990D01*
X56162122Y-117249990D02*
X60050010Y-117249990D01*
X60050010Y-117249990D02*
X60374999Y-116925001D01*
X60374999Y-116925001D02*
X60374999Y-114532999D01*
X60374999Y-114532999D02*
X60582999Y-114324999D01*
X60582999Y-114324999D02*
X63125001Y-114324999D01*
X63125001Y-114324999D02*
X63375000Y-114075000D01*
X60900000Y-117600000D02*
X57000000Y-117600000D01*
X57000000Y-117600000D02*
X55800000Y-117600000D01*
X68291962Y-104900040D02*
X70300000Y-104900040D01*
X70300000Y-104900040D02*
X70976926Y-104900040D01*
X73500000Y-102900000D02*
X73157998Y-102900000D01*
X73157998Y-102900000D02*
X71157958Y-104900040D01*
X71157958Y-104900040D02*
X70300000Y-104900040D01*
X67500000Y-105700000D02*
X67800000Y-105400000D01*
X67800000Y-105400000D02*
X67800000Y-105392002D01*
X67800000Y-105392002D02*
X68291962Y-104900040D01*
X66000000Y-105500000D02*
X67649990Y-103850010D01*
X62725000Y-106925000D02*
X62725000Y-106375000D01*
X63300000Y-105800000D02*
X65700000Y-105800000D01*
X62725000Y-106375000D02*
X63300000Y-105800000D01*
X65700000Y-105800000D02*
X66000000Y-105500000D01*
X67649990Y-103850010D02*
X70541992Y-103850010D01*
X70541992Y-103850010D02*
X72600000Y-101792002D01*
X72600000Y-101792002D02*
X72600000Y-101300000D01*
X70686970Y-104200020D02*
X67807978Y-104200020D01*
X67207998Y-104800000D02*
X67200000Y-104800000D01*
X67807978Y-104200020D02*
X67207998Y-104800000D01*
X67200000Y-104800000D02*
X65899990Y-106100010D01*
X63375000Y-106325000D02*
X63375000Y-106925000D01*
X65899990Y-106100010D02*
X63599990Y-106100010D01*
X63599990Y-106100010D02*
X63375000Y-106325000D01*
X70300000Y-104200020D02*
X70686970Y-104200020D01*
X72836998Y-102049992D02*
X70686970Y-104200020D01*
X73100000Y-101300000D02*
X73100000Y-101786990D01*
X73100000Y-101786990D02*
X72836998Y-102049992D01*
X63800000Y-106600000D02*
X63800000Y-106500020D01*
X63800000Y-106500020D02*
X63800000Y-106500000D01*
X63800000Y-106600000D02*
X63800000Y-107150000D01*
X63800000Y-107150000D02*
X63375000Y-107575000D01*
X70831948Y-104550030D02*
X72981978Y-102400000D01*
X72981978Y-102400000D02*
X73500000Y-102400000D01*
X70831948Y-104550030D02*
X68049970Y-104550030D01*
X68049970Y-104550030D02*
X67500000Y-105100000D01*
X65325000Y-107575000D02*
X64575000Y-107575000D01*
X64575000Y-107575000D02*
X64200000Y-107200000D01*
X64200000Y-107200000D02*
X64200000Y-106600020D01*
X64200000Y-106600020D02*
X64300000Y-106500020D01*
X67925000Y-116800000D02*
X67874990Y-116850010D01*
X67874990Y-116850010D02*
X64000000Y-116850010D01*
X57899999Y-118900001D02*
X57400001Y-118900001D01*
X64000000Y-116850010D02*
X63474990Y-117375020D01*
X63474990Y-117375020D02*
X62311970Y-117375020D01*
X62311970Y-117375020D02*
X61236980Y-118450010D01*
X61236980Y-118450010D02*
X58349990Y-118450010D01*
X58349990Y-118450010D02*
X57899999Y-118900001D01*
X57400001Y-118900001D02*
X57000000Y-118500000D01*
X67925000Y-117012868D02*
X67925000Y-116800000D01*
X67925000Y-116800000D02*
X67925000Y-116675000D01*
X67925000Y-117012868D02*
X70400000Y-119487868D01*
X70400000Y-119700000D02*
X70400000Y-119487868D01*
X57057997Y-118500000D02*
X57000000Y-118500000D01*
X73200000Y-112762588D02*
X73762587Y-112200001D01*
X73762587Y-112200001D02*
X74092001Y-112200001D01*
X74092001Y-112200001D02*
X74500001Y-111792001D01*
X74500001Y-111792001D02*
X74500001Y-106900001D01*
X74500001Y-106900001D02*
X74200000Y-106600000D01*
X64675000Y-116025000D02*
X64675000Y-114782998D01*
X64675000Y-114782998D02*
X65132999Y-114324999D01*
X65132999Y-114324999D02*
X65175001Y-114324999D01*
X65175001Y-114324999D02*
X65224980Y-114275020D01*
X65224980Y-114275020D02*
X67229992Y-114275020D01*
X67229992Y-114275020D02*
X67530023Y-113974989D01*
X68572881Y-113974989D02*
X68872912Y-114275020D01*
X67530023Y-113974989D02*
X68572881Y-113974989D01*
X68872912Y-114275020D02*
X71687568Y-114275020D01*
X71687568Y-114275020D02*
X73200000Y-112762588D01*
X73200000Y-112762588D02*
X73300000Y-112662588D01*
X72967600Y-112500000D02*
X71542590Y-113925010D01*
X71542590Y-113925010D02*
X69017890Y-113925010D01*
X69017890Y-113925010D02*
X68717859Y-113624979D01*
X68717859Y-113624979D02*
X67385045Y-113624979D01*
X67385045Y-113624979D02*
X67085014Y-113925010D01*
X64324990Y-114638020D02*
X64324990Y-115535044D01*
X67085014Y-113925010D02*
X65038000Y-113925010D01*
X65038000Y-113925010D02*
X64324990Y-114638020D01*
X64324990Y-115535044D02*
X63185034Y-116675000D01*
X63185034Y-116675000D02*
X62288010Y-116675000D01*
X62288010Y-116675000D02*
X61425000Y-116675000D01*
X74100000Y-111600000D02*
X73867600Y-111600000D01*
X73867600Y-111600000D02*
X73667600Y-111800000D01*
X72967600Y-112500000D02*
X73155022Y-112312578D01*
X73667600Y-111800000D02*
X72967600Y-112500000D01*
X67275000Y-117325000D02*
X67525011Y-117325000D01*
X67525011Y-117325000D02*
X69200011Y-119000000D01*
X59300000Y-104300000D02*
X62800000Y-104300000D01*
X60200000Y-113900000D02*
X62250000Y-113900000D01*
X62250000Y-113900000D02*
X62725000Y-113425000D01*
X60900000Y-118900000D02*
X58450011Y-118900000D01*
X58450011Y-118900000D02*
X58100000Y-119250011D01*
X58100000Y-119250011D02*
X57158009Y-119250011D01*
X57158009Y-119250011D02*
X56707998Y-118800000D01*
X56707998Y-118800000D02*
X55800000Y-118800000D01*
X55950010Y-95549990D02*
X55100000Y-96400000D01*
X55100000Y-96400000D02*
X55100000Y-97900000D01*
X55100000Y-97900000D02*
X54900000Y-98100000D01*
X63750000Y-92600000D02*
X61800000Y-94550000D01*
X61800000Y-94550000D02*
X58899990Y-94550000D01*
X58899990Y-94550000D02*
X57900000Y-95549990D01*
X57900000Y-95549990D02*
X55950010Y-95549990D01*
X73550000Y-113800000D02*
X72657576Y-113800000D01*
X72657576Y-113800000D02*
X71832546Y-114625030D01*
X71832546Y-114625030D02*
X68525030Y-114625030D01*
X68525030Y-114625030D02*
X68224999Y-114324999D01*
X68224999Y-114324999D02*
X67675001Y-114324999D01*
X67675001Y-114324999D02*
X67275000Y-114725000D01*
D19*
G36*
X69649257Y-91174083D02*
X69474696Y-91348339D01*
X69380107Y-91576133D01*
X69379892Y-91822785D01*
X69474083Y-92050743D01*
X69648339Y-92225304D01*
X69876133Y-92319893D01*
X70122785Y-92320108D01*
X70350743Y-92225917D01*
X70500108Y-92076813D01*
X70648339Y-92225304D01*
X70876133Y-92319893D01*
X71122785Y-92320108D01*
X71350743Y-92225917D01*
X71525304Y-92051661D01*
X71619893Y-91823867D01*
X71620108Y-91577215D01*
X71525917Y-91349257D01*
X71351661Y-91174696D01*
X71340352Y-91170000D01*
X76630000Y-91170000D01*
X76630000Y-124330000D01*
X47370000Y-124330000D01*
X47370000Y-121383167D01*
X61479928Y-121383167D01*
X61543734Y-121537590D01*
X61661779Y-121655841D01*
X61816090Y-121719917D01*
X61983177Y-121720062D01*
X62137600Y-121656256D01*
X62149918Y-121643959D01*
X62161779Y-121655841D01*
X62316090Y-121719917D01*
X62483177Y-121720062D01*
X62637600Y-121656256D01*
X62649918Y-121643959D01*
X62661779Y-121655841D01*
X62816090Y-121719917D01*
X62983177Y-121720062D01*
X63137600Y-121656256D01*
X63149913Y-121643964D01*
X63161779Y-121655851D01*
X63316090Y-121719927D01*
X63483177Y-121720072D01*
X63637600Y-121656266D01*
X63649918Y-121643969D01*
X63661779Y-121655851D01*
X63816090Y-121719927D01*
X63983177Y-121720072D01*
X64137600Y-121656266D01*
X64149918Y-121643969D01*
X64161779Y-121655851D01*
X64316090Y-121719927D01*
X64483177Y-121720072D01*
X64637600Y-121656266D01*
X64649918Y-121643969D01*
X64661779Y-121655851D01*
X64816090Y-121719927D01*
X64983177Y-121720072D01*
X65137600Y-121656266D01*
X65255851Y-121538221D01*
X65319927Y-121383910D01*
X65319927Y-121383177D01*
X65479928Y-121383177D01*
X65543734Y-121537600D01*
X65661779Y-121655851D01*
X65816090Y-121719927D01*
X65983177Y-121720072D01*
X66137600Y-121656266D01*
X66255851Y-121538221D01*
X66319927Y-121383910D01*
X66319927Y-121383177D01*
X67479928Y-121383177D01*
X67543734Y-121537600D01*
X67661779Y-121655851D01*
X67816090Y-121719927D01*
X67983177Y-121720072D01*
X68137600Y-121656266D01*
X68255851Y-121538221D01*
X68319927Y-121383910D01*
X68320072Y-121216823D01*
X68256266Y-121062400D01*
X68138221Y-120944149D01*
X67983910Y-120880073D01*
X67816823Y-120879928D01*
X67662400Y-120943734D01*
X67544149Y-121061779D01*
X67480073Y-121216090D01*
X67479928Y-121383177D01*
X66319927Y-121383177D01*
X66320072Y-121216823D01*
X66256266Y-121062400D01*
X66138221Y-120944149D01*
X65983910Y-120880073D01*
X65816823Y-120879928D01*
X65662400Y-120943734D01*
X65544149Y-121061779D01*
X65480073Y-121216090D01*
X65479928Y-121383177D01*
X65319927Y-121383177D01*
X65320072Y-121216823D01*
X65256266Y-121062400D01*
X65138221Y-120944149D01*
X64983910Y-120880073D01*
X64816823Y-120879928D01*
X64662400Y-120943734D01*
X64650082Y-120956031D01*
X64638221Y-120944149D01*
X64483910Y-120880073D01*
X64316823Y-120879928D01*
X64162400Y-120943734D01*
X64150082Y-120956031D01*
X64138221Y-120944149D01*
X63983910Y-120880073D01*
X63816823Y-120879928D01*
X63662400Y-120943734D01*
X63650082Y-120956031D01*
X63638221Y-120944149D01*
X63483910Y-120880073D01*
X63316823Y-120879928D01*
X63162400Y-120943734D01*
X63150087Y-120956026D01*
X63138221Y-120944139D01*
X62983910Y-120880063D01*
X62816823Y-120879918D01*
X62662400Y-120943724D01*
X62650082Y-120956021D01*
X62638221Y-120944139D01*
X62483910Y-120880063D01*
X62316823Y-120879918D01*
X62162400Y-120943724D01*
X62150082Y-120956021D01*
X62138221Y-120944139D01*
X61983910Y-120880063D01*
X61816823Y-120879918D01*
X61662400Y-120943724D01*
X61544149Y-121061769D01*
X61480073Y-121216080D01*
X61479928Y-121383167D01*
X47370000Y-121383167D01*
X47370000Y-118083177D01*
X47379928Y-118083177D01*
X47443734Y-118237600D01*
X47561779Y-118355851D01*
X47716090Y-118419927D01*
X47883177Y-118420072D01*
X48037600Y-118356266D01*
X48155851Y-118238221D01*
X48219927Y-118083910D01*
X48220072Y-117916823D01*
X48156266Y-117762400D01*
X48038221Y-117644149D01*
X47883910Y-117580073D01*
X47716823Y-117579928D01*
X47562400Y-117643734D01*
X47444149Y-117761779D01*
X47380073Y-117916090D01*
X47379928Y-118083177D01*
X47370000Y-118083177D01*
X47370000Y-114883177D01*
X49879928Y-114883177D01*
X49943734Y-115037600D01*
X50061779Y-115155851D01*
X50216090Y-115219927D01*
X50383177Y-115220072D01*
X50537600Y-115156266D01*
X50655851Y-115038221D01*
X50719927Y-114883910D01*
X50720072Y-114716823D01*
X50656266Y-114562400D01*
X50538221Y-114444149D01*
X50383910Y-114380073D01*
X50216823Y-114379928D01*
X50062400Y-114443734D01*
X49944149Y-114561779D01*
X49880073Y-114716090D01*
X49879928Y-114883177D01*
X47370000Y-114883177D01*
X47370000Y-112783177D01*
X47679928Y-112783177D01*
X47743734Y-112937600D01*
X47861779Y-113055851D01*
X48016090Y-113119927D01*
X48183177Y-113120072D01*
X48337600Y-113056266D01*
X48455851Y-112938221D01*
X48519927Y-112783910D01*
X48519927Y-112783177D01*
X48779928Y-112783177D01*
X48843734Y-112937600D01*
X48961779Y-113055851D01*
X49116090Y-113119927D01*
X49283177Y-113120072D01*
X49437600Y-113056266D01*
X49542026Y-112952022D01*
X49690883Y-113174802D01*
X50325198Y-113809117D01*
X50558783Y-113965193D01*
X50834315Y-114020000D01*
X52780000Y-114020000D01*
X52780000Y-114425990D01*
X52744149Y-114461779D01*
X52680073Y-114616090D01*
X52679931Y-114780000D01*
X52610170Y-114780000D01*
X52514864Y-114684694D01*
X52514908Y-114634037D01*
X52451102Y-114479614D01*
X52333057Y-114361363D01*
X52178746Y-114297287D01*
X52011659Y-114297142D01*
X51857236Y-114360948D01*
X51738985Y-114478993D01*
X51674909Y-114633304D01*
X51674764Y-114800391D01*
X51738570Y-114954814D01*
X51856615Y-115073065D01*
X52010926Y-115137141D01*
X52062260Y-115137186D01*
X52251348Y-115326274D01*
X52251351Y-115326276D01*
X52355162Y-115395641D01*
X52477621Y-115420000D01*
X52907998Y-115420001D01*
X53999999Y-115420001D01*
X54122458Y-115395642D01*
X54226273Y-115326275D01*
X54432520Y-115120028D01*
X54483177Y-115120072D01*
X54637600Y-115056266D01*
X54755851Y-114938221D01*
X54819927Y-114783910D01*
X54820072Y-114616823D01*
X54756266Y-114462400D01*
X54638221Y-114344149D01*
X54483910Y-114280073D01*
X54316823Y-114279928D01*
X54162400Y-114343734D01*
X54044149Y-114461779D01*
X53980073Y-114616090D01*
X53980028Y-114667424D01*
X53867451Y-114780001D01*
X53519930Y-114780001D01*
X53520072Y-114616823D01*
X53456266Y-114462400D01*
X53420000Y-114426071D01*
X53420000Y-114020000D01*
X58480000Y-114020000D01*
X58480000Y-115050000D01*
X58534807Y-115325532D01*
X58690883Y-115559117D01*
X58924468Y-115715193D01*
X59200000Y-115770000D01*
X59475532Y-115715193D01*
X59709117Y-115559117D01*
X59865193Y-115325532D01*
X59920000Y-115050000D01*
X59920000Y-114213999D01*
X59961779Y-114255851D01*
X60116090Y-114319927D01*
X60139890Y-114319948D01*
X60079358Y-114410540D01*
X60054999Y-114532999D01*
X60054999Y-116792453D01*
X59917462Y-116929990D01*
X56294670Y-116929990D01*
X56238406Y-116873726D01*
X56220526Y-116861779D01*
X56134591Y-116804359D01*
X56089341Y-116795358D01*
X56038221Y-116744149D01*
X55883910Y-116680073D01*
X55716823Y-116679928D01*
X55562400Y-116743734D01*
X55444149Y-116861779D01*
X55380073Y-117016090D01*
X55379928Y-117183177D01*
X55443734Y-117337600D01*
X55456031Y-117349918D01*
X55444149Y-117361779D01*
X55380073Y-117516090D01*
X55379928Y-117683177D01*
X55443734Y-117837600D01*
X55561779Y-117955851D01*
X55716090Y-118019927D01*
X55883177Y-118020072D01*
X56037600Y-117956266D01*
X56073929Y-117920000D01*
X57727452Y-117920000D01*
X57567480Y-118079972D01*
X57516823Y-118079928D01*
X57362400Y-118143734D01*
X57299995Y-118206031D01*
X57238221Y-118144149D01*
X57083910Y-118080073D01*
X56916823Y-118079928D01*
X56762400Y-118143734D01*
X56644149Y-118261779D01*
X56580073Y-118416090D01*
X56580018Y-118480000D01*
X56074010Y-118480000D01*
X56038221Y-118444149D01*
X55883910Y-118380073D01*
X55716823Y-118379928D01*
X55562400Y-118443734D01*
X55444149Y-118561779D01*
X55380073Y-118716090D01*
X55379928Y-118883177D01*
X55443734Y-119037600D01*
X55456031Y-119049918D01*
X55444149Y-119061779D01*
X55380073Y-119216090D01*
X55379928Y-119383177D01*
X55443734Y-119537600D01*
X55561779Y-119655851D01*
X55716090Y-119719927D01*
X55883177Y-119720072D01*
X56037600Y-119656266D01*
X56155851Y-119538221D01*
X56219927Y-119383910D01*
X56220072Y-119216823D01*
X56180066Y-119120000D01*
X56575450Y-119120000D01*
X56931735Y-119476285D01*
X57035551Y-119545653D01*
X57158009Y-119570011D01*
X58100000Y-119570011D01*
X58222459Y-119545652D01*
X58326274Y-119476285D01*
X58582559Y-119220000D01*
X60519973Y-119220000D01*
X60480073Y-119316090D01*
X60479928Y-119483177D01*
X60543734Y-119637600D01*
X60661779Y-119755851D01*
X60816090Y-119819927D01*
X60983177Y-119820072D01*
X61072494Y-119783167D01*
X62379938Y-119783167D01*
X62443744Y-119937590D01*
X62561789Y-120055841D01*
X62716100Y-120119917D01*
X62883187Y-120120062D01*
X63037610Y-120056256D01*
X63155861Y-119938211D01*
X63219937Y-119783900D01*
X63219937Y-119783177D01*
X66479928Y-119783177D01*
X66543734Y-119937600D01*
X66661779Y-120055851D01*
X66816090Y-120119927D01*
X66983177Y-120120072D01*
X67137600Y-120056266D01*
X67255851Y-119938221D01*
X67319927Y-119783910D01*
X67319927Y-119783177D01*
X67479928Y-119783177D01*
X67543734Y-119937600D01*
X67661779Y-120055851D01*
X67816090Y-120119927D01*
X67983177Y-120120072D01*
X68137600Y-120056266D01*
X68149918Y-120043969D01*
X68161779Y-120055851D01*
X68316090Y-120119927D01*
X68483177Y-120120072D01*
X68637600Y-120056266D01*
X68755851Y-119938221D01*
X68819927Y-119783910D01*
X68820072Y-119616823D01*
X68756266Y-119462400D01*
X68638221Y-119344149D01*
X68483910Y-119280073D01*
X68316823Y-119279928D01*
X68162400Y-119343734D01*
X68150082Y-119356031D01*
X68138221Y-119344149D01*
X67983910Y-119280073D01*
X67816823Y-119279928D01*
X67662400Y-119343734D01*
X67544149Y-119461779D01*
X67480073Y-119616090D01*
X67479928Y-119783177D01*
X67319927Y-119783177D01*
X67320072Y-119616823D01*
X67256266Y-119462400D01*
X67138221Y-119344149D01*
X66983910Y-119280073D01*
X66816823Y-119279928D01*
X66662400Y-119343734D01*
X66544149Y-119461779D01*
X66480073Y-119616090D01*
X66479928Y-119783177D01*
X63219937Y-119783177D01*
X63220082Y-119616813D01*
X63156276Y-119462390D01*
X63038231Y-119344139D01*
X62883920Y-119280063D01*
X62716833Y-119279918D01*
X62562410Y-119343724D01*
X62444159Y-119461769D01*
X62380083Y-119616080D01*
X62379938Y-119783167D01*
X61072494Y-119783167D01*
X61137600Y-119756266D01*
X61255851Y-119638221D01*
X61319927Y-119483910D01*
X61320072Y-119316823D01*
X61256266Y-119162400D01*
X61243969Y-119150082D01*
X61255851Y-119138221D01*
X61319927Y-118983910D01*
X61320072Y-118816823D01*
X61295888Y-118758292D01*
X61359439Y-118745651D01*
X61463254Y-118676284D01*
X62444518Y-117695020D01*
X63474990Y-117695020D01*
X63597449Y-117670661D01*
X63701264Y-117601294D01*
X64132548Y-117170010D01*
X65584588Y-117170010D01*
X65555073Y-117241090D01*
X65554928Y-117408177D01*
X65618734Y-117562600D01*
X65736779Y-117680851D01*
X65891090Y-117744927D01*
X66058177Y-117745072D01*
X66212600Y-117681266D01*
X66330851Y-117563221D01*
X66394927Y-117408910D01*
X66395072Y-117241823D01*
X66365400Y-117170010D01*
X66884588Y-117170010D01*
X66855073Y-117241090D01*
X66854928Y-117408177D01*
X66918734Y-117562600D01*
X67036779Y-117680851D01*
X67191090Y-117744927D01*
X67358177Y-117745072D01*
X67453251Y-117705788D01*
X68779983Y-119032520D01*
X68779939Y-119083177D01*
X68843745Y-119237600D01*
X68961790Y-119355851D01*
X69116101Y-119419927D01*
X69283188Y-119420072D01*
X69437611Y-119356266D01*
X69555862Y-119238221D01*
X69597509Y-119137925D01*
X69762116Y-119302532D01*
X69662400Y-119343734D01*
X69544149Y-119461779D01*
X69480073Y-119616090D01*
X69479928Y-119783177D01*
X69543734Y-119937600D01*
X69661779Y-120055851D01*
X69816090Y-120119927D01*
X69983177Y-120120072D01*
X70137600Y-120056266D01*
X70149918Y-120043969D01*
X70161779Y-120055851D01*
X70316090Y-120119927D01*
X70483177Y-120120072D01*
X70637600Y-120056266D01*
X70649918Y-120043969D01*
X70661779Y-120055851D01*
X70816090Y-120119927D01*
X70983177Y-120120072D01*
X71137600Y-120056266D01*
X71149918Y-120043969D01*
X71161779Y-120055851D01*
X71316090Y-120119927D01*
X71483177Y-120120072D01*
X71637600Y-120056266D01*
X71755851Y-119938221D01*
X71819927Y-119783910D01*
X71820072Y-119616823D01*
X71756266Y-119462400D01*
X71704649Y-119410693D01*
X71695641Y-119365409D01*
X71626274Y-119261594D01*
X71438405Y-119073725D01*
X71421456Y-119062400D01*
X71334590Y-119004358D01*
X71212131Y-118979999D01*
X70839667Y-118979999D01*
X68645001Y-116785333D01*
X68645001Y-116425001D01*
X68620642Y-116302542D01*
X68551275Y-116198727D01*
X68345028Y-115992480D01*
X68345072Y-115941823D01*
X68281266Y-115787400D01*
X68259069Y-115765164D01*
X68292696Y-115742696D01*
X68405417Y-115573995D01*
X68428454Y-115458177D01*
X68804928Y-115458177D01*
X68868734Y-115612600D01*
X68956031Y-115700049D01*
X68869149Y-115786779D01*
X68805073Y-115941090D01*
X68804928Y-116108177D01*
X68868734Y-116262600D01*
X68986779Y-116380851D01*
X69141090Y-116444927D01*
X69308177Y-116445072D01*
X69462600Y-116381266D01*
X69580851Y-116263221D01*
X69644927Y-116108910D01*
X69645072Y-115941823D01*
X69581266Y-115787400D01*
X69493969Y-115699951D01*
X69580851Y-115613221D01*
X69644927Y-115458910D01*
X69645072Y-115291823D01*
X69581266Y-115137400D01*
X69463221Y-115019149D01*
X69308910Y-114955073D01*
X69141823Y-114954928D01*
X68987400Y-115018734D01*
X68869149Y-115136779D01*
X68805073Y-115291090D01*
X68804928Y-115458177D01*
X68428454Y-115458177D01*
X68445000Y-115375000D01*
X68405417Y-115176005D01*
X68292696Y-115007304D01*
X68123995Y-114894583D01*
X67925000Y-114855000D01*
X67675789Y-114855000D01*
X67694927Y-114808910D01*
X67694972Y-114757576D01*
X67807549Y-114644999D01*
X68092451Y-114644999D01*
X68298756Y-114851304D01*
X68402571Y-114920671D01*
X68525030Y-114945030D01*
X70250505Y-114945030D01*
X70157304Y-115007304D01*
X70044583Y-115176005D01*
X70005000Y-115375000D01*
X70044583Y-115573995D01*
X70157304Y-115742696D01*
X70190853Y-115765113D01*
X70169149Y-115786779D01*
X70105073Y-115941090D01*
X70104928Y-116108177D01*
X70168734Y-116262600D01*
X70256031Y-116350049D01*
X70169149Y-116436779D01*
X70105073Y-116591090D01*
X70104928Y-116758177D01*
X70168734Y-116912600D01*
X70286779Y-117030851D01*
X70441090Y-117094927D01*
X70608177Y-117095072D01*
X70762600Y-117031266D01*
X70880851Y-116913221D01*
X70944927Y-116758910D01*
X70945072Y-116591823D01*
X70881266Y-116437400D01*
X70793969Y-116349951D01*
X70880851Y-116263221D01*
X70944927Y-116108910D01*
X70944989Y-116037801D01*
X71364000Y-116456813D01*
X71364000Y-116684000D01*
X71418807Y-116959532D01*
X71574883Y-117193117D01*
X74590883Y-120209117D01*
X74824468Y-120365193D01*
X75100000Y-120420000D01*
X75375532Y-120365193D01*
X75609117Y-120209117D01*
X75765193Y-119975532D01*
X75820000Y-119700000D01*
X75765193Y-119424468D01*
X75609117Y-119190883D01*
X73301411Y-116883177D01*
X73479928Y-116883177D01*
X73543734Y-117037600D01*
X73661779Y-117155851D01*
X73816090Y-117219927D01*
X73983177Y-117220072D01*
X74137600Y-117156266D01*
X74255851Y-117038221D01*
X74319927Y-116883910D01*
X74320072Y-116716823D01*
X74256266Y-116562400D01*
X74138221Y-116444149D01*
X73983910Y-116380073D01*
X73816823Y-116379928D01*
X73662400Y-116443734D01*
X73544149Y-116561779D01*
X73480073Y-116716090D01*
X73479928Y-116883177D01*
X73301411Y-116883177D01*
X72804000Y-116385766D01*
X72804000Y-116300000D01*
X72749193Y-116024468D01*
X72593117Y-115790883D01*
X72359532Y-115634807D01*
X72279750Y-115618937D01*
X71605842Y-114945030D01*
X71832546Y-114945030D01*
X71955005Y-114920671D01*
X72058820Y-114851304D01*
X72790124Y-114120000D01*
X73275990Y-114120000D01*
X73311779Y-114155851D01*
X73466090Y-114219927D01*
X73633177Y-114220072D01*
X73787600Y-114156266D01*
X73905851Y-114038221D01*
X73969927Y-113883910D01*
X73970072Y-113716823D01*
X73906266Y-113562400D01*
X73788221Y-113444149D01*
X73633910Y-113380073D01*
X73466823Y-113379928D01*
X73312400Y-113443734D01*
X73276071Y-113480000D01*
X72935136Y-113480000D01*
X73895135Y-112520001D01*
X74092001Y-112520001D01*
X74214460Y-112495642D01*
X74318275Y-112426275D01*
X74726275Y-112018275D01*
X74758538Y-111969990D01*
X74795642Y-111914460D01*
X74820001Y-111792001D01*
X74820001Y-106900001D01*
X74795642Y-106777542D01*
X74768967Y-106737620D01*
X74726275Y-106673726D01*
X74620028Y-106567479D01*
X74620072Y-106516823D01*
X74556266Y-106362400D01*
X74438221Y-106244149D01*
X74283910Y-106180073D01*
X74116823Y-106179928D01*
X73962400Y-106243734D01*
X73844149Y-106361779D01*
X73780073Y-106516090D01*
X73779928Y-106683177D01*
X73843734Y-106837600D01*
X73961779Y-106955851D01*
X74116090Y-107019927D01*
X74167423Y-107019972D01*
X74180001Y-107032550D01*
X74180001Y-108880070D01*
X74016823Y-108879928D01*
X73862400Y-108943734D01*
X73744149Y-109061779D01*
X73680073Y-109216090D01*
X73680028Y-109267424D01*
X73573726Y-109373726D01*
X73504359Y-109477541D01*
X73480000Y-109600000D01*
X73480000Y-109619973D01*
X73383910Y-109580073D01*
X73216823Y-109579928D01*
X73062400Y-109643734D01*
X73026071Y-109680000D01*
X72320000Y-109680000D01*
X72320000Y-108500005D01*
X72320001Y-108500000D01*
X72280417Y-108301005D01*
X72268505Y-108283177D01*
X72167696Y-108132304D01*
X72167693Y-108132302D01*
X71867697Y-107832305D01*
X71867694Y-107832303D01*
X71467696Y-107432304D01*
X71298995Y-107319583D01*
X71100000Y-107279999D01*
X70901005Y-107319583D01*
X70732304Y-107432304D01*
X70619583Y-107601005D01*
X70579999Y-107800000D01*
X70612760Y-107964697D01*
X70586961Y-107947458D01*
X70522459Y-107904359D01*
X70400000Y-107880000D01*
X69274551Y-107880000D01*
X68743276Y-107348726D01*
X68707769Y-107325001D01*
X68639461Y-107279359D01*
X68517002Y-107255000D01*
X68199010Y-107255000D01*
X68163221Y-107219149D01*
X68008910Y-107155073D01*
X67841823Y-107154928D01*
X67687400Y-107218734D01*
X67599951Y-107306031D01*
X67543969Y-107249951D01*
X67630851Y-107163221D01*
X67694927Y-107008910D01*
X67694927Y-107008177D01*
X68804928Y-107008177D01*
X68868734Y-107162600D01*
X68986779Y-107280851D01*
X69141090Y-107344927D01*
X69308177Y-107345072D01*
X69462600Y-107281266D01*
X69550049Y-107193969D01*
X69636779Y-107280851D01*
X69791090Y-107344927D01*
X69958177Y-107345072D01*
X70112600Y-107281266D01*
X70230851Y-107163221D01*
X70294927Y-107008910D01*
X70295072Y-106841823D01*
X70231266Y-106687400D01*
X70113221Y-106569149D01*
X69958910Y-106505073D01*
X69791823Y-106504928D01*
X69637400Y-106568734D01*
X69549951Y-106656031D01*
X69463221Y-106569149D01*
X69308910Y-106505073D01*
X69141823Y-106504928D01*
X68987400Y-106568734D01*
X68869149Y-106686779D01*
X68805073Y-106841090D01*
X68804928Y-107008177D01*
X67694927Y-107008177D01*
X67695072Y-106841823D01*
X67631266Y-106687400D01*
X67513221Y-106569149D01*
X67358910Y-106505073D01*
X67191823Y-106504928D01*
X67037400Y-106568734D01*
X66949951Y-106656031D01*
X66863221Y-106569149D01*
X66708910Y-106505073D01*
X66541823Y-106504928D01*
X66387400Y-106568734D01*
X66299951Y-106656031D01*
X66213221Y-106569149D01*
X66058910Y-106505073D01*
X65891823Y-106504928D01*
X65737400Y-106568734D01*
X65649951Y-106656031D01*
X65563221Y-106569149D01*
X65408910Y-106505073D01*
X65241823Y-106504928D01*
X65087400Y-106568734D01*
X64999951Y-106656031D01*
X64913221Y-106569149D01*
X64758910Y-106505073D01*
X64719995Y-106505039D01*
X64720069Y-106420010D01*
X65899990Y-106420010D01*
X66022449Y-106395651D01*
X66126264Y-106326284D01*
X67135318Y-105317230D01*
X67143734Y-105337600D01*
X67206031Y-105400005D01*
X67144149Y-105461779D01*
X67080073Y-105616090D01*
X67079928Y-105783177D01*
X67143734Y-105937600D01*
X67261779Y-106055851D01*
X67416090Y-106119927D01*
X67583177Y-106120072D01*
X67737600Y-106056266D01*
X67855851Y-105938221D01*
X67919927Y-105783910D01*
X67919972Y-105732576D01*
X68026274Y-105626274D01*
X68042379Y-105602171D01*
X68424510Y-105220040D01*
X71157958Y-105220040D01*
X71280417Y-105195681D01*
X71384232Y-105126314D01*
X73258240Y-103252306D01*
X73261779Y-103255851D01*
X73416090Y-103319927D01*
X73583177Y-103320072D01*
X73737600Y-103256266D01*
X73855851Y-103138221D01*
X73919927Y-102983910D01*
X73920072Y-102816823D01*
X73856266Y-102662400D01*
X73843969Y-102650082D01*
X73855851Y-102638221D01*
X73919927Y-102483910D01*
X73920072Y-102316823D01*
X73856266Y-102162400D01*
X73738221Y-102044149D01*
X73583910Y-101980073D01*
X73416823Y-101979928D01*
X73319325Y-102020213D01*
X73326274Y-102013264D01*
X73395641Y-101909449D01*
X73420000Y-101786990D01*
X73420000Y-101574010D01*
X73455851Y-101538221D01*
X73519927Y-101383910D01*
X73520072Y-101216823D01*
X73456266Y-101062400D01*
X73338221Y-100944149D01*
X73183910Y-100880073D01*
X73016823Y-100879928D01*
X72862400Y-100943734D01*
X72850082Y-100956031D01*
X72838221Y-100944149D01*
X72683910Y-100880073D01*
X72679998Y-100880070D01*
X72719927Y-100783910D01*
X72720072Y-100616823D01*
X72656266Y-100462400D01*
X72538221Y-100344149D01*
X72383910Y-100280073D01*
X72332576Y-100280028D01*
X72326274Y-100273726D01*
X72273137Y-100238221D01*
X72222459Y-100204359D01*
X72100000Y-100180000D01*
X68174010Y-100180000D01*
X68138221Y-100144149D01*
X67983910Y-100080073D01*
X67816823Y-100079928D01*
X67662400Y-100143734D01*
X67626071Y-100180000D01*
X66324550Y-100180000D01*
X65518275Y-99373725D01*
X65506848Y-99366090D01*
X65414460Y-99304358D01*
X65307978Y-99283177D01*
X68079928Y-99283177D01*
X68143734Y-99437600D01*
X68261779Y-99555851D01*
X68416090Y-99619927D01*
X68583177Y-99620072D01*
X68737600Y-99556266D01*
X68855851Y-99438221D01*
X68919927Y-99283910D01*
X68920072Y-99116823D01*
X68878274Y-99015663D01*
X68955851Y-98938221D01*
X69019927Y-98783910D01*
X69020072Y-98616823D01*
X68956266Y-98462400D01*
X68838221Y-98344149D01*
X68683910Y-98280073D01*
X68516823Y-98279928D01*
X68362400Y-98343734D01*
X68244149Y-98461779D01*
X68180073Y-98616090D01*
X68179928Y-98783177D01*
X68221726Y-98884337D01*
X68144149Y-98961779D01*
X68080073Y-99116090D01*
X68079928Y-99283177D01*
X65307978Y-99283177D01*
X65292001Y-99279999D01*
X65120000Y-99279999D01*
X65120000Y-98183177D01*
X69679928Y-98183177D01*
X69743734Y-98337600D01*
X69861779Y-98455851D01*
X70016090Y-98519927D01*
X70183177Y-98520072D01*
X70337600Y-98456266D01*
X70455851Y-98338221D01*
X70519927Y-98183910D01*
X70520072Y-98016823D01*
X70456266Y-97862400D01*
X70338221Y-97744149D01*
X70183910Y-97680073D01*
X70016823Y-97679928D01*
X69862400Y-97743734D01*
X69744149Y-97861779D01*
X69680073Y-98016090D01*
X69679928Y-98183177D01*
X65120000Y-98183177D01*
X65120000Y-97874010D01*
X65155851Y-97838221D01*
X65219927Y-97683910D01*
X65220072Y-97516823D01*
X65156266Y-97362400D01*
X65038221Y-97244149D01*
X64883910Y-97180073D01*
X64717444Y-97179929D01*
X64866951Y-97030682D01*
X64969104Y-96784672D01*
X64969192Y-96683177D01*
X68179928Y-96683177D01*
X68243734Y-96837600D01*
X68256031Y-96849918D01*
X68244149Y-96861779D01*
X68180073Y-97016090D01*
X68179928Y-97183177D01*
X68243734Y-97337600D01*
X68256031Y-97349918D01*
X68244149Y-97361779D01*
X68180073Y-97516090D01*
X68179928Y-97683177D01*
X68243734Y-97837600D01*
X68361779Y-97955851D01*
X68516090Y-98019927D01*
X68683177Y-98020072D01*
X68837600Y-97956266D01*
X68955851Y-97838221D01*
X69019927Y-97683910D01*
X69020072Y-97516823D01*
X68956266Y-97362400D01*
X68943969Y-97350082D01*
X68955851Y-97338221D01*
X69019927Y-97183910D01*
X69020072Y-97016823D01*
X68956266Y-96862400D01*
X68943969Y-96850082D01*
X68955851Y-96838221D01*
X69019927Y-96683910D01*
X69020072Y-96516823D01*
X68956266Y-96362400D01*
X68838221Y-96244149D01*
X68683910Y-96180073D01*
X68516823Y-96179928D01*
X68362400Y-96243734D01*
X68244149Y-96361779D01*
X68180073Y-96516090D01*
X68179928Y-96683177D01*
X64969192Y-96683177D01*
X64969336Y-96518297D01*
X64867613Y-96272109D01*
X64679422Y-96083589D01*
X64433412Y-95981436D01*
X64167037Y-95981204D01*
X63920849Y-96082927D01*
X63732329Y-96271118D01*
X63630176Y-96517128D01*
X63629944Y-96783503D01*
X63731667Y-97029691D01*
X63919858Y-97218211D01*
X64142472Y-97310649D01*
X64062400Y-97343734D01*
X63944149Y-97461779D01*
X63880073Y-97616090D01*
X63879928Y-97783177D01*
X63943734Y-97937600D01*
X64061779Y-98055851D01*
X64216090Y-98119927D01*
X64383177Y-98120072D01*
X64480000Y-98080066D01*
X64480000Y-99369534D01*
X64473727Y-99373725D01*
X64267480Y-99579972D01*
X64216823Y-99579928D01*
X64062400Y-99643734D01*
X63944149Y-99761779D01*
X63880073Y-99916090D01*
X63879928Y-100083177D01*
X63943734Y-100237600D01*
X64061779Y-100355851D01*
X64216090Y-100419927D01*
X64383177Y-100420072D01*
X64537600Y-100356266D01*
X64655851Y-100238221D01*
X64700030Y-100131827D01*
X64743734Y-100237600D01*
X64780000Y-100273929D01*
X64780000Y-102767451D01*
X64267452Y-103280000D01*
X58700000Y-103280000D01*
X58577541Y-103304359D01*
X58473726Y-103373726D01*
X58454588Y-103392864D01*
X58423867Y-103380107D01*
X58177215Y-103379892D01*
X58094087Y-103414240D01*
X58025917Y-103249257D01*
X57851661Y-103074696D01*
X57623867Y-102980107D01*
X57377215Y-102979892D01*
X57149257Y-103074083D01*
X56974696Y-103248339D01*
X56880107Y-103476133D01*
X56879892Y-103722785D01*
X56974083Y-103950743D01*
X57103116Y-104080002D01*
X56977215Y-104079892D01*
X56749257Y-104174083D01*
X56574696Y-104348339D01*
X56480107Y-104576133D01*
X56480045Y-104646749D01*
X55920000Y-104086704D01*
X55920000Y-104074010D01*
X55955851Y-104038221D01*
X56019927Y-103883910D01*
X56020072Y-103716823D01*
X55956266Y-103562400D01*
X55838221Y-103444149D01*
X55683910Y-103380073D01*
X55516823Y-103379928D01*
X55362400Y-103443734D01*
X55244149Y-103561779D01*
X55180073Y-103716090D01*
X55179928Y-103883177D01*
X55243734Y-104037600D01*
X55280000Y-104073929D01*
X55280000Y-104219252D01*
X55304359Y-104341711D01*
X55356621Y-104419927D01*
X55373726Y-104445526D01*
X56979453Y-106051253D01*
X57083268Y-106120620D01*
X57205727Y-106144979D01*
X59115483Y-106144979D01*
X56330493Y-108929969D01*
X53155043Y-108929969D01*
X53032584Y-108954328D01*
X52930620Y-109022458D01*
X52928769Y-109023695D01*
X51523726Y-110428738D01*
X51455648Y-110530624D01*
X51333910Y-110480073D01*
X51166823Y-110479928D01*
X51012400Y-110543734D01*
X50975038Y-110581031D01*
X50938221Y-110544149D01*
X50783910Y-110480073D01*
X50616823Y-110479928D01*
X50462400Y-110543734D01*
X50450082Y-110556031D01*
X50438221Y-110544149D01*
X50283910Y-110480073D01*
X50116823Y-110479928D01*
X49962400Y-110543734D01*
X49844149Y-110661779D01*
X49780073Y-110816090D01*
X49779928Y-110983177D01*
X49843734Y-111137600D01*
X49952381Y-111246436D01*
X49973726Y-111278382D01*
X50175322Y-111479978D01*
X50077215Y-111479892D01*
X49849257Y-111574083D01*
X49674696Y-111748339D01*
X49580107Y-111976133D01*
X49579892Y-112222785D01*
X49580000Y-112223046D01*
X49580000Y-112322517D01*
X49534807Y-112390153D01*
X49526389Y-112432471D01*
X49438221Y-112344149D01*
X49283910Y-112280073D01*
X49116823Y-112279928D01*
X48962400Y-112343734D01*
X48844149Y-112461779D01*
X48780073Y-112616090D01*
X48779928Y-112783177D01*
X48519927Y-112783177D01*
X48520072Y-112616823D01*
X48456266Y-112462400D01*
X48338221Y-112344149D01*
X48183910Y-112280073D01*
X48016823Y-112279928D01*
X47862400Y-112343734D01*
X47744149Y-112461779D01*
X47680073Y-112616090D01*
X47679928Y-112783177D01*
X47370000Y-112783177D01*
X47370000Y-99712883D01*
X58579901Y-99712883D01*
X58666496Y-99922457D01*
X58826699Y-100082941D01*
X59036123Y-100169901D01*
X59262883Y-100170099D01*
X59472457Y-100083504D01*
X59632941Y-99923301D01*
X59678779Y-99812910D01*
X59816090Y-99869927D01*
X59983177Y-99870072D01*
X60137600Y-99806266D01*
X60255851Y-99688221D01*
X60319927Y-99533910D01*
X60320072Y-99366823D01*
X60256266Y-99212400D01*
X60138221Y-99094149D01*
X59983910Y-99030073D01*
X59816823Y-99029928D01*
X59662400Y-99093734D01*
X59556023Y-99199926D01*
X59473301Y-99117059D01*
X59263877Y-99030099D01*
X59037117Y-99029901D01*
X58827543Y-99116496D01*
X58667059Y-99276699D01*
X58580099Y-99486123D01*
X58579901Y-99712883D01*
X47370000Y-99712883D01*
X47370000Y-98183177D01*
X54479928Y-98183177D01*
X54543734Y-98337600D01*
X54606031Y-98400005D01*
X54544149Y-98461779D01*
X54480073Y-98616090D01*
X54479928Y-98783177D01*
X54543734Y-98937600D01*
X54661779Y-99055851D01*
X54816090Y-99119927D01*
X54983177Y-99120072D01*
X55137600Y-99056266D01*
X55255851Y-98938221D01*
X55319927Y-98783910D01*
X55320072Y-98616823D01*
X55256266Y-98462400D01*
X55193969Y-98399995D01*
X55255851Y-98338221D01*
X55319927Y-98183910D01*
X55319972Y-98132576D01*
X55326274Y-98126274D01*
X55395642Y-98022458D01*
X55420000Y-97900000D01*
X55420000Y-97096740D01*
X55548339Y-97225304D01*
X55776133Y-97319893D01*
X56022785Y-97320108D01*
X56250743Y-97225917D01*
X56425304Y-97051661D01*
X56425412Y-97051400D01*
X56556813Y-96920000D01*
X58261855Y-96920000D01*
X58499119Y-96872805D01*
X58632768Y-96783503D01*
X59230664Y-96783503D01*
X59332387Y-97029691D01*
X59520578Y-97218211D01*
X59766588Y-97320364D01*
X60032963Y-97320596D01*
X60279151Y-97218873D01*
X60467671Y-97030682D01*
X60569824Y-96784672D01*
X60569825Y-96783177D01*
X62579928Y-96783177D01*
X62643734Y-96937600D01*
X62656031Y-96949918D01*
X62644149Y-96961779D01*
X62580073Y-97116090D01*
X62579928Y-97283177D01*
X62643734Y-97437600D01*
X62656031Y-97449918D01*
X62644149Y-97461779D01*
X62580073Y-97616090D01*
X62579928Y-97783177D01*
X62643734Y-97937600D01*
X62761779Y-98055851D01*
X62916090Y-98119927D01*
X63083177Y-98120072D01*
X63237600Y-98056266D01*
X63355851Y-97938221D01*
X63419927Y-97783910D01*
X63420072Y-97616823D01*
X63356266Y-97462400D01*
X63343969Y-97450082D01*
X63355851Y-97438221D01*
X63419927Y-97283910D01*
X63420072Y-97116823D01*
X63356266Y-96962400D01*
X63343969Y-96950082D01*
X63355851Y-96938221D01*
X63419927Y-96783910D01*
X63420072Y-96616823D01*
X63356266Y-96462400D01*
X63238221Y-96344149D01*
X63083910Y-96280073D01*
X62916823Y-96279928D01*
X62762400Y-96343734D01*
X62644149Y-96461779D01*
X62580073Y-96616090D01*
X62579928Y-96783177D01*
X60569825Y-96783177D01*
X60570056Y-96518297D01*
X60468333Y-96272109D01*
X60280142Y-96083589D01*
X60034132Y-95981436D01*
X59767757Y-95981204D01*
X59521569Y-96082927D01*
X59333049Y-96271118D01*
X59230896Y-96517128D01*
X59230664Y-96783503D01*
X58632768Y-96783503D01*
X58700261Y-96738406D01*
X59518668Y-95920000D01*
X60799211Y-95920000D01*
X60780073Y-95966090D01*
X60779928Y-96133177D01*
X60843734Y-96287600D01*
X60961779Y-96405851D01*
X61116090Y-96469927D01*
X61283177Y-96470072D01*
X61437600Y-96406266D01*
X61555851Y-96288221D01*
X61619927Y-96133910D01*
X61620072Y-95966823D01*
X61600725Y-95920000D01*
X64643188Y-95920000D01*
X64661594Y-95938406D01*
X64862736Y-96072805D01*
X65100000Y-96120000D01*
X66698885Y-96120000D01*
X66822785Y-96120108D01*
X67050743Y-96025917D01*
X67225304Y-95851661D01*
X67319893Y-95623867D01*
X67320108Y-95377215D01*
X67225917Y-95149257D01*
X67051661Y-94974696D01*
X66823867Y-94880107D01*
X66577215Y-94879892D01*
X66576954Y-94880000D01*
X65356812Y-94880000D01*
X65338406Y-94861594D01*
X65314531Y-94845641D01*
X65137264Y-94727195D01*
X64900000Y-94680000D01*
X63980027Y-94680000D01*
X64019927Y-94583910D01*
X64020072Y-94416823D01*
X63956266Y-94262400D01*
X63838221Y-94144149D01*
X63683910Y-94080073D01*
X63516823Y-94079928D01*
X63362400Y-94143734D01*
X63244149Y-94261779D01*
X63180073Y-94416090D01*
X63179928Y-94583177D01*
X63219934Y-94680000D01*
X62122548Y-94680000D01*
X63719371Y-93083177D01*
X64679928Y-93083177D01*
X64743734Y-93237600D01*
X64861779Y-93355851D01*
X65016090Y-93419927D01*
X65183177Y-93420072D01*
X65337600Y-93356266D01*
X65455851Y-93238221D01*
X65519927Y-93083910D01*
X65520072Y-92916823D01*
X65456266Y-92762400D01*
X65377182Y-92683177D01*
X67579928Y-92683177D01*
X67643734Y-92837600D01*
X67761779Y-92955851D01*
X67916090Y-93019927D01*
X68083177Y-93020072D01*
X68237600Y-92956266D01*
X68249918Y-92943969D01*
X68261779Y-92955851D01*
X68416090Y-93019927D01*
X68583177Y-93020072D01*
X68737600Y-92956266D01*
X68855851Y-92838221D01*
X68919927Y-92683910D01*
X68920072Y-92516823D01*
X68856266Y-92362400D01*
X68738221Y-92244149D01*
X68583910Y-92180073D01*
X68416823Y-92179928D01*
X68262400Y-92243734D01*
X68250082Y-92256031D01*
X68238221Y-92244149D01*
X68083910Y-92180073D01*
X67916823Y-92179928D01*
X67762400Y-92243734D01*
X67644149Y-92361779D01*
X67580073Y-92516090D01*
X67579928Y-92683177D01*
X65377182Y-92683177D01*
X65338221Y-92644149D01*
X65183910Y-92580073D01*
X65016823Y-92579928D01*
X64862400Y-92643734D01*
X64744149Y-92761779D01*
X64680073Y-92916090D01*
X64679928Y-93083177D01*
X63719371Y-93083177D01*
X63782520Y-93020028D01*
X63833177Y-93020072D01*
X63987600Y-92956266D01*
X64105851Y-92838221D01*
X64169927Y-92683910D01*
X64170072Y-92516823D01*
X64106266Y-92362400D01*
X63988221Y-92244149D01*
X63833910Y-92180073D01*
X63666823Y-92179928D01*
X63512400Y-92243734D01*
X63394149Y-92361779D01*
X63330073Y-92516090D01*
X63330028Y-92567424D01*
X61667452Y-94230000D01*
X58899990Y-94230000D01*
X58777531Y-94254359D01*
X58673716Y-94323726D01*
X57767452Y-95229990D01*
X55950010Y-95229990D01*
X55827552Y-95254348D01*
X55723736Y-95323716D01*
X54873726Y-96173726D01*
X54804359Y-96277541D01*
X54780000Y-96400000D01*
X54780000Y-97695143D01*
X54662400Y-97743734D01*
X54544149Y-97861779D01*
X54480073Y-98016090D01*
X54479928Y-98183177D01*
X47370000Y-98183177D01*
X47370000Y-91683177D01*
X55779928Y-91683177D01*
X55843734Y-91837600D01*
X55895351Y-91889307D01*
X55904359Y-91934591D01*
X55918842Y-91956266D01*
X55973726Y-92038406D01*
X56161595Y-92226275D01*
X56265410Y-92295642D01*
X56387869Y-92320001D01*
X58399999Y-92320001D01*
X58522458Y-92295642D01*
X58626273Y-92226275D01*
X58832520Y-92020028D01*
X58883177Y-92020072D01*
X59037600Y-91956266D01*
X59155851Y-91838221D01*
X59219927Y-91683910D01*
X59220072Y-91516823D01*
X59156266Y-91362400D01*
X59038221Y-91244149D01*
X58883910Y-91180073D01*
X58716823Y-91179928D01*
X58562400Y-91243734D01*
X58444149Y-91361779D01*
X58380073Y-91516090D01*
X58380028Y-91567424D01*
X58267451Y-91680001D01*
X58119930Y-91680001D01*
X58120072Y-91516823D01*
X58056266Y-91362400D01*
X57938221Y-91244149D01*
X57783910Y-91180073D01*
X57616823Y-91179928D01*
X57462400Y-91243734D01*
X57450082Y-91256031D01*
X57438221Y-91244149D01*
X57283910Y-91180073D01*
X57116823Y-91179928D01*
X56962400Y-91243734D01*
X56950082Y-91256031D01*
X56938221Y-91244149D01*
X56783910Y-91180073D01*
X56616823Y-91179928D01*
X56462400Y-91243734D01*
X56450082Y-91256031D01*
X56438221Y-91244149D01*
X56283910Y-91180073D01*
X56116823Y-91179928D01*
X55962400Y-91243734D01*
X55844149Y-91361779D01*
X55780073Y-91516090D01*
X55779928Y-91683177D01*
X47370000Y-91683177D01*
X47370000Y-91170000D01*
X69659139Y-91170000D01*
X69649257Y-91174083D01*
X69649257Y-91174083D01*
G37*
X69649257Y-91174083D02*
X69474696Y-91348339D01*
X69380107Y-91576133D01*
X69379892Y-91822785D01*
X69474083Y-92050743D01*
X69648339Y-92225304D01*
X69876133Y-92319893D01*
X70122785Y-92320108D01*
X70350743Y-92225917D01*
X70500108Y-92076813D01*
X70648339Y-92225304D01*
X70876133Y-92319893D01*
X71122785Y-92320108D01*
X71350743Y-92225917D01*
X71525304Y-92051661D01*
X71619893Y-91823867D01*
X71620108Y-91577215D01*
X71525917Y-91349257D01*
X71351661Y-91174696D01*
X71340352Y-91170000D01*
X76630000Y-91170000D01*
X76630000Y-124330000D01*
X47370000Y-124330000D01*
X47370000Y-121383167D01*
X61479928Y-121383167D01*
X61543734Y-121537590D01*
X61661779Y-121655841D01*
X61816090Y-121719917D01*
X61983177Y-121720062D01*
X62137600Y-121656256D01*
X62149918Y-121643959D01*
X62161779Y-121655841D01*
X62316090Y-121719917D01*
X62483177Y-121720062D01*
X62637600Y-121656256D01*
X62649918Y-121643959D01*
X62661779Y-121655841D01*
X62816090Y-121719917D01*
X62983177Y-121720062D01*
X63137600Y-121656256D01*
X63149913Y-121643964D01*
X63161779Y-121655851D01*
X63316090Y-121719927D01*
X63483177Y-121720072D01*
X63637600Y-121656266D01*
X63649918Y-121643969D01*
X63661779Y-121655851D01*
X63816090Y-121719927D01*
X63983177Y-121720072D01*
X64137600Y-121656266D01*
X64149918Y-121643969D01*
X64161779Y-121655851D01*
X64316090Y-121719927D01*
X64483177Y-121720072D01*
X64637600Y-121656266D01*
X64649918Y-121643969D01*
X64661779Y-121655851D01*
X64816090Y-121719927D01*
X64983177Y-121720072D01*
X65137600Y-121656266D01*
X65255851Y-121538221D01*
X65319927Y-121383910D01*
X65319927Y-121383177D01*
X65479928Y-121383177D01*
X65543734Y-121537600D01*
X65661779Y-121655851D01*
X65816090Y-121719927D01*
X65983177Y-121720072D01*
X66137600Y-121656266D01*
X66255851Y-121538221D01*
X66319927Y-121383910D01*
X66319927Y-121383177D01*
X67479928Y-121383177D01*
X67543734Y-121537600D01*
X67661779Y-121655851D01*
X67816090Y-121719927D01*
X67983177Y-121720072D01*
X68137600Y-121656266D01*
X68255851Y-121538221D01*
X68319927Y-121383910D01*
X68320072Y-121216823D01*
X68256266Y-121062400D01*
X68138221Y-120944149D01*
X67983910Y-120880073D01*
X67816823Y-120879928D01*
X67662400Y-120943734D01*
X67544149Y-121061779D01*
X67480073Y-121216090D01*
X67479928Y-121383177D01*
X66319927Y-121383177D01*
X66320072Y-121216823D01*
X66256266Y-121062400D01*
X66138221Y-120944149D01*
X65983910Y-120880073D01*
X65816823Y-120879928D01*
X65662400Y-120943734D01*
X65544149Y-121061779D01*
X65480073Y-121216090D01*
X65479928Y-121383177D01*
X65319927Y-121383177D01*
X65320072Y-121216823D01*
X65256266Y-121062400D01*
X65138221Y-120944149D01*
X64983910Y-120880073D01*
X64816823Y-120879928D01*
X64662400Y-120943734D01*
X64650082Y-120956031D01*
X64638221Y-120944149D01*
X64483910Y-120880073D01*
X64316823Y-120879928D01*
X64162400Y-120943734D01*
X64150082Y-120956031D01*
X64138221Y-120944149D01*
X63983910Y-120880073D01*
X63816823Y-120879928D01*
X63662400Y-120943734D01*
X63650082Y-120956031D01*
X63638221Y-120944149D01*
X63483910Y-120880073D01*
X63316823Y-120879928D01*
X63162400Y-120943734D01*
X63150087Y-120956026D01*
X63138221Y-120944139D01*
X62983910Y-120880063D01*
X62816823Y-120879918D01*
X62662400Y-120943724D01*
X62650082Y-120956021D01*
X62638221Y-120944139D01*
X62483910Y-120880063D01*
X62316823Y-120879918D01*
X62162400Y-120943724D01*
X62150082Y-120956021D01*
X62138221Y-120944139D01*
X61983910Y-120880063D01*
X61816823Y-120879918D01*
X61662400Y-120943724D01*
X61544149Y-121061769D01*
X61480073Y-121216080D01*
X61479928Y-121383167D01*
X47370000Y-121383167D01*
X47370000Y-118083177D01*
X47379928Y-118083177D01*
X47443734Y-118237600D01*
X47561779Y-118355851D01*
X47716090Y-118419927D01*
X47883177Y-118420072D01*
X48037600Y-118356266D01*
X48155851Y-118238221D01*
X48219927Y-118083910D01*
X48220072Y-117916823D01*
X48156266Y-117762400D01*
X48038221Y-117644149D01*
X47883910Y-117580073D01*
X47716823Y-117579928D01*
X47562400Y-117643734D01*
X47444149Y-117761779D01*
X47380073Y-117916090D01*
X47379928Y-118083177D01*
X47370000Y-118083177D01*
X47370000Y-114883177D01*
X49879928Y-114883177D01*
X49943734Y-115037600D01*
X50061779Y-115155851D01*
X50216090Y-115219927D01*
X50383177Y-115220072D01*
X50537600Y-115156266D01*
X50655851Y-115038221D01*
X50719927Y-114883910D01*
X50720072Y-114716823D01*
X50656266Y-114562400D01*
X50538221Y-114444149D01*
X50383910Y-114380073D01*
X50216823Y-114379928D01*
X50062400Y-114443734D01*
X49944149Y-114561779D01*
X49880073Y-114716090D01*
X49879928Y-114883177D01*
X47370000Y-114883177D01*
X47370000Y-112783177D01*
X47679928Y-112783177D01*
X47743734Y-112937600D01*
X47861779Y-113055851D01*
X48016090Y-113119927D01*
X48183177Y-113120072D01*
X48337600Y-113056266D01*
X48455851Y-112938221D01*
X48519927Y-112783910D01*
X48519927Y-112783177D01*
X48779928Y-112783177D01*
X48843734Y-112937600D01*
X48961779Y-113055851D01*
X49116090Y-113119927D01*
X49283177Y-113120072D01*
X49437600Y-113056266D01*
X49542026Y-112952022D01*
X49690883Y-113174802D01*
X50325198Y-113809117D01*
X50558783Y-113965193D01*
X50834315Y-114020000D01*
X52780000Y-114020000D01*
X52780000Y-114425990D01*
X52744149Y-114461779D01*
X52680073Y-114616090D01*
X52679931Y-114780000D01*
X52610170Y-114780000D01*
X52514864Y-114684694D01*
X52514908Y-114634037D01*
X52451102Y-114479614D01*
X52333057Y-114361363D01*
X52178746Y-114297287D01*
X52011659Y-114297142D01*
X51857236Y-114360948D01*
X51738985Y-114478993D01*
X51674909Y-114633304D01*
X51674764Y-114800391D01*
X51738570Y-114954814D01*
X51856615Y-115073065D01*
X52010926Y-115137141D01*
X52062260Y-115137186D01*
X52251348Y-115326274D01*
X52251351Y-115326276D01*
X52355162Y-115395641D01*
X52477621Y-115420000D01*
X52907998Y-115420001D01*
X53999999Y-115420001D01*
X54122458Y-115395642D01*
X54226273Y-115326275D01*
X54432520Y-115120028D01*
X54483177Y-115120072D01*
X54637600Y-115056266D01*
X54755851Y-114938221D01*
X54819927Y-114783910D01*
X54820072Y-114616823D01*
X54756266Y-114462400D01*
X54638221Y-114344149D01*
X54483910Y-114280073D01*
X54316823Y-114279928D01*
X54162400Y-114343734D01*
X54044149Y-114461779D01*
X53980073Y-114616090D01*
X53980028Y-114667424D01*
X53867451Y-114780001D01*
X53519930Y-114780001D01*
X53520072Y-114616823D01*
X53456266Y-114462400D01*
X53420000Y-114426071D01*
X53420000Y-114020000D01*
X58480000Y-114020000D01*
X58480000Y-115050000D01*
X58534807Y-115325532D01*
X58690883Y-115559117D01*
X58924468Y-115715193D01*
X59200000Y-115770000D01*
X59475532Y-115715193D01*
X59709117Y-115559117D01*
X59865193Y-115325532D01*
X59920000Y-115050000D01*
X59920000Y-114213999D01*
X59961779Y-114255851D01*
X60116090Y-114319927D01*
X60139890Y-114319948D01*
X60079358Y-114410540D01*
X60054999Y-114532999D01*
X60054999Y-116792453D01*
X59917462Y-116929990D01*
X56294670Y-116929990D01*
X56238406Y-116873726D01*
X56220526Y-116861779D01*
X56134591Y-116804359D01*
X56089341Y-116795358D01*
X56038221Y-116744149D01*
X55883910Y-116680073D01*
X55716823Y-116679928D01*
X55562400Y-116743734D01*
X55444149Y-116861779D01*
X55380073Y-117016090D01*
X55379928Y-117183177D01*
X55443734Y-117337600D01*
X55456031Y-117349918D01*
X55444149Y-117361779D01*
X55380073Y-117516090D01*
X55379928Y-117683177D01*
X55443734Y-117837600D01*
X55561779Y-117955851D01*
X55716090Y-118019927D01*
X55883177Y-118020072D01*
X56037600Y-117956266D01*
X56073929Y-117920000D01*
X57727452Y-117920000D01*
X57567480Y-118079972D01*
X57516823Y-118079928D01*
X57362400Y-118143734D01*
X57299995Y-118206031D01*
X57238221Y-118144149D01*
X57083910Y-118080073D01*
X56916823Y-118079928D01*
X56762400Y-118143734D01*
X56644149Y-118261779D01*
X56580073Y-118416090D01*
X56580018Y-118480000D01*
X56074010Y-118480000D01*
X56038221Y-118444149D01*
X55883910Y-118380073D01*
X55716823Y-118379928D01*
X55562400Y-118443734D01*
X55444149Y-118561779D01*
X55380073Y-118716090D01*
X55379928Y-118883177D01*
X55443734Y-119037600D01*
X55456031Y-119049918D01*
X55444149Y-119061779D01*
X55380073Y-119216090D01*
X55379928Y-119383177D01*
X55443734Y-119537600D01*
X55561779Y-119655851D01*
X55716090Y-119719927D01*
X55883177Y-119720072D01*
X56037600Y-119656266D01*
X56155851Y-119538221D01*
X56219927Y-119383910D01*
X56220072Y-119216823D01*
X56180066Y-119120000D01*
X56575450Y-119120000D01*
X56931735Y-119476285D01*
X57035551Y-119545653D01*
X57158009Y-119570011D01*
X58100000Y-119570011D01*
X58222459Y-119545652D01*
X58326274Y-119476285D01*
X58582559Y-119220000D01*
X60519973Y-119220000D01*
X60480073Y-119316090D01*
X60479928Y-119483177D01*
X60543734Y-119637600D01*
X60661779Y-119755851D01*
X60816090Y-119819927D01*
X60983177Y-119820072D01*
X61072494Y-119783167D01*
X62379938Y-119783167D01*
X62443744Y-119937590D01*
X62561789Y-120055841D01*
X62716100Y-120119917D01*
X62883187Y-120120062D01*
X63037610Y-120056256D01*
X63155861Y-119938211D01*
X63219937Y-119783900D01*
X63219937Y-119783177D01*
X66479928Y-119783177D01*
X66543734Y-119937600D01*
X66661779Y-120055851D01*
X66816090Y-120119927D01*
X66983177Y-120120072D01*
X67137600Y-120056266D01*
X67255851Y-119938221D01*
X67319927Y-119783910D01*
X67319927Y-119783177D01*
X67479928Y-119783177D01*
X67543734Y-119937600D01*
X67661779Y-120055851D01*
X67816090Y-120119927D01*
X67983177Y-120120072D01*
X68137600Y-120056266D01*
X68149918Y-120043969D01*
X68161779Y-120055851D01*
X68316090Y-120119927D01*
X68483177Y-120120072D01*
X68637600Y-120056266D01*
X68755851Y-119938221D01*
X68819927Y-119783910D01*
X68820072Y-119616823D01*
X68756266Y-119462400D01*
X68638221Y-119344149D01*
X68483910Y-119280073D01*
X68316823Y-119279928D01*
X68162400Y-119343734D01*
X68150082Y-119356031D01*
X68138221Y-119344149D01*
X67983910Y-119280073D01*
X67816823Y-119279928D01*
X67662400Y-119343734D01*
X67544149Y-119461779D01*
X67480073Y-119616090D01*
X67479928Y-119783177D01*
X67319927Y-119783177D01*
X67320072Y-119616823D01*
X67256266Y-119462400D01*
X67138221Y-119344149D01*
X66983910Y-119280073D01*
X66816823Y-119279928D01*
X66662400Y-119343734D01*
X66544149Y-119461779D01*
X66480073Y-119616090D01*
X66479928Y-119783177D01*
X63219937Y-119783177D01*
X63220082Y-119616813D01*
X63156276Y-119462390D01*
X63038231Y-119344139D01*
X62883920Y-119280063D01*
X62716833Y-119279918D01*
X62562410Y-119343724D01*
X62444159Y-119461769D01*
X62380083Y-119616080D01*
X62379938Y-119783167D01*
X61072494Y-119783167D01*
X61137600Y-119756266D01*
X61255851Y-119638221D01*
X61319927Y-119483910D01*
X61320072Y-119316823D01*
X61256266Y-119162400D01*
X61243969Y-119150082D01*
X61255851Y-119138221D01*
X61319927Y-118983910D01*
X61320072Y-118816823D01*
X61295888Y-118758292D01*
X61359439Y-118745651D01*
X61463254Y-118676284D01*
X62444518Y-117695020D01*
X63474990Y-117695020D01*
X63597449Y-117670661D01*
X63701264Y-117601294D01*
X64132548Y-117170010D01*
X65584588Y-117170010D01*
X65555073Y-117241090D01*
X65554928Y-117408177D01*
X65618734Y-117562600D01*
X65736779Y-117680851D01*
X65891090Y-117744927D01*
X66058177Y-117745072D01*
X66212600Y-117681266D01*
X66330851Y-117563221D01*
X66394927Y-117408910D01*
X66395072Y-117241823D01*
X66365400Y-117170010D01*
X66884588Y-117170010D01*
X66855073Y-117241090D01*
X66854928Y-117408177D01*
X66918734Y-117562600D01*
X67036779Y-117680851D01*
X67191090Y-117744927D01*
X67358177Y-117745072D01*
X67453251Y-117705788D01*
X68779983Y-119032520D01*
X68779939Y-119083177D01*
X68843745Y-119237600D01*
X68961790Y-119355851D01*
X69116101Y-119419927D01*
X69283188Y-119420072D01*
X69437611Y-119356266D01*
X69555862Y-119238221D01*
X69597509Y-119137925D01*
X69762116Y-119302532D01*
X69662400Y-119343734D01*
X69544149Y-119461779D01*
X69480073Y-119616090D01*
X69479928Y-119783177D01*
X69543734Y-119937600D01*
X69661779Y-120055851D01*
X69816090Y-120119927D01*
X69983177Y-120120072D01*
X70137600Y-120056266D01*
X70149918Y-120043969D01*
X70161779Y-120055851D01*
X70316090Y-120119927D01*
X70483177Y-120120072D01*
X70637600Y-120056266D01*
X70649918Y-120043969D01*
X70661779Y-120055851D01*
X70816090Y-120119927D01*
X70983177Y-120120072D01*
X71137600Y-120056266D01*
X71149918Y-120043969D01*
X71161779Y-120055851D01*
X71316090Y-120119927D01*
X71483177Y-120120072D01*
X71637600Y-120056266D01*
X71755851Y-119938221D01*
X71819927Y-119783910D01*
X71820072Y-119616823D01*
X71756266Y-119462400D01*
X71704649Y-119410693D01*
X71695641Y-119365409D01*
X71626274Y-119261594D01*
X71438405Y-119073725D01*
X71421456Y-119062400D01*
X71334590Y-119004358D01*
X71212131Y-118979999D01*
X70839667Y-118979999D01*
X68645001Y-116785333D01*
X68645001Y-116425001D01*
X68620642Y-116302542D01*
X68551275Y-116198727D01*
X68345028Y-115992480D01*
X68345072Y-115941823D01*
X68281266Y-115787400D01*
X68259069Y-115765164D01*
X68292696Y-115742696D01*
X68405417Y-115573995D01*
X68428454Y-115458177D01*
X68804928Y-115458177D01*
X68868734Y-115612600D01*
X68956031Y-115700049D01*
X68869149Y-115786779D01*
X68805073Y-115941090D01*
X68804928Y-116108177D01*
X68868734Y-116262600D01*
X68986779Y-116380851D01*
X69141090Y-116444927D01*
X69308177Y-116445072D01*
X69462600Y-116381266D01*
X69580851Y-116263221D01*
X69644927Y-116108910D01*
X69645072Y-115941823D01*
X69581266Y-115787400D01*
X69493969Y-115699951D01*
X69580851Y-115613221D01*
X69644927Y-115458910D01*
X69645072Y-115291823D01*
X69581266Y-115137400D01*
X69463221Y-115019149D01*
X69308910Y-114955073D01*
X69141823Y-114954928D01*
X68987400Y-115018734D01*
X68869149Y-115136779D01*
X68805073Y-115291090D01*
X68804928Y-115458177D01*
X68428454Y-115458177D01*
X68445000Y-115375000D01*
X68405417Y-115176005D01*
X68292696Y-115007304D01*
X68123995Y-114894583D01*
X67925000Y-114855000D01*
X67675789Y-114855000D01*
X67694927Y-114808910D01*
X67694972Y-114757576D01*
X67807549Y-114644999D01*
X68092451Y-114644999D01*
X68298756Y-114851304D01*
X68402571Y-114920671D01*
X68525030Y-114945030D01*
X70250505Y-114945030D01*
X70157304Y-115007304D01*
X70044583Y-115176005D01*
X70005000Y-115375000D01*
X70044583Y-115573995D01*
X70157304Y-115742696D01*
X70190853Y-115765113D01*
X70169149Y-115786779D01*
X70105073Y-115941090D01*
X70104928Y-116108177D01*
X70168734Y-116262600D01*
X70256031Y-116350049D01*
X70169149Y-116436779D01*
X70105073Y-116591090D01*
X70104928Y-116758177D01*
X70168734Y-116912600D01*
X70286779Y-117030851D01*
X70441090Y-117094927D01*
X70608177Y-117095072D01*
X70762600Y-117031266D01*
X70880851Y-116913221D01*
X70944927Y-116758910D01*
X70945072Y-116591823D01*
X70881266Y-116437400D01*
X70793969Y-116349951D01*
X70880851Y-116263221D01*
X70944927Y-116108910D01*
X70944989Y-116037801D01*
X71364000Y-116456813D01*
X71364000Y-116684000D01*
X71418807Y-116959532D01*
X71574883Y-117193117D01*
X74590883Y-120209117D01*
X74824468Y-120365193D01*
X75100000Y-120420000D01*
X75375532Y-120365193D01*
X75609117Y-120209117D01*
X75765193Y-119975532D01*
X75820000Y-119700000D01*
X75765193Y-119424468D01*
X75609117Y-119190883D01*
X73301411Y-116883177D01*
X73479928Y-116883177D01*
X73543734Y-117037600D01*
X73661779Y-117155851D01*
X73816090Y-117219927D01*
X73983177Y-117220072D01*
X74137600Y-117156266D01*
X74255851Y-117038221D01*
X74319927Y-116883910D01*
X74320072Y-116716823D01*
X74256266Y-116562400D01*
X74138221Y-116444149D01*
X73983910Y-116380073D01*
X73816823Y-116379928D01*
X73662400Y-116443734D01*
X73544149Y-116561779D01*
X73480073Y-116716090D01*
X73479928Y-116883177D01*
X73301411Y-116883177D01*
X72804000Y-116385766D01*
X72804000Y-116300000D01*
X72749193Y-116024468D01*
X72593117Y-115790883D01*
X72359532Y-115634807D01*
X72279750Y-115618937D01*
X71605842Y-114945030D01*
X71832546Y-114945030D01*
X71955005Y-114920671D01*
X72058820Y-114851304D01*
X72790124Y-114120000D01*
X73275990Y-114120000D01*
X73311779Y-114155851D01*
X73466090Y-114219927D01*
X73633177Y-114220072D01*
X73787600Y-114156266D01*
X73905851Y-114038221D01*
X73969927Y-113883910D01*
X73970072Y-113716823D01*
X73906266Y-113562400D01*
X73788221Y-113444149D01*
X73633910Y-113380073D01*
X73466823Y-113379928D01*
X73312400Y-113443734D01*
X73276071Y-113480000D01*
X72935136Y-113480000D01*
X73895135Y-112520001D01*
X74092001Y-112520001D01*
X74214460Y-112495642D01*
X74318275Y-112426275D01*
X74726275Y-112018275D01*
X74758538Y-111969990D01*
X74795642Y-111914460D01*
X74820001Y-111792001D01*
X74820001Y-106900001D01*
X74795642Y-106777542D01*
X74768967Y-106737620D01*
X74726275Y-106673726D01*
X74620028Y-106567479D01*
X74620072Y-106516823D01*
X74556266Y-106362400D01*
X74438221Y-106244149D01*
X74283910Y-106180073D01*
X74116823Y-106179928D01*
X73962400Y-106243734D01*
X73844149Y-106361779D01*
X73780073Y-106516090D01*
X73779928Y-106683177D01*
X73843734Y-106837600D01*
X73961779Y-106955851D01*
X74116090Y-107019927D01*
X74167423Y-107019972D01*
X74180001Y-107032550D01*
X74180001Y-108880070D01*
X74016823Y-108879928D01*
X73862400Y-108943734D01*
X73744149Y-109061779D01*
X73680073Y-109216090D01*
X73680028Y-109267424D01*
X73573726Y-109373726D01*
X73504359Y-109477541D01*
X73480000Y-109600000D01*
X73480000Y-109619973D01*
X73383910Y-109580073D01*
X73216823Y-109579928D01*
X73062400Y-109643734D01*
X73026071Y-109680000D01*
X72320000Y-109680000D01*
X72320000Y-108500005D01*
X72320001Y-108500000D01*
X72280417Y-108301005D01*
X72268505Y-108283177D01*
X72167696Y-108132304D01*
X72167693Y-108132302D01*
X71867697Y-107832305D01*
X71867694Y-107832303D01*
X71467696Y-107432304D01*
X71298995Y-107319583D01*
X71100000Y-107279999D01*
X70901005Y-107319583D01*
X70732304Y-107432304D01*
X70619583Y-107601005D01*
X70579999Y-107800000D01*
X70612760Y-107964697D01*
X70586961Y-107947458D01*
X70522459Y-107904359D01*
X70400000Y-107880000D01*
X69274551Y-107880000D01*
X68743276Y-107348726D01*
X68707769Y-107325001D01*
X68639461Y-107279359D01*
X68517002Y-107255000D01*
X68199010Y-107255000D01*
X68163221Y-107219149D01*
X68008910Y-107155073D01*
X67841823Y-107154928D01*
X67687400Y-107218734D01*
X67599951Y-107306031D01*
X67543969Y-107249951D01*
X67630851Y-107163221D01*
X67694927Y-107008910D01*
X67694927Y-107008177D01*
X68804928Y-107008177D01*
X68868734Y-107162600D01*
X68986779Y-107280851D01*
X69141090Y-107344927D01*
X69308177Y-107345072D01*
X69462600Y-107281266D01*
X69550049Y-107193969D01*
X69636779Y-107280851D01*
X69791090Y-107344927D01*
X69958177Y-107345072D01*
X70112600Y-107281266D01*
X70230851Y-107163221D01*
X70294927Y-107008910D01*
X70295072Y-106841823D01*
X70231266Y-106687400D01*
X70113221Y-106569149D01*
X69958910Y-106505073D01*
X69791823Y-106504928D01*
X69637400Y-106568734D01*
X69549951Y-106656031D01*
X69463221Y-106569149D01*
X69308910Y-106505073D01*
X69141823Y-106504928D01*
X68987400Y-106568734D01*
X68869149Y-106686779D01*
X68805073Y-106841090D01*
X68804928Y-107008177D01*
X67694927Y-107008177D01*
X67695072Y-106841823D01*
X67631266Y-106687400D01*
X67513221Y-106569149D01*
X67358910Y-106505073D01*
X67191823Y-106504928D01*
X67037400Y-106568734D01*
X66949951Y-106656031D01*
X66863221Y-106569149D01*
X66708910Y-106505073D01*
X66541823Y-106504928D01*
X66387400Y-106568734D01*
X66299951Y-106656031D01*
X66213221Y-106569149D01*
X66058910Y-106505073D01*
X65891823Y-106504928D01*
X65737400Y-106568734D01*
X65649951Y-106656031D01*
X65563221Y-106569149D01*
X65408910Y-106505073D01*
X65241823Y-106504928D01*
X65087400Y-106568734D01*
X64999951Y-106656031D01*
X64913221Y-106569149D01*
X64758910Y-106505073D01*
X64719995Y-106505039D01*
X64720069Y-106420010D01*
X65899990Y-106420010D01*
X66022449Y-106395651D01*
X66126264Y-106326284D01*
X67135318Y-105317230D01*
X67143734Y-105337600D01*
X67206031Y-105400005D01*
X67144149Y-105461779D01*
X67080073Y-105616090D01*
X67079928Y-105783177D01*
X67143734Y-105937600D01*
X67261779Y-106055851D01*
X67416090Y-106119927D01*
X67583177Y-106120072D01*
X67737600Y-106056266D01*
X67855851Y-105938221D01*
X67919927Y-105783910D01*
X67919972Y-105732576D01*
X68026274Y-105626274D01*
X68042379Y-105602171D01*
X68424510Y-105220040D01*
X71157958Y-105220040D01*
X71280417Y-105195681D01*
X71384232Y-105126314D01*
X73258240Y-103252306D01*
X73261779Y-103255851D01*
X73416090Y-103319927D01*
X73583177Y-103320072D01*
X73737600Y-103256266D01*
X73855851Y-103138221D01*
X73919927Y-102983910D01*
X73920072Y-102816823D01*
X73856266Y-102662400D01*
X73843969Y-102650082D01*
X73855851Y-102638221D01*
X73919927Y-102483910D01*
X73920072Y-102316823D01*
X73856266Y-102162400D01*
X73738221Y-102044149D01*
X73583910Y-101980073D01*
X73416823Y-101979928D01*
X73319325Y-102020213D01*
X73326274Y-102013264D01*
X73395641Y-101909449D01*
X73420000Y-101786990D01*
X73420000Y-101574010D01*
X73455851Y-101538221D01*
X73519927Y-101383910D01*
X73520072Y-101216823D01*
X73456266Y-101062400D01*
X73338221Y-100944149D01*
X73183910Y-100880073D01*
X73016823Y-100879928D01*
X72862400Y-100943734D01*
X72850082Y-100956031D01*
X72838221Y-100944149D01*
X72683910Y-100880073D01*
X72679998Y-100880070D01*
X72719927Y-100783910D01*
X72720072Y-100616823D01*
X72656266Y-100462400D01*
X72538221Y-100344149D01*
X72383910Y-100280073D01*
X72332576Y-100280028D01*
X72326274Y-100273726D01*
X72273137Y-100238221D01*
X72222459Y-100204359D01*
X72100000Y-100180000D01*
X68174010Y-100180000D01*
X68138221Y-100144149D01*
X67983910Y-100080073D01*
X67816823Y-100079928D01*
X67662400Y-100143734D01*
X67626071Y-100180000D01*
X66324550Y-100180000D01*
X65518275Y-99373725D01*
X65506848Y-99366090D01*
X65414460Y-99304358D01*
X65307978Y-99283177D01*
X68079928Y-99283177D01*
X68143734Y-99437600D01*
X68261779Y-99555851D01*
X68416090Y-99619927D01*
X68583177Y-99620072D01*
X68737600Y-99556266D01*
X68855851Y-99438221D01*
X68919927Y-99283910D01*
X68920072Y-99116823D01*
X68878274Y-99015663D01*
X68955851Y-98938221D01*
X69019927Y-98783910D01*
X69020072Y-98616823D01*
X68956266Y-98462400D01*
X68838221Y-98344149D01*
X68683910Y-98280073D01*
X68516823Y-98279928D01*
X68362400Y-98343734D01*
X68244149Y-98461779D01*
X68180073Y-98616090D01*
X68179928Y-98783177D01*
X68221726Y-98884337D01*
X68144149Y-98961779D01*
X68080073Y-99116090D01*
X68079928Y-99283177D01*
X65307978Y-99283177D01*
X65292001Y-99279999D01*
X65120000Y-99279999D01*
X65120000Y-98183177D01*
X69679928Y-98183177D01*
X69743734Y-98337600D01*
X69861779Y-98455851D01*
X70016090Y-98519927D01*
X70183177Y-98520072D01*
X70337600Y-98456266D01*
X70455851Y-98338221D01*
X70519927Y-98183910D01*
X70520072Y-98016823D01*
X70456266Y-97862400D01*
X70338221Y-97744149D01*
X70183910Y-97680073D01*
X70016823Y-97679928D01*
X69862400Y-97743734D01*
X69744149Y-97861779D01*
X69680073Y-98016090D01*
X69679928Y-98183177D01*
X65120000Y-98183177D01*
X65120000Y-97874010D01*
X65155851Y-97838221D01*
X65219927Y-97683910D01*
X65220072Y-97516823D01*
X65156266Y-97362400D01*
X65038221Y-97244149D01*
X64883910Y-97180073D01*
X64717444Y-97179929D01*
X64866951Y-97030682D01*
X64969104Y-96784672D01*
X64969192Y-96683177D01*
X68179928Y-96683177D01*
X68243734Y-96837600D01*
X68256031Y-96849918D01*
X68244149Y-96861779D01*
X68180073Y-97016090D01*
X68179928Y-97183177D01*
X68243734Y-97337600D01*
X68256031Y-97349918D01*
X68244149Y-97361779D01*
X68180073Y-97516090D01*
X68179928Y-97683177D01*
X68243734Y-97837600D01*
X68361779Y-97955851D01*
X68516090Y-98019927D01*
X68683177Y-98020072D01*
X68837600Y-97956266D01*
X68955851Y-97838221D01*
X69019927Y-97683910D01*
X69020072Y-97516823D01*
X68956266Y-97362400D01*
X68943969Y-97350082D01*
X68955851Y-97338221D01*
X69019927Y-97183910D01*
X69020072Y-97016823D01*
X68956266Y-96862400D01*
X68943969Y-96850082D01*
X68955851Y-96838221D01*
X69019927Y-96683910D01*
X69020072Y-96516823D01*
X68956266Y-96362400D01*
X68838221Y-96244149D01*
X68683910Y-96180073D01*
X68516823Y-96179928D01*
X68362400Y-96243734D01*
X68244149Y-96361779D01*
X68180073Y-96516090D01*
X68179928Y-96683177D01*
X64969192Y-96683177D01*
X64969336Y-96518297D01*
X64867613Y-96272109D01*
X64679422Y-96083589D01*
X64433412Y-95981436D01*
X64167037Y-95981204D01*
X63920849Y-96082927D01*
X63732329Y-96271118D01*
X63630176Y-96517128D01*
X63629944Y-96783503D01*
X63731667Y-97029691D01*
X63919858Y-97218211D01*
X64142472Y-97310649D01*
X64062400Y-97343734D01*
X63944149Y-97461779D01*
X63880073Y-97616090D01*
X63879928Y-97783177D01*
X63943734Y-97937600D01*
X64061779Y-98055851D01*
X64216090Y-98119927D01*
X64383177Y-98120072D01*
X64480000Y-98080066D01*
X64480000Y-99369534D01*
X64473727Y-99373725D01*
X64267480Y-99579972D01*
X64216823Y-99579928D01*
X64062400Y-99643734D01*
X63944149Y-99761779D01*
X63880073Y-99916090D01*
X63879928Y-100083177D01*
X63943734Y-100237600D01*
X64061779Y-100355851D01*
X64216090Y-100419927D01*
X64383177Y-100420072D01*
X64537600Y-100356266D01*
X64655851Y-100238221D01*
X64700030Y-100131827D01*
X64743734Y-100237600D01*
X64780000Y-100273929D01*
X64780000Y-102767451D01*
X64267452Y-103280000D01*
X58700000Y-103280000D01*
X58577541Y-103304359D01*
X58473726Y-103373726D01*
X58454588Y-103392864D01*
X58423867Y-103380107D01*
X58177215Y-103379892D01*
X58094087Y-103414240D01*
X58025917Y-103249257D01*
X57851661Y-103074696D01*
X57623867Y-102980107D01*
X57377215Y-102979892D01*
X57149257Y-103074083D01*
X56974696Y-103248339D01*
X56880107Y-103476133D01*
X56879892Y-103722785D01*
X56974083Y-103950743D01*
X57103116Y-104080002D01*
X56977215Y-104079892D01*
X56749257Y-104174083D01*
X56574696Y-104348339D01*
X56480107Y-104576133D01*
X56480045Y-104646749D01*
X55920000Y-104086704D01*
X55920000Y-104074010D01*
X55955851Y-104038221D01*
X56019927Y-103883910D01*
X56020072Y-103716823D01*
X55956266Y-103562400D01*
X55838221Y-103444149D01*
X55683910Y-103380073D01*
X55516823Y-103379928D01*
X55362400Y-103443734D01*
X55244149Y-103561779D01*
X55180073Y-103716090D01*
X55179928Y-103883177D01*
X55243734Y-104037600D01*
X55280000Y-104073929D01*
X55280000Y-104219252D01*
X55304359Y-104341711D01*
X55356621Y-104419927D01*
X55373726Y-104445526D01*
X56979453Y-106051253D01*
X57083268Y-106120620D01*
X57205727Y-106144979D01*
X59115483Y-106144979D01*
X56330493Y-108929969D01*
X53155043Y-108929969D01*
X53032584Y-108954328D01*
X52930620Y-109022458D01*
X52928769Y-109023695D01*
X51523726Y-110428738D01*
X51455648Y-110530624D01*
X51333910Y-110480073D01*
X51166823Y-110479928D01*
X51012400Y-110543734D01*
X50975038Y-110581031D01*
X50938221Y-110544149D01*
X50783910Y-110480073D01*
X50616823Y-110479928D01*
X50462400Y-110543734D01*
X50450082Y-110556031D01*
X50438221Y-110544149D01*
X50283910Y-110480073D01*
X50116823Y-110479928D01*
X49962400Y-110543734D01*
X49844149Y-110661779D01*
X49780073Y-110816090D01*
X49779928Y-110983177D01*
X49843734Y-111137600D01*
X49952381Y-111246436D01*
X49973726Y-111278382D01*
X50175322Y-111479978D01*
X50077215Y-111479892D01*
X49849257Y-111574083D01*
X49674696Y-111748339D01*
X49580107Y-111976133D01*
X49579892Y-112222785D01*
X49580000Y-112223046D01*
X49580000Y-112322517D01*
X49534807Y-112390153D01*
X49526389Y-112432471D01*
X49438221Y-112344149D01*
X49283910Y-112280073D01*
X49116823Y-112279928D01*
X48962400Y-112343734D01*
X48844149Y-112461779D01*
X48780073Y-112616090D01*
X48779928Y-112783177D01*
X48519927Y-112783177D01*
X48520072Y-112616823D01*
X48456266Y-112462400D01*
X48338221Y-112344149D01*
X48183910Y-112280073D01*
X48016823Y-112279928D01*
X47862400Y-112343734D01*
X47744149Y-112461779D01*
X47680073Y-112616090D01*
X47679928Y-112783177D01*
X47370000Y-112783177D01*
X47370000Y-99712883D01*
X58579901Y-99712883D01*
X58666496Y-99922457D01*
X58826699Y-100082941D01*
X59036123Y-100169901D01*
X59262883Y-100170099D01*
X59472457Y-100083504D01*
X59632941Y-99923301D01*
X59678779Y-99812910D01*
X59816090Y-99869927D01*
X59983177Y-99870072D01*
X60137600Y-99806266D01*
X60255851Y-99688221D01*
X60319927Y-99533910D01*
X60320072Y-99366823D01*
X60256266Y-99212400D01*
X60138221Y-99094149D01*
X59983910Y-99030073D01*
X59816823Y-99029928D01*
X59662400Y-99093734D01*
X59556023Y-99199926D01*
X59473301Y-99117059D01*
X59263877Y-99030099D01*
X59037117Y-99029901D01*
X58827543Y-99116496D01*
X58667059Y-99276699D01*
X58580099Y-99486123D01*
X58579901Y-99712883D01*
X47370000Y-99712883D01*
X47370000Y-98183177D01*
X54479928Y-98183177D01*
X54543734Y-98337600D01*
X54606031Y-98400005D01*
X54544149Y-98461779D01*
X54480073Y-98616090D01*
X54479928Y-98783177D01*
X54543734Y-98937600D01*
X54661779Y-99055851D01*
X54816090Y-99119927D01*
X54983177Y-99120072D01*
X55137600Y-99056266D01*
X55255851Y-98938221D01*
X55319927Y-98783910D01*
X55320072Y-98616823D01*
X55256266Y-98462400D01*
X55193969Y-98399995D01*
X55255851Y-98338221D01*
X55319927Y-98183910D01*
X55319972Y-98132576D01*
X55326274Y-98126274D01*
X55395642Y-98022458D01*
X55420000Y-97900000D01*
X55420000Y-97096740D01*
X55548339Y-97225304D01*
X55776133Y-97319893D01*
X56022785Y-97320108D01*
X56250743Y-97225917D01*
X56425304Y-97051661D01*
X56425412Y-97051400D01*
X56556813Y-96920000D01*
X58261855Y-96920000D01*
X58499119Y-96872805D01*
X58632768Y-96783503D01*
X59230664Y-96783503D01*
X59332387Y-97029691D01*
X59520578Y-97218211D01*
X59766588Y-97320364D01*
X60032963Y-97320596D01*
X60279151Y-97218873D01*
X60467671Y-97030682D01*
X60569824Y-96784672D01*
X60569825Y-96783177D01*
X62579928Y-96783177D01*
X62643734Y-96937600D01*
X62656031Y-96949918D01*
X62644149Y-96961779D01*
X62580073Y-97116090D01*
X62579928Y-97283177D01*
X62643734Y-97437600D01*
X62656031Y-97449918D01*
X62644149Y-97461779D01*
X62580073Y-97616090D01*
X62579928Y-97783177D01*
X62643734Y-97937600D01*
X62761779Y-98055851D01*
X62916090Y-98119927D01*
X63083177Y-98120072D01*
X63237600Y-98056266D01*
X63355851Y-97938221D01*
X63419927Y-97783910D01*
X63420072Y-97616823D01*
X63356266Y-97462400D01*
X63343969Y-97450082D01*
X63355851Y-97438221D01*
X63419927Y-97283910D01*
X63420072Y-97116823D01*
X63356266Y-96962400D01*
X63343969Y-96950082D01*
X63355851Y-96938221D01*
X63419927Y-96783910D01*
X63420072Y-96616823D01*
X63356266Y-96462400D01*
X63238221Y-96344149D01*
X63083910Y-96280073D01*
X62916823Y-96279928D01*
X62762400Y-96343734D01*
X62644149Y-96461779D01*
X62580073Y-96616090D01*
X62579928Y-96783177D01*
X60569825Y-96783177D01*
X60570056Y-96518297D01*
X60468333Y-96272109D01*
X60280142Y-96083589D01*
X60034132Y-95981436D01*
X59767757Y-95981204D01*
X59521569Y-96082927D01*
X59333049Y-96271118D01*
X59230896Y-96517128D01*
X59230664Y-96783503D01*
X58632768Y-96783503D01*
X58700261Y-96738406D01*
X59518668Y-95920000D01*
X60799211Y-95920000D01*
X60780073Y-95966090D01*
X60779928Y-96133177D01*
X60843734Y-96287600D01*
X60961779Y-96405851D01*
X61116090Y-96469927D01*
X61283177Y-96470072D01*
X61437600Y-96406266D01*
X61555851Y-96288221D01*
X61619927Y-96133910D01*
X61620072Y-95966823D01*
X61600725Y-95920000D01*
X64643188Y-95920000D01*
X64661594Y-95938406D01*
X64862736Y-96072805D01*
X65100000Y-96120000D01*
X66698885Y-96120000D01*
X66822785Y-96120108D01*
X67050743Y-96025917D01*
X67225304Y-95851661D01*
X67319893Y-95623867D01*
X67320108Y-95377215D01*
X67225917Y-95149257D01*
X67051661Y-94974696D01*
X66823867Y-94880107D01*
X66577215Y-94879892D01*
X66576954Y-94880000D01*
X65356812Y-94880000D01*
X65338406Y-94861594D01*
X65314531Y-94845641D01*
X65137264Y-94727195D01*
X64900000Y-94680000D01*
X63980027Y-94680000D01*
X64019927Y-94583910D01*
X64020072Y-94416823D01*
X63956266Y-94262400D01*
X63838221Y-94144149D01*
X63683910Y-94080073D01*
X63516823Y-94079928D01*
X63362400Y-94143734D01*
X63244149Y-94261779D01*
X63180073Y-94416090D01*
X63179928Y-94583177D01*
X63219934Y-94680000D01*
X62122548Y-94680000D01*
X63719371Y-93083177D01*
X64679928Y-93083177D01*
X64743734Y-93237600D01*
X64861779Y-93355851D01*
X65016090Y-93419927D01*
X65183177Y-93420072D01*
X65337600Y-93356266D01*
X65455851Y-93238221D01*
X65519927Y-93083910D01*
X65520072Y-92916823D01*
X65456266Y-92762400D01*
X65377182Y-92683177D01*
X67579928Y-92683177D01*
X67643734Y-92837600D01*
X67761779Y-92955851D01*
X67916090Y-93019927D01*
X68083177Y-93020072D01*
X68237600Y-92956266D01*
X68249918Y-92943969D01*
X68261779Y-92955851D01*
X68416090Y-93019927D01*
X68583177Y-93020072D01*
X68737600Y-92956266D01*
X68855851Y-92838221D01*
X68919927Y-92683910D01*
X68920072Y-92516823D01*
X68856266Y-92362400D01*
X68738221Y-92244149D01*
X68583910Y-92180073D01*
X68416823Y-92179928D01*
X68262400Y-92243734D01*
X68250082Y-92256031D01*
X68238221Y-92244149D01*
X68083910Y-92180073D01*
X67916823Y-92179928D01*
X67762400Y-92243734D01*
X67644149Y-92361779D01*
X67580073Y-92516090D01*
X67579928Y-92683177D01*
X65377182Y-92683177D01*
X65338221Y-92644149D01*
X65183910Y-92580073D01*
X65016823Y-92579928D01*
X64862400Y-92643734D01*
X64744149Y-92761779D01*
X64680073Y-92916090D01*
X64679928Y-93083177D01*
X63719371Y-93083177D01*
X63782520Y-93020028D01*
X63833177Y-93020072D01*
X63987600Y-92956266D01*
X64105851Y-92838221D01*
X64169927Y-92683910D01*
X64170072Y-92516823D01*
X64106266Y-92362400D01*
X63988221Y-92244149D01*
X63833910Y-92180073D01*
X63666823Y-92179928D01*
X63512400Y-92243734D01*
X63394149Y-92361779D01*
X63330073Y-92516090D01*
X63330028Y-92567424D01*
X61667452Y-94230000D01*
X58899990Y-94230000D01*
X58777531Y-94254359D01*
X58673716Y-94323726D01*
X57767452Y-95229990D01*
X55950010Y-95229990D01*
X55827552Y-95254348D01*
X55723736Y-95323716D01*
X54873726Y-96173726D01*
X54804359Y-96277541D01*
X54780000Y-96400000D01*
X54780000Y-97695143D01*
X54662400Y-97743734D01*
X54544149Y-97861779D01*
X54480073Y-98016090D01*
X54479928Y-98183177D01*
X47370000Y-98183177D01*
X47370000Y-91683177D01*
X55779928Y-91683177D01*
X55843734Y-91837600D01*
X55895351Y-91889307D01*
X55904359Y-91934591D01*
X55918842Y-91956266D01*
X55973726Y-92038406D01*
X56161595Y-92226275D01*
X56265410Y-92295642D01*
X56387869Y-92320001D01*
X58399999Y-92320001D01*
X58522458Y-92295642D01*
X58626273Y-92226275D01*
X58832520Y-92020028D01*
X58883177Y-92020072D01*
X59037600Y-91956266D01*
X59155851Y-91838221D01*
X59219927Y-91683910D01*
X59220072Y-91516823D01*
X59156266Y-91362400D01*
X59038221Y-91244149D01*
X58883910Y-91180073D01*
X58716823Y-91179928D01*
X58562400Y-91243734D01*
X58444149Y-91361779D01*
X58380073Y-91516090D01*
X58380028Y-91567424D01*
X58267451Y-91680001D01*
X58119930Y-91680001D01*
X58120072Y-91516823D01*
X58056266Y-91362400D01*
X57938221Y-91244149D01*
X57783910Y-91180073D01*
X57616823Y-91179928D01*
X57462400Y-91243734D01*
X57450082Y-91256031D01*
X57438221Y-91244149D01*
X57283910Y-91180073D01*
X57116823Y-91179928D01*
X56962400Y-91243734D01*
X56950082Y-91256031D01*
X56938221Y-91244149D01*
X56783910Y-91180073D01*
X56616823Y-91179928D01*
X56462400Y-91243734D01*
X56450082Y-91256031D01*
X56438221Y-91244149D01*
X56283910Y-91180073D01*
X56116823Y-91179928D01*
X55962400Y-91243734D01*
X55844149Y-91361779D01*
X55780073Y-91516090D01*
X55779928Y-91683177D01*
X47370000Y-91683177D01*
X47370000Y-91170000D01*
X69659139Y-91170000D01*
X69649257Y-91174083D01*
G36*
X63682302Y-111867693D02*
X63682304Y-111867696D01*
X63764262Y-111922458D01*
X63851004Y-111980417D01*
X64050000Y-112020001D01*
X64050005Y-112020000D01*
X67184608Y-112020000D01*
X67657302Y-112492693D01*
X67657304Y-112492696D01*
X67826005Y-112605417D01*
X68025000Y-112645000D01*
X68055000Y-112645000D01*
X68055000Y-112775000D01*
X68094583Y-112973995D01*
X68207304Y-113142696D01*
X68376005Y-113255417D01*
X68394395Y-113259075D01*
X68440299Y-113304979D01*
X67385045Y-113304979D01*
X67262586Y-113329338D01*
X67186873Y-113379928D01*
X67158771Y-113398705D01*
X66952466Y-113605010D01*
X65038000Y-113605010D01*
X64915541Y-113629369D01*
X64864878Y-113663221D01*
X64811726Y-113698736D01*
X64098716Y-114411746D01*
X64029349Y-114515561D01*
X64004990Y-114638020D01*
X64004990Y-115402496D01*
X63052486Y-116355000D01*
X61699010Y-116355000D01*
X61693969Y-116349951D01*
X61780851Y-116263221D01*
X61844927Y-116108910D01*
X61845072Y-115941823D01*
X61781266Y-115787400D01*
X61693969Y-115699951D01*
X61780851Y-115613221D01*
X61844927Y-115458910D01*
X61845072Y-115291823D01*
X61781266Y-115137400D01*
X61663221Y-115019149D01*
X61508910Y-114955073D01*
X61341823Y-114954928D01*
X61187400Y-115018734D01*
X61099951Y-115106031D01*
X61043969Y-115049951D01*
X61130851Y-114963221D01*
X61194927Y-114808910D01*
X61195069Y-114644999D01*
X63125001Y-114644999D01*
X63247460Y-114620640D01*
X63351275Y-114551273D01*
X63407520Y-114495028D01*
X63458177Y-114495072D01*
X63612600Y-114431266D01*
X63730851Y-114313221D01*
X63794927Y-114158910D01*
X63795072Y-113991823D01*
X63731266Y-113837400D01*
X63613221Y-113719149D01*
X63458910Y-113655073D01*
X63291823Y-113654928D01*
X63137400Y-113718734D01*
X63019149Y-113836779D01*
X62955073Y-113991090D01*
X62955061Y-114004999D01*
X62597549Y-114004999D01*
X62757520Y-113845028D01*
X62808177Y-113845072D01*
X62962600Y-113781266D01*
X63080851Y-113663221D01*
X63144927Y-113508910D01*
X63145072Y-113341823D01*
X63081266Y-113187400D01*
X62963221Y-113069149D01*
X62808910Y-113005073D01*
X62641823Y-113004928D01*
X62487400Y-113068734D01*
X62399951Y-113156031D01*
X62313221Y-113069149D01*
X62158910Y-113005073D01*
X61991823Y-113004928D01*
X61837400Y-113068734D01*
X61749951Y-113156031D01*
X61693969Y-113099951D01*
X61780851Y-113013221D01*
X61844927Y-112858910D01*
X61845072Y-112691823D01*
X61781266Y-112537400D01*
X61693969Y-112449951D01*
X61780851Y-112363221D01*
X61823975Y-112259367D01*
X62057302Y-112492693D01*
X62057304Y-112492696D01*
X62210623Y-112595139D01*
X62226005Y-112605417D01*
X62425000Y-112645001D01*
X62425005Y-112645000D01*
X62725000Y-112645000D01*
X62923995Y-112605417D01*
X63092696Y-112492696D01*
X63205417Y-112323995D01*
X63245000Y-112125000D01*
X63205417Y-111926005D01*
X63092696Y-111757304D01*
X62923995Y-111644583D01*
X62725000Y-111605000D01*
X62640391Y-111605000D01*
X62595000Y-111559608D01*
X62595000Y-111345000D01*
X63159608Y-111345000D01*
X63682302Y-111867693D01*
X63682302Y-111867693D01*
G37*
X63682302Y-111867693D02*
X63682304Y-111867696D01*
X63764262Y-111922458D01*
X63851004Y-111980417D01*
X64050000Y-112020001D01*
X64050005Y-112020000D01*
X67184608Y-112020000D01*
X67657302Y-112492693D01*
X67657304Y-112492696D01*
X67826005Y-112605417D01*
X68025000Y-112645000D01*
X68055000Y-112645000D01*
X68055000Y-112775000D01*
X68094583Y-112973995D01*
X68207304Y-113142696D01*
X68376005Y-113255417D01*
X68394395Y-113259075D01*
X68440299Y-113304979D01*
X67385045Y-113304979D01*
X67262586Y-113329338D01*
X67186873Y-113379928D01*
X67158771Y-113398705D01*
X66952466Y-113605010D01*
X65038000Y-113605010D01*
X64915541Y-113629369D01*
X64864878Y-113663221D01*
X64811726Y-113698736D01*
X64098716Y-114411746D01*
X64029349Y-114515561D01*
X64004990Y-114638020D01*
X64004990Y-115402496D01*
X63052486Y-116355000D01*
X61699010Y-116355000D01*
X61693969Y-116349951D01*
X61780851Y-116263221D01*
X61844927Y-116108910D01*
X61845072Y-115941823D01*
X61781266Y-115787400D01*
X61693969Y-115699951D01*
X61780851Y-115613221D01*
X61844927Y-115458910D01*
X61845072Y-115291823D01*
X61781266Y-115137400D01*
X61663221Y-115019149D01*
X61508910Y-114955073D01*
X61341823Y-114954928D01*
X61187400Y-115018734D01*
X61099951Y-115106031D01*
X61043969Y-115049951D01*
X61130851Y-114963221D01*
X61194927Y-114808910D01*
X61195069Y-114644999D01*
X63125001Y-114644999D01*
X63247460Y-114620640D01*
X63351275Y-114551273D01*
X63407520Y-114495028D01*
X63458177Y-114495072D01*
X63612600Y-114431266D01*
X63730851Y-114313221D01*
X63794927Y-114158910D01*
X63795072Y-113991823D01*
X63731266Y-113837400D01*
X63613221Y-113719149D01*
X63458910Y-113655073D01*
X63291823Y-113654928D01*
X63137400Y-113718734D01*
X63019149Y-113836779D01*
X62955073Y-113991090D01*
X62955061Y-114004999D01*
X62597549Y-114004999D01*
X62757520Y-113845028D01*
X62808177Y-113845072D01*
X62962600Y-113781266D01*
X63080851Y-113663221D01*
X63144927Y-113508910D01*
X63145072Y-113341823D01*
X63081266Y-113187400D01*
X62963221Y-113069149D01*
X62808910Y-113005073D01*
X62641823Y-113004928D01*
X62487400Y-113068734D01*
X62399951Y-113156031D01*
X62313221Y-113069149D01*
X62158910Y-113005073D01*
X61991823Y-113004928D01*
X61837400Y-113068734D01*
X61749951Y-113156031D01*
X61693969Y-113099951D01*
X61780851Y-113013221D01*
X61844927Y-112858910D01*
X61845072Y-112691823D01*
X61781266Y-112537400D01*
X61693969Y-112449951D01*
X61780851Y-112363221D01*
X61823975Y-112259367D01*
X62057302Y-112492693D01*
X62057304Y-112492696D01*
X62210623Y-112595139D01*
X62226005Y-112605417D01*
X62425000Y-112645001D01*
X62425005Y-112645000D01*
X62725000Y-112645000D01*
X62923995Y-112605417D01*
X63092696Y-112492696D01*
X63205417Y-112323995D01*
X63245000Y-112125000D01*
X63205417Y-111926005D01*
X63092696Y-111757304D01*
X62923995Y-111644583D01*
X62725000Y-111605000D01*
X62640391Y-111605000D01*
X62595000Y-111559608D01*
X62595000Y-111345000D01*
X63159608Y-111345000D01*
X63682302Y-111867693D01*
G36*
X66855073Y-114641090D02*
X66854928Y-114808177D01*
X66874275Y-114855000D01*
X65325000Y-114855000D01*
X65126005Y-114894583D01*
X64995000Y-114982117D01*
X64995000Y-114915546D01*
X65288030Y-114622516D01*
X65297460Y-114620640D01*
X65335803Y-114595020D01*
X66874203Y-114595020D01*
X66855073Y-114641090D01*
X66855073Y-114641090D01*
G37*
X66855073Y-114641090D02*
X66854928Y-114808177D01*
X66874275Y-114855000D01*
X65325000Y-114855000D01*
X65126005Y-114894583D01*
X64995000Y-114982117D01*
X64995000Y-114915546D01*
X65288030Y-114622516D01*
X65297460Y-114620640D01*
X65335803Y-114595020D01*
X66874203Y-114595020D01*
X66855073Y-114641090D01*
G36*
X74180001Y-109720069D02*
X74180001Y-111180070D01*
X74016823Y-111179928D01*
X73862400Y-111243734D01*
X73815737Y-111290316D01*
X73745142Y-111304358D01*
X73641326Y-111373726D01*
X73441328Y-111573724D01*
X73441325Y-111573726D01*
X72928748Y-112086304D01*
X72741328Y-112273724D01*
X72741325Y-112273726D01*
X71410042Y-113605010D01*
X71284123Y-113605010D01*
X71284223Y-113604861D01*
X71320000Y-113425000D01*
X71284223Y-113245139D01*
X71182340Y-113092660D01*
X71029861Y-112990777D01*
X70850000Y-112955000D01*
X69419680Y-112955000D01*
X69095000Y-112630320D01*
X69095000Y-112125000D01*
X69055417Y-111926005D01*
X68984588Y-111820000D01*
X69117452Y-111820000D01*
X69454972Y-112157521D01*
X69454928Y-112208177D01*
X69518734Y-112362600D01*
X69636779Y-112480851D01*
X69791090Y-112544927D01*
X69958177Y-112545072D01*
X70112600Y-112481266D01*
X70230851Y-112363221D01*
X70264088Y-112283177D01*
X70679928Y-112283177D01*
X70743734Y-112437600D01*
X70861779Y-112555851D01*
X71016090Y-112619927D01*
X71183177Y-112620072D01*
X71337600Y-112556266D01*
X71455851Y-112438221D01*
X71519927Y-112283910D01*
X71520072Y-112116823D01*
X71456266Y-111962400D01*
X71338221Y-111844149D01*
X71183910Y-111780073D01*
X71016823Y-111779928D01*
X70862400Y-111843734D01*
X70744149Y-111961779D01*
X70680073Y-112116090D01*
X70679928Y-112283177D01*
X70264088Y-112283177D01*
X70294927Y-112208910D01*
X70295072Y-112041823D01*
X70231266Y-111887400D01*
X70143969Y-111799951D01*
X70230851Y-111713221D01*
X70294927Y-111558910D01*
X70295072Y-111391823D01*
X70231266Y-111237400D01*
X70143969Y-111149951D01*
X70148929Y-111145000D01*
X70679961Y-111145000D01*
X70679928Y-111183177D01*
X70743734Y-111337600D01*
X70861779Y-111455851D01*
X71016090Y-111519927D01*
X71183177Y-111520072D01*
X71337600Y-111456266D01*
X71455851Y-111338221D01*
X71519927Y-111183910D01*
X71520072Y-111016823D01*
X71480066Y-110920000D01*
X73500000Y-110920000D01*
X73622459Y-110895641D01*
X73726274Y-110826274D01*
X74026274Y-110526274D01*
X74040489Y-110505000D01*
X74095641Y-110422459D01*
X74120000Y-110300000D01*
X74120000Y-109732548D01*
X74132520Y-109720028D01*
X74180001Y-109720069D01*
X74180001Y-109720069D01*
G37*
X74180001Y-109720069D02*
X74180001Y-111180070D01*
X74016823Y-111179928D01*
X73862400Y-111243734D01*
X73815737Y-111290316D01*
X73745142Y-111304358D01*
X73641326Y-111373726D01*
X73441328Y-111573724D01*
X73441325Y-111573726D01*
X72928748Y-112086304D01*
X72741328Y-112273724D01*
X72741325Y-112273726D01*
X71410042Y-113605010D01*
X71284123Y-113605010D01*
X71284223Y-113604861D01*
X71320000Y-113425000D01*
X71284223Y-113245139D01*
X71182340Y-113092660D01*
X71029861Y-112990777D01*
X70850000Y-112955000D01*
X69419680Y-112955000D01*
X69095000Y-112630320D01*
X69095000Y-112125000D01*
X69055417Y-111926005D01*
X68984588Y-111820000D01*
X69117452Y-111820000D01*
X69454972Y-112157521D01*
X69454928Y-112208177D01*
X69518734Y-112362600D01*
X69636779Y-112480851D01*
X69791090Y-112544927D01*
X69958177Y-112545072D01*
X70112600Y-112481266D01*
X70230851Y-112363221D01*
X70264088Y-112283177D01*
X70679928Y-112283177D01*
X70743734Y-112437600D01*
X70861779Y-112555851D01*
X71016090Y-112619927D01*
X71183177Y-112620072D01*
X71337600Y-112556266D01*
X71455851Y-112438221D01*
X71519927Y-112283910D01*
X71520072Y-112116823D01*
X71456266Y-111962400D01*
X71338221Y-111844149D01*
X71183910Y-111780073D01*
X71016823Y-111779928D01*
X70862400Y-111843734D01*
X70744149Y-111961779D01*
X70680073Y-112116090D01*
X70679928Y-112283177D01*
X70264088Y-112283177D01*
X70294927Y-112208910D01*
X70295072Y-112041823D01*
X70231266Y-111887400D01*
X70143969Y-111799951D01*
X70230851Y-111713221D01*
X70294927Y-111558910D01*
X70295072Y-111391823D01*
X70231266Y-111237400D01*
X70143969Y-111149951D01*
X70148929Y-111145000D01*
X70679961Y-111145000D01*
X70679928Y-111183177D01*
X70743734Y-111337600D01*
X70861779Y-111455851D01*
X71016090Y-111519927D01*
X71183177Y-111520072D01*
X71337600Y-111456266D01*
X71455851Y-111338221D01*
X71519927Y-111183910D01*
X71520072Y-111016823D01*
X71480066Y-110920000D01*
X73500000Y-110920000D01*
X73622459Y-110895641D01*
X73726274Y-110826274D01*
X74026274Y-110526274D01*
X74040489Y-110505000D01*
X74095641Y-110422459D01*
X74120000Y-110300000D01*
X74120000Y-109732548D01*
X74132520Y-109720028D01*
X74180001Y-109720069D01*
G36*
X60418734Y-112362600D02*
X60536779Y-112480851D01*
X60691090Y-112544927D01*
X60858177Y-112545072D01*
X61012600Y-112481266D01*
X61100049Y-112393969D01*
X61156031Y-112450049D01*
X61069149Y-112536779D01*
X61005073Y-112691090D01*
X61004928Y-112858177D01*
X61068734Y-113012600D01*
X61156031Y-113100049D01*
X61069149Y-113186779D01*
X61005073Y-113341090D01*
X61004928Y-113508177D01*
X61034605Y-113580000D01*
X60474010Y-113580000D01*
X60438221Y-113544149D01*
X60283910Y-113480073D01*
X60116823Y-113479928D01*
X59962400Y-113543734D01*
X59920000Y-113586060D01*
X59920000Y-112698234D01*
X60371047Y-112247187D01*
X60418734Y-112362600D01*
X60418734Y-112362600D01*
G37*
X60418734Y-112362600D02*
X60536779Y-112480851D01*
X60691090Y-112544927D01*
X60858177Y-112545072D01*
X61012600Y-112481266D01*
X61100049Y-112393969D01*
X61156031Y-112450049D01*
X61069149Y-112536779D01*
X61005073Y-112691090D01*
X61004928Y-112858177D01*
X61068734Y-113012600D01*
X61156031Y-113100049D01*
X61069149Y-113186779D01*
X61005073Y-113341090D01*
X61004928Y-113508177D01*
X61034605Y-113580000D01*
X60474010Y-113580000D01*
X60438221Y-113544149D01*
X60283910Y-113480073D01*
X60116823Y-113479928D01*
X59962400Y-113543734D01*
X59920000Y-113586060D01*
X59920000Y-112698234D01*
X60371047Y-112247187D01*
X60418734Y-112362600D01*
G36*
X53967451Y-112180001D02*
X51780441Y-112180001D01*
X51570451Y-111970011D01*
X53586979Y-111970011D01*
X53587085Y-111969990D01*
X54177462Y-111969990D01*
X53967451Y-112180001D01*
X53967451Y-112180001D01*
G37*
X53967451Y-112180001D02*
X51780441Y-112180001D01*
X51570451Y-111970011D01*
X53586979Y-111970011D01*
X53587085Y-111969990D01*
X54177462Y-111969990D01*
X53967451Y-112180001D01*
G36*
X61655073Y-109441090D02*
X61654928Y-109608177D01*
X61718734Y-109762600D01*
X61836779Y-109880851D01*
X61991090Y-109944927D01*
X62051721Y-109944980D01*
X62127541Y-109995641D01*
X62250000Y-110020000D01*
X67367452Y-110020000D01*
X67580000Y-110232548D01*
X67580000Y-111000000D01*
X67583273Y-111016456D01*
X67400000Y-110979999D01*
X67399995Y-110980000D01*
X64265391Y-110980000D01*
X63742696Y-110457304D01*
X63573995Y-110344583D01*
X63375000Y-110304999D01*
X63374995Y-110305000D01*
X62567829Y-110305000D01*
X62350532Y-110159807D01*
X62075000Y-110105000D01*
X60789043Y-110105000D01*
X60805851Y-110088221D01*
X60869927Y-109933910D01*
X60869972Y-109882577D01*
X61432549Y-109320000D01*
X61705354Y-109320000D01*
X61655073Y-109441090D01*
X61655073Y-109441090D01*
G37*
X61655073Y-109441090D02*
X61654928Y-109608177D01*
X61718734Y-109762600D01*
X61836779Y-109880851D01*
X61991090Y-109944927D01*
X62051721Y-109944980D01*
X62127541Y-109995641D01*
X62250000Y-110020000D01*
X67367452Y-110020000D01*
X67580000Y-110232548D01*
X67580000Y-111000000D01*
X67583273Y-111016456D01*
X67400000Y-110979999D01*
X67399995Y-110980000D01*
X64265391Y-110980000D01*
X63742696Y-110457304D01*
X63573995Y-110344583D01*
X63375000Y-110304999D01*
X63374995Y-110305000D01*
X62567829Y-110305000D01*
X62350532Y-110159807D01*
X62075000Y-110105000D01*
X60789043Y-110105000D01*
X60805851Y-110088221D01*
X60869927Y-109933910D01*
X60869972Y-109882577D01*
X61432549Y-109320000D01*
X61705354Y-109320000D01*
X61655073Y-109441090D01*
G36*
X56270458Y-110979980D02*
X53669930Y-110979980D01*
X53669972Y-110932576D01*
X53982549Y-110619999D01*
X56630439Y-110619999D01*
X56270458Y-110979980D01*
X56270458Y-110979980D01*
G37*
X56270458Y-110979980D02*
X53669930Y-110979980D01*
X53669972Y-110932576D01*
X53982549Y-110619999D01*
X56630439Y-110619999D01*
X56270458Y-110979980D01*
G36*
X68219149Y-107986779D02*
X68155073Y-108141090D01*
X68154928Y-108308177D01*
X68218734Y-108462600D01*
X68306031Y-108550049D01*
X68219149Y-108636779D01*
X68155073Y-108791090D01*
X68154928Y-108958177D01*
X68218734Y-109112600D01*
X68336779Y-109230851D01*
X68491090Y-109294927D01*
X68658177Y-109295072D01*
X68812600Y-109231266D01*
X68930851Y-109113221D01*
X68994927Y-108958910D01*
X68995072Y-108791823D01*
X68931266Y-108637400D01*
X68843969Y-108549951D01*
X68930851Y-108463221D01*
X68939576Y-108442209D01*
X68971023Y-108463221D01*
X69019543Y-108495641D01*
X69142002Y-108520000D01*
X70267452Y-108520000D01*
X70679972Y-108932521D01*
X70679928Y-108983177D01*
X70743734Y-109137600D01*
X70861779Y-109255851D01*
X71016090Y-109319927D01*
X71183177Y-109320072D01*
X71280000Y-109280066D01*
X71280000Y-109480000D01*
X70700000Y-109480000D01*
X70501004Y-109519583D01*
X70462052Y-109545610D01*
X70332304Y-109632304D01*
X70332302Y-109632307D01*
X70309609Y-109655000D01*
X69550005Y-109655000D01*
X69550000Y-109654999D01*
X69351005Y-109694583D01*
X69182304Y-109807304D01*
X69182302Y-109807307D01*
X68684608Y-110305000D01*
X68575000Y-110305000D01*
X68376005Y-110344583D01*
X68220000Y-110448821D01*
X68220000Y-110100000D01*
X68195641Y-109977541D01*
X68126274Y-109873726D01*
X67726274Y-109473726D01*
X67622459Y-109404359D01*
X67500000Y-109380000D01*
X66572548Y-109380000D01*
X67957521Y-107995028D01*
X68008177Y-107995072D01*
X68162600Y-107931266D01*
X68198929Y-107895000D01*
X68311088Y-107895000D01*
X68219149Y-107986779D01*
X68219149Y-107986779D01*
G37*
X68219149Y-107986779D02*
X68155073Y-108141090D01*
X68154928Y-108308177D01*
X68218734Y-108462600D01*
X68306031Y-108550049D01*
X68219149Y-108636779D01*
X68155073Y-108791090D01*
X68154928Y-108958177D01*
X68218734Y-109112600D01*
X68336779Y-109230851D01*
X68491090Y-109294927D01*
X68658177Y-109295072D01*
X68812600Y-109231266D01*
X68930851Y-109113221D01*
X68994927Y-108958910D01*
X68995072Y-108791823D01*
X68931266Y-108637400D01*
X68843969Y-108549951D01*
X68930851Y-108463221D01*
X68939576Y-108442209D01*
X68971023Y-108463221D01*
X69019543Y-108495641D01*
X69142002Y-108520000D01*
X70267452Y-108520000D01*
X70679972Y-108932521D01*
X70679928Y-108983177D01*
X70743734Y-109137600D01*
X70861779Y-109255851D01*
X71016090Y-109319927D01*
X71183177Y-109320072D01*
X71280000Y-109280066D01*
X71280000Y-109480000D01*
X70700000Y-109480000D01*
X70501004Y-109519583D01*
X70462052Y-109545610D01*
X70332304Y-109632304D01*
X70332302Y-109632307D01*
X70309609Y-109655000D01*
X69550005Y-109655000D01*
X69550000Y-109654999D01*
X69351005Y-109694583D01*
X69182304Y-109807304D01*
X69182302Y-109807307D01*
X68684608Y-110305000D01*
X68575000Y-110305000D01*
X68376005Y-110344583D01*
X68220000Y-110448821D01*
X68220000Y-110100000D01*
X68195641Y-109977541D01*
X68126274Y-109873726D01*
X67726274Y-109473726D01*
X67622459Y-109404359D01*
X67500000Y-109380000D01*
X66572548Y-109380000D01*
X67957521Y-107995028D01*
X68008177Y-107995072D01*
X68162600Y-107931266D01*
X68198929Y-107895000D01*
X68311088Y-107895000D01*
X68219149Y-107986779D01*
G36*
X67006031Y-107250049D02*
X66919149Y-107336779D01*
X66855073Y-107491090D01*
X66854928Y-107658177D01*
X66918734Y-107812600D01*
X67036779Y-107930851D01*
X67093180Y-107954271D01*
X66092451Y-108955001D01*
X64444930Y-108955001D01*
X64445072Y-108791823D01*
X64381266Y-108637400D01*
X64263221Y-108519149D01*
X64108910Y-108455073D01*
X63941823Y-108454928D01*
X63787400Y-108518734D01*
X63669149Y-108636779D01*
X63605073Y-108791090D01*
X63604931Y-108955001D01*
X62707549Y-108955001D01*
X62526274Y-108773726D01*
X62445870Y-108720002D01*
X62422459Y-108704359D01*
X62300000Y-108680000D01*
X61300000Y-108680000D01*
X61177542Y-108704358D01*
X61162959Y-108714102D01*
X61131266Y-108637400D01*
X61043969Y-108549951D01*
X61100049Y-108493969D01*
X61186779Y-108580851D01*
X61341090Y-108644927D01*
X61508177Y-108645072D01*
X61662600Y-108581266D01*
X61750049Y-108493969D01*
X61836779Y-108580851D01*
X61991090Y-108644927D01*
X62158177Y-108645072D01*
X62312600Y-108581266D01*
X62400049Y-108493969D01*
X62486779Y-108580851D01*
X62641090Y-108644927D01*
X62808177Y-108645072D01*
X62962600Y-108581266D01*
X63080851Y-108463221D01*
X63144927Y-108308910D01*
X63145072Y-108141823D01*
X63081266Y-107987400D01*
X62963221Y-107869149D01*
X62808910Y-107805073D01*
X62795001Y-107805061D01*
X62795001Y-107382999D01*
X62787453Y-107345054D01*
X62808177Y-107345072D01*
X62962600Y-107281266D01*
X63050049Y-107193969D01*
X63106031Y-107250049D01*
X63019149Y-107336779D01*
X62955073Y-107491090D01*
X62954928Y-107658177D01*
X63018734Y-107812600D01*
X63136779Y-107930851D01*
X63291090Y-107994927D01*
X63458177Y-107995072D01*
X63612600Y-107931266D01*
X63730851Y-107813221D01*
X63794927Y-107658910D01*
X63794972Y-107607576D01*
X63975000Y-107427548D01*
X64348726Y-107801274D01*
X64444992Y-107865597D01*
X64437400Y-107868734D01*
X64319149Y-107986779D01*
X64255073Y-108141090D01*
X64254928Y-108308177D01*
X64318734Y-108462600D01*
X64436779Y-108580851D01*
X64591090Y-108644927D01*
X64758177Y-108645072D01*
X64912600Y-108581266D01*
X65000049Y-108493969D01*
X65086779Y-108580851D01*
X65241090Y-108644927D01*
X65408177Y-108645072D01*
X65562600Y-108581266D01*
X65650049Y-108493969D01*
X65736779Y-108580851D01*
X65891090Y-108644927D01*
X66058177Y-108645072D01*
X66212600Y-108581266D01*
X66330851Y-108463221D01*
X66394927Y-108308910D01*
X66395072Y-108141823D01*
X66331266Y-107987400D01*
X66213221Y-107869149D01*
X66058910Y-107805073D01*
X65891823Y-107804928D01*
X65737400Y-107868734D01*
X65649951Y-107956031D01*
X65593969Y-107899951D01*
X65680851Y-107813221D01*
X65744927Y-107658910D01*
X65745072Y-107491823D01*
X65681266Y-107337400D01*
X65593969Y-107249951D01*
X65650049Y-107193969D01*
X65736779Y-107280851D01*
X65891090Y-107344927D01*
X66058177Y-107345072D01*
X66212600Y-107281266D01*
X66300049Y-107193969D01*
X66386779Y-107280851D01*
X66541090Y-107344927D01*
X66708177Y-107345072D01*
X66862600Y-107281266D01*
X66950049Y-107193969D01*
X67006031Y-107250049D01*
X67006031Y-107250049D01*
G37*
X67006031Y-107250049D02*
X66919149Y-107336779D01*
X66855073Y-107491090D01*
X66854928Y-107658177D01*
X66918734Y-107812600D01*
X67036779Y-107930851D01*
X67093180Y-107954271D01*
X66092451Y-108955001D01*
X64444930Y-108955001D01*
X64445072Y-108791823D01*
X64381266Y-108637400D01*
X64263221Y-108519149D01*
X64108910Y-108455073D01*
X63941823Y-108454928D01*
X63787400Y-108518734D01*
X63669149Y-108636779D01*
X63605073Y-108791090D01*
X63604931Y-108955001D01*
X62707549Y-108955001D01*
X62526274Y-108773726D01*
X62445870Y-108720002D01*
X62422459Y-108704359D01*
X62300000Y-108680000D01*
X61300000Y-108680000D01*
X61177542Y-108704358D01*
X61162959Y-108714102D01*
X61131266Y-108637400D01*
X61043969Y-108549951D01*
X61100049Y-108493969D01*
X61186779Y-108580851D01*
X61341090Y-108644927D01*
X61508177Y-108645072D01*
X61662600Y-108581266D01*
X61750049Y-108493969D01*
X61836779Y-108580851D01*
X61991090Y-108644927D01*
X62158177Y-108645072D01*
X62312600Y-108581266D01*
X62400049Y-108493969D01*
X62486779Y-108580851D01*
X62641090Y-108644927D01*
X62808177Y-108645072D01*
X62962600Y-108581266D01*
X63080851Y-108463221D01*
X63144927Y-108308910D01*
X63145072Y-108141823D01*
X63081266Y-107987400D01*
X62963221Y-107869149D01*
X62808910Y-107805073D01*
X62795001Y-107805061D01*
X62795001Y-107382999D01*
X62787453Y-107345054D01*
X62808177Y-107345072D01*
X62962600Y-107281266D01*
X63050049Y-107193969D01*
X63106031Y-107250049D01*
X63019149Y-107336779D01*
X62955073Y-107491090D01*
X62954928Y-107658177D01*
X63018734Y-107812600D01*
X63136779Y-107930851D01*
X63291090Y-107994927D01*
X63458177Y-107995072D01*
X63612600Y-107931266D01*
X63730851Y-107813221D01*
X63794927Y-107658910D01*
X63794972Y-107607576D01*
X63975000Y-107427548D01*
X64348726Y-107801274D01*
X64444992Y-107865597D01*
X64437400Y-107868734D01*
X64319149Y-107986779D01*
X64255073Y-108141090D01*
X64254928Y-108308177D01*
X64318734Y-108462600D01*
X64436779Y-108580851D01*
X64591090Y-108644927D01*
X64758177Y-108645072D01*
X64912600Y-108581266D01*
X65000049Y-108493969D01*
X65086779Y-108580851D01*
X65241090Y-108644927D01*
X65408177Y-108645072D01*
X65562600Y-108581266D01*
X65650049Y-108493969D01*
X65736779Y-108580851D01*
X65891090Y-108644927D01*
X66058177Y-108645072D01*
X66212600Y-108581266D01*
X66330851Y-108463221D01*
X66394927Y-108308910D01*
X66395072Y-108141823D01*
X66331266Y-107987400D01*
X66213221Y-107869149D01*
X66058910Y-107805073D01*
X65891823Y-107804928D01*
X65737400Y-107868734D01*
X65649951Y-107956031D01*
X65593969Y-107899951D01*
X65680851Y-107813221D01*
X65744927Y-107658910D01*
X65745072Y-107491823D01*
X65681266Y-107337400D01*
X65593969Y-107249951D01*
X65650049Y-107193969D01*
X65736779Y-107280851D01*
X65891090Y-107344927D01*
X66058177Y-107345072D01*
X66212600Y-107281266D01*
X66300049Y-107193969D01*
X66386779Y-107280851D01*
X66541090Y-107344927D01*
X66708177Y-107345072D01*
X66862600Y-107281266D01*
X66950049Y-107193969D01*
X67006031Y-107250049D01*
G36*
X59835485Y-107129989D02*
X59530557Y-107129989D01*
X59815547Y-106844999D01*
X60120475Y-106844999D01*
X59835485Y-107129989D01*
X59835485Y-107129989D01*
G37*
X59835485Y-107129989D02*
X59530557Y-107129989D01*
X59815547Y-106844999D01*
X60120475Y-106844999D01*
X59835485Y-107129989D01*
G36*
X65965728Y-100726274D02*
X66069544Y-100795642D01*
X66192002Y-100820000D01*
X67625990Y-100820000D01*
X67661779Y-100855851D01*
X67816090Y-100919927D01*
X67983177Y-100920072D01*
X68137600Y-100856266D01*
X68173929Y-100820000D01*
X71895143Y-100820000D01*
X71943734Y-100937600D01*
X72061779Y-101055851D01*
X72216090Y-101119927D01*
X72220002Y-101119930D01*
X72180073Y-101216090D01*
X72179928Y-101383177D01*
X72243734Y-101537600D01*
X72280000Y-101573929D01*
X72280000Y-101659454D01*
X72062344Y-101877110D01*
X72056266Y-101862400D01*
X71938221Y-101744149D01*
X71783910Y-101680073D01*
X71616823Y-101679928D01*
X71462400Y-101743734D01*
X71344149Y-101861779D01*
X71280073Y-102016090D01*
X71279928Y-102183177D01*
X71343734Y-102337600D01*
X71461779Y-102455851D01*
X71477200Y-102462254D01*
X70409444Y-103530010D01*
X70263912Y-103530010D01*
X70355861Y-103438221D01*
X70419937Y-103283910D01*
X70420082Y-103116823D01*
X70356276Y-102962400D01*
X70238231Y-102844149D01*
X70083920Y-102780073D01*
X69916833Y-102779928D01*
X69786609Y-102833735D01*
X69738406Y-102761594D01*
X69537264Y-102627195D01*
X69300000Y-102580000D01*
X67300000Y-102580000D01*
X67062736Y-102627195D01*
X66923844Y-102720000D01*
X66861594Y-102761594D01*
X65143188Y-104480000D01*
X63180027Y-104480000D01*
X63219927Y-104383910D01*
X63220072Y-104216823D01*
X63156266Y-104062400D01*
X63038221Y-103944149D01*
X62980064Y-103920000D01*
X64400000Y-103920000D01*
X64485513Y-103902990D01*
X64480073Y-103916090D01*
X64479928Y-104083177D01*
X64543734Y-104237600D01*
X64661779Y-104355851D01*
X64816090Y-104419927D01*
X64983177Y-104420072D01*
X65137600Y-104356266D01*
X65255851Y-104238221D01*
X65319927Y-104083910D01*
X65320072Y-103916823D01*
X65256266Y-103762400D01*
X65138221Y-103644149D01*
X64983910Y-103580073D01*
X64872572Y-103579976D01*
X65326274Y-103126275D01*
X65395641Y-103022459D01*
X65403309Y-102983910D01*
X65420000Y-102900000D01*
X65420000Y-100274010D01*
X65455851Y-100238221D01*
X65462254Y-100222800D01*
X65965728Y-100726274D01*
X65965728Y-100726274D01*
G37*
X65965728Y-100726274D02*
X66069544Y-100795642D01*
X66192002Y-100820000D01*
X67625990Y-100820000D01*
X67661779Y-100855851D01*
X67816090Y-100919927D01*
X67983177Y-100920072D01*
X68137600Y-100856266D01*
X68173929Y-100820000D01*
X71895143Y-100820000D01*
X71943734Y-100937600D01*
X72061779Y-101055851D01*
X72216090Y-101119927D01*
X72220002Y-101119930D01*
X72180073Y-101216090D01*
X72179928Y-101383177D01*
X72243734Y-101537600D01*
X72280000Y-101573929D01*
X72280000Y-101659454D01*
X72062344Y-101877110D01*
X72056266Y-101862400D01*
X71938221Y-101744149D01*
X71783910Y-101680073D01*
X71616823Y-101679928D01*
X71462400Y-101743734D01*
X71344149Y-101861779D01*
X71280073Y-102016090D01*
X71279928Y-102183177D01*
X71343734Y-102337600D01*
X71461779Y-102455851D01*
X71477200Y-102462254D01*
X70409444Y-103530010D01*
X70263912Y-103530010D01*
X70355861Y-103438221D01*
X70419937Y-103283910D01*
X70420082Y-103116823D01*
X70356276Y-102962400D01*
X70238231Y-102844149D01*
X70083920Y-102780073D01*
X69916833Y-102779928D01*
X69786609Y-102833735D01*
X69738406Y-102761594D01*
X69537264Y-102627195D01*
X69300000Y-102580000D01*
X67300000Y-102580000D01*
X67062736Y-102627195D01*
X66923844Y-102720000D01*
X66861594Y-102761594D01*
X65143188Y-104480000D01*
X63180027Y-104480000D01*
X63219927Y-104383910D01*
X63220072Y-104216823D01*
X63156266Y-104062400D01*
X63038221Y-103944149D01*
X62980064Y-103920000D01*
X64400000Y-103920000D01*
X64485513Y-103902990D01*
X64480073Y-103916090D01*
X64479928Y-104083177D01*
X64543734Y-104237600D01*
X64661779Y-104355851D01*
X64816090Y-104419927D01*
X64983177Y-104420072D01*
X65137600Y-104356266D01*
X65255851Y-104238221D01*
X65319927Y-104083910D01*
X65320072Y-103916823D01*
X65256266Y-103762400D01*
X65138221Y-103644149D01*
X64983910Y-103580073D01*
X64872572Y-103579976D01*
X65326274Y-103126275D01*
X65395641Y-103022459D01*
X65403309Y-102983910D01*
X65420000Y-102900000D01*
X65420000Y-100274010D01*
X65455851Y-100238221D01*
X65462254Y-100222800D01*
X65965728Y-100726274D01*
M02*
