G04 #@! TF.FileFunction,Soldermask,Bot*
%FSLAX46Y46*%
G04 Gerber Fmt 4.6, Leading zero omitted, Abs format (unit mm)*
G04 Created by KiCad (PCBNEW 4.0.2+dfsg1-stable) date Mo 22 Aug 2016 02:39:07 CEST*
%MOMM*%
G01*
G04 APERTURE LIST*
%ADD10C,0.100000*%
%ADD11R,0.797560X0.797560*%
%ADD12R,6.000000X3.000000*%
%ADD13R,1.501140X2.700020*%
%ADD14R,0.800100X0.800100*%
%ADD15R,0.600000X0.400000*%
%ADD16R,0.500380X2.301240*%
%ADD17R,1.998980X2.499360*%
%ADD18C,0.899160*%
%ADD19R,0.400000X0.600000*%
%ADD20R,2.029460X1.140460*%
%ADD21R,1.270000X4.191000*%
%ADD22R,4.000000X4.000000*%
%ADD23R,6.000000X1.500000*%
%ADD24R,3.000000X3.000000*%
%ADD25R,2.032000X2.032000*%
%ADD26O,2.032000X2.032000*%
%ADD27R,0.500000X0.900000*%
%ADD28C,1.524000*%
G04 APERTURE END LIST*
D10*
D11*
X76049300Y-122350000D03*
X74550700Y-122350000D03*
D12*
X73600000Y-97100000D03*
D13*
X54400000Y-105200000D03*
X49599400Y-105200000D03*
D14*
X50999240Y-102450000D03*
X50999240Y-100550000D03*
X52998220Y-101500000D03*
D15*
X67300000Y-113200000D03*
X67300000Y-114100000D03*
D16*
X60499800Y-99249320D03*
X61299900Y-99249320D03*
X62100000Y-99249320D03*
X62900100Y-99249320D03*
X63700200Y-99249320D03*
D17*
X57649920Y-99150260D03*
X57649920Y-93651160D03*
X66550080Y-99150260D03*
X66550080Y-93651160D03*
D18*
X59900360Y-96650900D03*
X64299640Y-96650900D03*
D13*
X49599700Y-108900000D03*
X54400300Y-108900000D03*
D19*
X66200000Y-101400000D03*
X65300000Y-101400000D03*
D20*
X60700000Y-104903960D03*
X60700000Y-102496040D03*
D21*
X53846300Y-93204000D03*
X49553700Y-93204000D03*
D22*
X52900000Y-120800000D03*
D23*
X53900000Y-123550000D03*
D12*
X50400000Y-97100000D03*
D24*
X75100000Y-100500000D03*
D12*
X73600000Y-92700000D03*
X50400000Y-92700000D03*
D25*
X75100000Y-113060000D03*
D26*
X75100000Y-115600000D03*
D27*
X74550000Y-121100000D03*
X76050000Y-121100000D03*
D28*
X54200000Y-111800000D03*
X54200000Y-113600000D03*
X52400000Y-113700000D03*
X58800000Y-117400000D03*
X50600000Y-113700000D03*
X57000000Y-117400000D03*
X48800000Y-113700000D03*
X57400000Y-119600000D03*
X57400000Y-121400000D03*
X56000000Y-113600000D03*
X70900000Y-118500000D03*
X66900000Y-120800000D03*
X72300000Y-108900000D03*
X70800000Y-120900000D03*
X72600000Y-119700000D03*
D11*
X74551400Y-123550000D03*
X76050000Y-123550000D03*
D19*
X66200000Y-102500000D03*
X65300000Y-102500000D03*
D27*
X76100000Y-118700000D03*
X74600000Y-118700000D03*
M02*
