M48
;DRILL file {KiCad 4.0.2+dfsg1-stable} date Mo 22 Aug 2016 12:28:01 CEST
;FORMAT={-:-/ absolute / inch / decimal}
FMAT,2
INCH,TZ
T1C0.008
T2C0.016
%
G90
G05
M72
T1
X1.8819Y-4.6457
X1.8819Y-4.6988
X1.8819Y-4.8031
X1.8878Y-4.1024
X1.8878Y-4.1457
X1.8878Y-4.2795
X1.8937Y-4.437
X1.8957Y-3.6024
X1.8957Y-3.624
X1.8957Y-3.6457
X1.8957Y-3.6673
X1.8957Y-3.689
X1.8957Y-3.7106
X1.8957Y-3.7323
X1.9094Y-3.9016
X1.9094Y-3.9685
X1.937Y-4.437
X1.939Y-3.9016
X1.9685Y-3.9016
X1.9685Y-3.9331
X1.9764Y-4.3661
X1.9803Y-4.5197
X1.9961Y-3.9016
X1.9961Y-4.3661
X2.0138Y-4.6476
X2.0138Y-4.6988
X2.0177Y-4.3661
X2.0325Y-4.2333
X2.0325Y-4.2825
X2.0374Y-4.3661
X2.051Y-4.5164
X2.0571Y-4.3661
X2.065Y-4.6476
X2.065Y-4.6988
X2.0748Y-4.4134
X2.0768Y-4.3661
X2.0817Y-4.2333
X2.0817Y-4.2825
X2.0906Y-4.5157
X2.0906Y-4.7756
X2.0965Y-4.3661
X2.1417Y-4.5157
X2.1417Y-4.7756
X2.1535Y-4.3583
X2.1614Y-3.8622
X2.1614Y-3.8858
X2.1614Y-4.437
X2.1732Y-3.6102
X2.1732Y-3.6496
X2.1732Y-3.689
X2.1732Y-3.7283
X2.1811Y-3.9685
X2.1811Y-4.0079
X2.189Y-4.0866
X2.1969Y-4.5709
X2.1969Y-4.6102
X2.1969Y-4.6299
X2.1969Y-4.6772
X2.1969Y-4.6969
X2.2008Y-4.811
X2.2126Y-3.6063
X2.2276Y-3.6816
X2.2276Y-3.7121
X2.2323Y-3.6063
X2.2441Y-4.6654
X2.248Y-4.5236
X2.252Y-3.6063
X2.2618Y-3.9685
X2.2618Y-4.0079
X2.2677Y-4.5236
X2.2677Y-4.6654
X2.2717Y-3.6063
X2.2764Y-3.6816
X2.2764Y-3.7121
X2.2989Y-4.5279
X2.315Y-3.6063
X2.3189Y-4.7244
X2.3307Y-4.5295
X2.3346Y-4.1063
X2.3465Y-4.2598
X2.3543Y-4.2126
X2.3583Y-3.9154
X2.3701Y-4.4843
X2.3746Y-4.4258
X2.3799Y-4.3248
X2.3898Y-3.7815
X2.3927Y-4.2096
X2.3927Y-4.2608
X2.3927Y-4.2864
X2.3927Y-4.3632
X2.3927Y-4.4144
X2.3927Y-4.5167
X2.3927Y-4.5423
X2.3937Y-3.6772
X2.3976Y-4.6299
X2.3976Y-4.6811
X2.3976Y-4.7008
X2.4094Y-3.7815
X2.4173Y-4.6142
X2.4183Y-4.2096
X2.4183Y-4.2352
X2.4183Y-4.2608
X2.4183Y-4.4144
X2.4183Y-4.44
X2.4183Y-4.4656
X2.4183Y-4.5423
X2.4183Y-4.5679
X2.4183Y-4.5935
X2.4291Y-3.7815
X2.437Y-4.7756
X2.4439Y-4.2352
X2.4439Y-4.2608
X2.4439Y-4.312
X2.4439Y-4.3632
X2.4439Y-4.3888
X2.4439Y-4.4656
X2.4488Y-3.7815
X2.4567Y-4.7756
X2.4695Y-4.2096
X2.4695Y-4.2608
X2.4695Y-4.3376
X2.4695Y-4.3632
X2.4695Y-4.3888
X2.4695Y-4.4144
X2.4695Y-4.4656
X2.4724Y-4.0118
X2.4724Y-4.1063
X2.4724Y-4.7126
X2.4764Y-4.7756
X2.48Y-3.6454
X2.4803Y-3.8071
X2.4803Y-3.8268
X2.4803Y-3.8465
X2.4882Y-4.8504
X2.4951Y-4.2096
X2.4951Y-4.2352
X2.4951Y-4.4144
X2.4951Y-4.44
X2.4951Y-4.4911
X2.4961Y-4.7756
X2.5039Y-3.7205
X2.5039Y-4.0118
X2.5098Y-3.6457
X2.5118Y-4.1929
X2.5157Y-4.7756
X2.5207Y-4.2864
X2.5207Y-4.4144
X2.5207Y-4.44
X2.5207Y-4.4656
X2.5315Y-3.8465
X2.5315Y-3.937
X2.5315Y-4.1929
X2.5354Y-4.7756
X2.5463Y-4.2096
X2.5463Y-4.2608
X2.5463Y-4.3376
X2.5463Y-4.3632
X2.5463Y-4.4144
X2.5463Y-4.44
X2.5463Y-4.4656
X2.5463Y-4.5679
X2.5472Y-4.6831
X2.5512Y-3.8425
X2.5551Y-4.0945
X2.5551Y-4.7756
X2.563Y-3.6614
X2.563Y-3.6811
X2.563Y-3.7008
X2.563Y-3.7205
X2.563Y-3.937
X2.5719Y-4.2096
X2.5719Y-4.2352
X2.5719Y-4.2608
X2.5719Y-4.2864
X2.5719Y-4.3376
X2.5719Y-4.3632
X2.5719Y-4.4144
X2.5719Y-4.44
X2.5719Y-4.4656
X2.5719Y-4.5167
X2.5719Y-4.5423
X2.5748Y-4.0945
X2.5748Y-4.7756
X2.5945Y-4.7756
X2.5974Y-4.2096
X2.5974Y-4.2608
X2.5974Y-4.2864
X2.5974Y-4.3376
X2.5974Y-4.3632
X2.5974Y-4.4144
X2.5974Y-4.44
X2.5974Y-4.4656
X2.5974Y-4.5167
X2.5974Y-4.5423
X2.5974Y-4.6191
X2.623Y-4.2096
X2.623Y-4.3376
X2.623Y-4.3632
X2.623Y-4.4144
X2.623Y-4.44
X2.623Y-4.4656
X2.623Y-4.5167
X2.623Y-4.5423
X2.623Y-4.5679
X2.6339Y-4.7126
X2.6417Y-4.6831
X2.6486Y-4.2096
X2.6486Y-4.2352
X2.6486Y-4.3376
X2.6486Y-4.3632
X2.6486Y-4.5167
X2.6486Y-4.5423
X2.6486Y-4.5679
X2.6486Y-4.6191
X2.6575Y-4.1378
X2.6575Y-4.1614
X2.6693Y-3.8622
X2.6732Y-3.9567
X2.6732Y-4.7126
X2.6732Y-4.7756
X2.6742Y-4.2352
X2.6742Y-4.5167
X2.6742Y-4.5423
X2.6742Y-4.5679
X2.6742Y-4.5935
X2.6772Y-3.6457
X2.6791Y-3.8898
X2.6811Y-4.0217
X2.6811Y-4.8504
X2.689Y-3.8701
X2.6929Y-4.7126
X2.6969Y-3.6457
X2.6969Y-3.9055
X2.6998Y-4.2608
X2.6998Y-4.2864
X2.6998Y-4.3376
X2.6998Y-4.3632
X2.6998Y-4.4144
X2.6998Y-4.44
X2.7008Y-3.8031
X2.7008Y-3.8228
X2.7008Y-3.8425
X2.7008Y-3.8858
X2.7126Y-4.7795
X2.7244Y-4.685
X2.7254Y-4.2096
X2.7254Y-4.4144
X2.7254Y-4.4656
X2.7254Y-4.5423
X2.7254Y-4.5679
X2.7283Y-4.063
X2.7313Y-3.7254
X2.7323Y-3.6457
X2.7421Y-3.939
X2.7421Y-3.9744
X2.751Y-4.2096
X2.751Y-4.2864
X2.751Y-4.312
X2.751Y-4.3632
X2.751Y-4.3888
X2.751Y-4.4144
X2.751Y-4.44
X2.752Y-4.7126
X2.7559Y-4.063
X2.7598Y-3.8622
X2.7638Y-3.7087
X2.7717Y-4.7126
X2.7766Y-4.5423
X2.7766Y-4.5679
X2.7766Y-4.5935
X2.7776Y-3.939
X2.7776Y-3.9744
X2.7894Y-4.4656
X2.7913Y-4.6102
X2.7913Y-4.7126
X2.7992Y-4.2441
X2.7992Y-4.2874
X2.7992Y-4.374
X2.7992Y-4.4173
X2.811Y-3.7244
X2.811Y-4.7126
X2.8189Y-4.8504
X2.8228Y-4.0197
X2.8307Y-4.7756
X2.8465Y-3.9646
X2.8583Y-3.9882
X2.8661Y-4.0886
X2.878Y-3.9882
X2.8858Y-4.3307
X2.8898Y-4.5945
X2.8937Y-4.0315
X2.8937Y-4.0512
X2.8957Y-4.2047
X2.8957Y-4.2441
X2.8957Y-4.374
X2.8957Y-4.4606
X2.8957Y-4.4803
X2.8957Y-4.5394
X2.9094Y-4.5984
X2.9154Y-4.5079
X2.9173Y-4.3031
X2.9173Y-4.3937
X2.9213Y-4.1969
X2.9961Y-4.7283
T2
X1.9764Y-4.4134
X2.2008Y-3.8071
X2.248Y-4.122
X2.2598Y-4.4252
X2.2638Y-4.0787
X2.2953Y-4.0945
X2.3287Y-3.9213
X2.626Y-3.7598
X2.7559Y-3.6102
X2.7953Y-3.6102
X2.9567Y-4.7126
T0
M30
