G04 #@! TF.FileFunction,Copper,L2,Inr,Signal*
%FSLAX46Y46*%
G04 Gerber Fmt 4.6, Leading zero omitted, Abs format (unit mm)*
G04 Created by KiCad (PCBNEW 4.0.2+dfsg1-stable) date Mo 22 Aug 2016 02:39:07 CEST*
%MOMM*%
G01*
G04 APERTURE LIST*
%ADD10C,0.100000*%
%ADD11C,0.300000*%
%ADD12C,0.600000*%
%ADD13C,0.200000*%
%ADD14C,1.000000*%
%ADD15C,0.600000*%
%ADD16C,0.800000*%
%ADD17C,0.500000*%
%ADD18C,0.140000*%
G04 APERTURE END LIST*
D10*
D11*
X65100000Y-100000000D03*
D12*
X75100000Y-119700000D03*
X58300000Y-104000000D03*
D11*
X63375000Y-110825000D03*
D12*
X57400000Y-112400000D03*
D11*
X73300000Y-110000000D03*
X60775000Y-110825000D03*
X68575000Y-112775000D03*
X66625000Y-115375000D03*
X59200000Y-115050000D03*
D12*
X50100000Y-112100000D03*
D11*
X53100000Y-114700000D03*
X54900000Y-112700000D03*
X68575000Y-112125000D03*
D12*
X57500000Y-103600000D03*
D11*
X68575000Y-110825000D03*
X62075000Y-110825000D03*
X62725000Y-110825000D03*
X62075000Y-111475000D03*
X71100000Y-107800000D03*
X70850000Y-113425000D03*
X65975000Y-106925000D03*
X62725000Y-112125000D03*
X70525000Y-115375000D03*
X65975000Y-108225000D03*
X65325000Y-108225000D03*
X64675000Y-108225000D03*
X69225000Y-113425000D03*
X65975000Y-117325000D03*
X65325000Y-115375000D03*
X65975000Y-115375000D03*
X67275000Y-115375000D03*
X67925000Y-115375000D03*
X60315692Y-112415692D03*
X62725000Y-110175000D03*
X62075000Y-112775000D03*
X65400000Y-104000000D03*
X71600000Y-123200000D03*
X68100000Y-123200000D03*
X63200000Y-123200000D03*
X55900000Y-122200000D03*
X47800000Y-119350000D03*
X47800000Y-122000000D03*
X62200000Y-96050000D03*
X76100000Y-120100000D03*
X55400000Y-101800000D03*
X57450000Y-101800000D03*
X71400000Y-94600000D03*
X48150000Y-92050000D03*
X48150000Y-91500000D03*
X48150000Y-94800000D03*
X48150000Y-94250000D03*
X48150000Y-92600000D03*
X48150000Y-93150000D03*
X48150000Y-93700000D03*
X69400000Y-92600000D03*
X62992150Y-92592150D03*
X50600000Y-99600000D03*
X50700000Y-99000000D03*
X50000000Y-99900000D03*
X50000000Y-99000000D03*
X48500000Y-99000000D03*
X49250000Y-99000000D03*
X68300000Y-98300000D03*
X68049997Y-98700000D03*
X67800000Y-98100000D03*
X65100000Y-93500000D03*
X65100000Y-94000000D03*
X65100000Y-94500000D03*
X61700000Y-96050000D03*
X74050000Y-114500000D03*
X73550000Y-111100000D03*
X54400000Y-121300000D03*
X53100000Y-121300000D03*
X67275000Y-110175000D03*
X66625000Y-110175000D03*
X65975000Y-110175000D03*
X65325000Y-110175000D03*
X64675000Y-110175000D03*
X64675000Y-110825000D03*
X65325000Y-110825000D03*
X65975000Y-110825000D03*
X66625000Y-110825000D03*
X67275000Y-110825000D03*
X62725000Y-111475000D03*
X63375000Y-112125000D03*
X63375000Y-112775000D03*
X64025000Y-112125000D03*
X64675000Y-112125000D03*
X64675000Y-112775000D03*
X64025000Y-112775000D03*
X64025000Y-113425000D03*
X64675000Y-113425000D03*
X65325000Y-112775000D03*
X66625000Y-112775000D03*
X65975000Y-112775000D03*
X65975000Y-113425000D03*
X66625000Y-113425000D03*
X69225000Y-112125000D03*
X69875000Y-112775000D03*
X68575000Y-110175000D03*
X69875000Y-109525000D03*
X69875000Y-108875000D03*
X66625000Y-112125000D03*
X65975000Y-112125000D03*
X65325000Y-108875000D03*
X65975000Y-108875000D03*
X67925000Y-114725000D03*
X66625000Y-114725000D03*
X65975000Y-114725000D03*
X65325000Y-114725000D03*
X65325000Y-112125000D03*
X65325000Y-113425000D03*
X65400000Y-121300000D03*
X71900000Y-121300000D03*
X68900000Y-121400000D03*
X55200000Y-91700000D03*
X55200000Y-94700000D03*
X55200000Y-93700000D03*
X55200000Y-92700000D03*
X70200000Y-94200000D03*
X69400000Y-94600000D03*
X60800000Y-93400000D03*
X60700000Y-96050000D03*
X56580000Y-94287500D03*
X56580000Y-93512500D03*
X57820000Y-93512500D03*
X57820000Y-94287500D03*
X73400000Y-116700000D03*
X70900000Y-117100000D03*
X73550000Y-114300000D03*
X73550000Y-107800000D03*
X59800000Y-107000000D03*
X54700000Y-110700000D03*
X52700000Y-112100000D03*
X58392150Y-115007850D03*
X55400000Y-100800000D03*
X57450000Y-100800000D03*
X57600000Y-114900000D03*
X57100000Y-114900000D03*
X55800000Y-116100000D03*
X51150000Y-118050000D03*
X52450000Y-118050000D03*
X52450000Y-119350000D03*
X51150000Y-119350000D03*
X69650000Y-100050000D03*
X70550000Y-100050000D03*
X70550000Y-100950000D03*
X69650000Y-100950000D03*
X62800000Y-101900000D03*
X63600000Y-101900000D03*
X52875000Y-107525000D03*
X51625000Y-107525000D03*
X51625000Y-108775000D03*
X52875000Y-108775000D03*
X72800000Y-103850000D03*
X68100000Y-102150000D03*
X73550000Y-106800000D03*
X73550000Y-113300000D03*
X73550000Y-115300000D03*
X64700000Y-118950000D03*
X67100000Y-118950000D03*
X58900000Y-120000000D03*
X47950000Y-108700000D03*
X47950000Y-105300000D03*
X47950000Y-104200000D03*
X48500000Y-100800000D03*
X67925000Y-107575000D03*
X60450000Y-109850000D03*
X71100000Y-108900000D03*
D12*
X67000000Y-95400000D03*
X66200000Y-95400000D03*
D11*
X68600000Y-96600000D03*
X68600000Y-97100000D03*
X68600000Y-97600000D03*
D12*
X55900000Y-96700000D03*
D11*
X58800000Y-91600000D03*
X56200000Y-91600000D03*
X68000000Y-92600000D03*
X64800000Y-97600000D03*
X72300000Y-100700000D03*
X64300000Y-100000000D03*
X67900000Y-100500000D03*
X52094836Y-114717214D03*
X69300000Y-103200000D03*
X54400000Y-114700000D03*
D12*
X57100000Y-104800000D03*
D11*
X70000000Y-103200000D03*
X70900000Y-119700000D03*
X67900000Y-121300000D03*
X67900000Y-119700000D03*
X71700000Y-102100000D03*
X59600000Y-108200000D03*
X62075000Y-109525000D03*
X69875000Y-112125000D03*
X55600000Y-103800000D03*
X62075000Y-108225000D03*
X50200000Y-110900000D03*
X60775000Y-108875000D03*
X50700000Y-110900000D03*
X60775000Y-108225000D03*
X51250000Y-110900000D03*
X61425000Y-108225000D03*
X51750000Y-110900000D03*
X62075000Y-107575000D03*
X52250000Y-110900000D03*
X61425000Y-106925000D03*
X52750000Y-110900000D03*
X60775000Y-106925000D03*
X53250000Y-110900000D03*
X61425000Y-107575000D03*
X57200000Y-91600000D03*
X71400000Y-119700000D03*
X48100000Y-112700000D03*
X67925000Y-116025000D03*
X57600000Y-118500000D03*
X63900000Y-121300000D03*
X70525000Y-116025000D03*
X66900000Y-119700000D03*
X69225000Y-116025000D03*
X65900000Y-121300000D03*
X69225000Y-115375000D03*
X74100000Y-109300000D03*
X69875000Y-110825000D03*
X70200000Y-98300000D03*
X69875000Y-106925000D03*
X67275000Y-107575000D03*
X64300000Y-97700000D03*
X64400000Y-121300000D03*
X68575000Y-108225000D03*
X63375000Y-114075000D03*
X55800000Y-117100000D03*
X60900000Y-117600000D03*
X55800000Y-117600000D03*
X68400000Y-119700000D03*
X68575000Y-108875000D03*
X73500000Y-102900000D03*
X67500000Y-105700000D03*
X72600000Y-101300000D03*
X62725000Y-106925000D03*
X73100000Y-101300000D03*
X63375000Y-106925000D03*
X63375000Y-107575000D03*
X63800000Y-106600000D03*
X67275000Y-106925000D03*
X73500000Y-102400000D03*
X67500000Y-105100000D03*
X65325000Y-107575000D03*
X64300000Y-106600000D03*
X56700000Y-91600000D03*
X49200000Y-112700000D03*
X70400000Y-119700000D03*
X67925000Y-116675000D03*
X57000000Y-118500000D03*
X74200000Y-106600000D03*
X64675000Y-116025000D03*
X73900000Y-116800000D03*
X61400000Y-117200000D03*
X74100000Y-111600000D03*
X61425000Y-116675000D03*
X62800010Y-119699990D03*
X61425000Y-113425000D03*
X62400000Y-121299990D03*
X61425000Y-112775000D03*
X60775000Y-112125000D03*
X63400000Y-121300000D03*
X61425000Y-112125000D03*
X61900000Y-121299990D03*
X62900000Y-121299990D03*
X62075000Y-113425000D03*
X64900000Y-121300000D03*
X66625000Y-116025000D03*
X69200011Y-119000000D03*
X67275000Y-117325000D03*
X67275000Y-116025000D03*
X54900000Y-98700000D03*
D12*
X70200000Y-91700000D03*
X71000000Y-91700000D03*
X59150000Y-99600000D03*
D11*
X62725000Y-108225000D03*
X62800000Y-104300000D03*
X59300000Y-104300000D03*
X57700000Y-91600000D03*
X60900000Y-119400000D03*
X47800000Y-118000000D03*
X50300000Y-114800000D03*
X69900000Y-119700000D03*
X70525000Y-116675000D03*
X71100000Y-111100000D03*
X68600000Y-98700000D03*
X60200000Y-113900000D03*
X62725000Y-113425000D03*
X64025000Y-108875000D03*
X64675000Y-106925000D03*
X55800000Y-119300000D03*
X61425000Y-116025000D03*
X60900000Y-118900000D03*
X55800000Y-118800000D03*
X63000000Y-96700000D03*
X61425000Y-115375000D03*
X63000000Y-97200000D03*
X60775000Y-115375000D03*
X65325000Y-106925000D03*
X54900000Y-98100000D03*
X63750000Y-92600000D03*
X59900000Y-99450000D03*
X63600000Y-94500000D03*
X65100000Y-93000000D03*
X61200000Y-96050000D03*
X63000000Y-97700000D03*
X60775000Y-114725000D03*
X68500000Y-92600000D03*
X69225000Y-106925000D03*
X69875000Y-111475000D03*
X71100000Y-112200000D03*
X68500000Y-99200000D03*
X73550000Y-113800000D03*
X67275000Y-114725000D03*
X66625000Y-106925000D03*
X64900000Y-104000000D03*
D13*
X64400000Y-103600000D02*
X58700000Y-103600000D01*
X58700000Y-103600000D02*
X58300000Y-104000000D01*
X65100000Y-102900000D02*
X65100000Y-100000000D01*
X65100000Y-102900000D02*
X64400000Y-103600000D01*
D14*
X59200000Y-114300000D02*
X59200000Y-113300000D01*
X59200000Y-113300000D02*
X59200000Y-112400000D01*
X58300000Y-113300000D02*
X59200000Y-113300000D01*
X59200000Y-112400000D02*
X60775000Y-110825000D01*
D15*
X70525000Y-110175000D02*
X70700000Y-110000000D01*
X70700000Y-110000000D02*
X71800000Y-110000000D01*
X69550000Y-110175000D02*
X70525000Y-110175000D01*
X68575000Y-110825000D02*
X68900000Y-110825000D01*
X68900000Y-110825000D02*
X69550000Y-110175000D01*
D13*
X71800000Y-110000000D02*
X73300000Y-110000000D01*
D15*
X71800000Y-108500000D02*
X71800000Y-110000000D01*
D14*
X73500000Y-118100000D02*
X75100000Y-119700000D01*
D15*
X63375000Y-110825000D02*
X62725000Y-110825000D01*
X67400000Y-111500000D02*
X64050000Y-111500000D01*
X64050000Y-111500000D02*
X63375000Y-110825000D01*
D16*
X71159000Y-115375000D02*
X72084000Y-116300000D01*
D14*
X72084000Y-116300000D02*
X72084000Y-116684000D01*
X72084000Y-116684000D02*
X73500000Y-118100000D01*
D15*
X70525000Y-115375000D02*
X71159000Y-115375000D01*
X62075000Y-111775000D02*
X62075000Y-111475000D01*
X62075000Y-111475000D02*
X62075000Y-110825000D01*
X62425000Y-112125000D02*
X62075000Y-111775000D01*
X62425000Y-112125000D02*
X62725000Y-112125000D01*
D14*
X54900000Y-113300000D02*
X53100000Y-113300000D01*
X54900000Y-113300000D02*
X57300000Y-113300000D01*
X57300000Y-113300000D02*
X58300000Y-113300000D01*
D16*
X57400000Y-112400000D02*
X57400000Y-113200000D01*
D13*
X57400000Y-113200000D02*
X57300000Y-113300000D01*
D15*
X71800000Y-108500000D02*
X71500001Y-108200001D01*
X71500001Y-108200001D02*
X71100000Y-107800000D01*
X68025000Y-112125000D02*
X67400000Y-111500000D01*
X68249989Y-112125000D02*
X68025000Y-112125000D01*
D13*
X59200000Y-114200000D02*
X59200000Y-114300000D01*
D14*
X59200000Y-114300000D02*
X59200000Y-115050000D01*
X62075000Y-110825000D02*
X60775000Y-110825000D01*
D15*
X62725000Y-110825000D02*
X62075000Y-110825000D01*
D14*
X51900000Y-113300000D02*
X51300000Y-113300000D01*
X51300000Y-113300000D02*
X50800000Y-112800000D01*
D17*
X68575000Y-112775000D02*
X69225000Y-113425000D01*
D15*
X68575000Y-112125000D02*
X68575000Y-112775000D01*
D14*
X50800000Y-112800000D02*
X50100000Y-112100000D01*
X53100000Y-113300000D02*
X51900000Y-113300000D01*
D13*
X53100000Y-114700000D02*
X53100000Y-113300000D01*
D16*
X54900000Y-112700000D02*
X54900000Y-113300000D01*
D13*
X54900000Y-113200000D02*
X54900000Y-112700000D01*
D15*
X68249989Y-112125000D02*
X68575000Y-112125000D01*
X65975000Y-115375000D02*
X65325000Y-115375000D01*
X66625000Y-115375000D02*
X65975000Y-115375000D01*
X67275000Y-115375000D02*
X66625000Y-115375000D01*
X67925000Y-115375000D02*
X67275000Y-115375000D01*
D17*
X70850000Y-113425000D02*
X69225000Y-113425000D01*
D13*
X60450000Y-109850000D02*
X61300000Y-109000000D01*
X61300000Y-109000000D02*
X62300000Y-109000000D01*
X62300000Y-109000000D02*
X62575001Y-109275001D01*
X62575001Y-109275001D02*
X66224999Y-109275001D01*
X66224999Y-109275001D02*
X67925000Y-107575000D01*
X71100000Y-108900000D02*
X70400000Y-108200000D01*
X70400000Y-108200000D02*
X69142002Y-108200000D01*
X69142002Y-108200000D02*
X68517002Y-107575000D01*
X68517002Y-107575000D02*
X68137132Y-107575000D01*
X68137132Y-107575000D02*
X67925000Y-107575000D01*
X71100000Y-108857998D02*
X71100000Y-108900000D01*
D16*
X67000000Y-95400000D02*
X66200000Y-95400000D01*
X66200000Y-95400000D02*
X65775736Y-95400000D01*
X65775736Y-95400000D02*
X65000000Y-95400000D01*
X58261855Y-96300000D02*
X56300000Y-96300000D01*
X56300000Y-96300000D02*
X55900000Y-96700000D01*
X64900000Y-95300000D02*
X65000000Y-95400000D01*
X63700000Y-95300000D02*
X63275736Y-95300000D01*
X63275736Y-95300000D02*
X60185679Y-95300000D01*
X64900000Y-95300000D02*
X63700000Y-95300000D01*
X58261855Y-96300000D02*
X59261855Y-95300000D01*
X59261855Y-95300000D02*
X60185679Y-95300000D01*
D13*
X60185679Y-95300000D02*
X60200000Y-95300000D01*
X65292001Y-99599999D02*
X64800000Y-99599999D01*
X64800000Y-99599999D02*
X64700001Y-99599999D01*
X64800000Y-97600000D02*
X64800000Y-99599999D01*
X67900000Y-100500000D02*
X66192002Y-100500000D01*
X66192002Y-100500000D02*
X65292001Y-99599999D01*
X64700001Y-99599999D02*
X64449999Y-99850001D01*
X64449999Y-99850001D02*
X64300000Y-100000000D01*
X56200000Y-91600000D02*
X56200000Y-91812132D01*
X56200000Y-91812132D02*
X56387869Y-92000001D01*
X56387869Y-92000001D02*
X58399999Y-92000001D01*
X58399999Y-92000001D02*
X58800000Y-91600000D01*
X67900000Y-100500000D02*
X72100000Y-100500000D01*
X72100000Y-100500000D02*
X72300000Y-100700000D01*
X52907999Y-115100001D02*
X53999999Y-115100001D01*
X53999999Y-115100001D02*
X54400000Y-114700000D01*
X52094836Y-114717214D02*
X52477622Y-115100000D01*
X52477622Y-115100000D02*
X52907999Y-115100001D01*
D16*
X63400000Y-105100000D02*
X65400000Y-105100000D01*
X65400000Y-105100000D02*
X65700000Y-104800000D01*
X62400000Y-105100000D02*
X63400000Y-105100000D01*
X58400000Y-105100000D02*
X62400000Y-105100000D01*
X58400000Y-105100000D02*
X57399999Y-105099999D01*
X57399999Y-105099999D02*
X57100000Y-104800000D01*
X67300000Y-103200000D02*
X68300000Y-103200000D01*
X68300000Y-103200000D02*
X69300000Y-103200000D01*
X65700000Y-104800000D02*
X65900000Y-104600000D01*
X67300000Y-103200000D02*
X65900000Y-104600000D01*
D13*
X62075000Y-109525000D02*
X62250000Y-109700000D01*
X62250000Y-109700000D02*
X67500000Y-109700000D01*
X67500000Y-109700000D02*
X67900000Y-110100000D01*
X67900000Y-110100000D02*
X67900000Y-111000000D01*
X67900000Y-111000000D02*
X68400000Y-111500000D01*
X68400000Y-111500000D02*
X69250000Y-111500000D01*
X69250000Y-111500000D02*
X69875000Y-112125000D01*
X62075000Y-108225000D02*
X62475001Y-107824999D01*
X62475001Y-107824999D02*
X62475001Y-107382999D01*
X55600000Y-104219252D02*
X55600000Y-104012132D01*
X62475001Y-107382999D02*
X62324999Y-107232997D01*
X61411969Y-105824979D02*
X57205727Y-105824979D01*
X57205727Y-105824979D02*
X55600000Y-104219252D01*
X62324999Y-107232997D02*
X62324999Y-106738009D01*
X62324999Y-106738009D02*
X61411969Y-105824979D01*
X55600000Y-104012132D02*
X55600000Y-103800000D01*
X50200000Y-110900000D02*
X50200000Y-111052108D01*
X59292942Y-109400020D02*
X60094968Y-109400020D01*
X50200000Y-111052108D02*
X51647893Y-112500001D01*
X54600000Y-112000000D02*
X56692962Y-112000000D01*
X51647893Y-112500001D02*
X54099999Y-112500001D01*
X54099999Y-112500001D02*
X54600000Y-112000000D01*
X56692962Y-112000000D02*
X59292942Y-109400020D01*
X60094968Y-109400020D02*
X60094988Y-109400000D01*
X60094988Y-109400000D02*
X60250000Y-109400000D01*
X60250000Y-109400000D02*
X60775000Y-108875000D01*
X51142880Y-111500000D02*
X51292891Y-111650011D01*
X51292891Y-111650011D02*
X53586979Y-111650011D01*
X53586979Y-111650011D02*
X53587000Y-111649990D01*
X53587000Y-111649990D02*
X56547984Y-111649990D01*
X56547984Y-111649990D02*
X59147964Y-109050010D01*
X59147964Y-109050010D02*
X59949990Y-109050010D01*
X59949990Y-109050010D02*
X60775000Y-108225000D01*
X51142880Y-111500000D02*
X50899992Y-111257112D01*
X50700000Y-111057120D02*
X51142880Y-111500000D01*
X50700000Y-110900000D02*
X50700000Y-111057120D01*
X51250000Y-110900000D02*
X51250000Y-111112132D01*
X56403006Y-111299980D02*
X59002986Y-108700000D01*
X51250000Y-111112132D02*
X51437869Y-111300001D01*
X51437869Y-111300001D02*
X53442001Y-111300001D01*
X59707998Y-108700000D02*
X60582999Y-107824999D01*
X53442001Y-111300001D02*
X53442022Y-111299980D01*
X53442022Y-111299980D02*
X56403006Y-111299980D01*
X59002986Y-108700000D02*
X59707998Y-108700000D01*
X60582999Y-107824999D02*
X61024999Y-107824999D01*
X61024999Y-107824999D02*
X61425000Y-108225000D01*
X62075000Y-107575000D02*
X61825001Y-107325001D01*
X61825001Y-107325001D02*
X61825001Y-106732999D01*
X61825001Y-106732999D02*
X61266991Y-106174989D01*
X53155043Y-109249969D02*
X51750000Y-110655012D01*
X61266991Y-106174989D02*
X59538021Y-106174989D01*
X59538021Y-106174989D02*
X56463041Y-109249969D01*
X56463041Y-109249969D02*
X53155043Y-109249969D01*
X51750000Y-110655012D02*
X51750000Y-110900000D01*
X52250000Y-110900000D02*
X52250000Y-110650000D01*
X52250000Y-110650000D02*
X53300021Y-109599979D01*
X53300021Y-109599979D02*
X56608019Y-109599979D01*
X56608019Y-109599979D02*
X59682999Y-106524999D01*
X59682999Y-106524999D02*
X61024999Y-106524999D01*
X61024999Y-106524999D02*
X61425000Y-106925000D01*
X59968033Y-107449989D02*
X60493022Y-106925000D01*
X60493022Y-106925000D02*
X60775000Y-106925000D01*
X59968033Y-107449989D02*
X59263021Y-107449989D01*
X59263021Y-107449989D02*
X56763021Y-109949989D01*
X56763021Y-109949989D02*
X53487879Y-109949989D01*
X52750000Y-110687868D02*
X52750000Y-110900000D01*
X53487879Y-109949989D02*
X52750000Y-110687868D01*
X61425000Y-107575000D02*
X61175001Y-107325001D01*
X61175001Y-107325001D02*
X60588009Y-107325001D01*
X60588009Y-107325001D02*
X60113011Y-107799999D01*
X60113011Y-107799999D02*
X59407999Y-107799999D01*
X59407999Y-107799999D02*
X56907999Y-110299999D01*
X56907999Y-110299999D02*
X53850001Y-110299999D01*
X53850001Y-110299999D02*
X53250000Y-110900000D01*
X67925000Y-116025000D02*
X67524999Y-116425001D01*
X67524999Y-116425001D02*
X63930021Y-116425001D01*
X63930021Y-116425001D02*
X63330012Y-117025010D01*
X61092002Y-118100000D02*
X58000000Y-118100000D01*
X63330012Y-117025010D02*
X62166992Y-117025010D01*
X62166992Y-117025010D02*
X61092002Y-118100000D01*
X58000000Y-118100000D02*
X57600000Y-118500000D01*
X71400000Y-119700000D02*
X71400000Y-119487868D01*
X71400000Y-119487868D02*
X71212131Y-119299999D01*
X71212131Y-119299999D02*
X70707119Y-119299999D01*
X70707119Y-119299999D02*
X68325001Y-116917881D01*
X68325001Y-116917881D02*
X68325001Y-116425001D01*
X68325001Y-116425001D02*
X68074999Y-116174999D01*
X68074999Y-116174999D02*
X67925000Y-116025000D01*
X69875000Y-110825000D02*
X70782998Y-110825000D01*
X70782998Y-110825000D02*
X71007998Y-110600000D01*
X71007998Y-110600000D02*
X73500000Y-110600000D01*
X73500000Y-110600000D02*
X73800000Y-110300000D01*
X73800000Y-110300000D02*
X73800000Y-109600000D01*
X73800000Y-109600000D02*
X74100000Y-109300000D01*
X55800000Y-117100000D02*
X56012132Y-117100000D01*
X56012132Y-117100000D02*
X56162122Y-117249990D01*
X56162122Y-117249990D02*
X60050010Y-117249990D01*
X60050010Y-117249990D02*
X60374999Y-116925001D01*
X60374999Y-116925001D02*
X60374999Y-114532999D01*
X60374999Y-114532999D02*
X60582999Y-114324999D01*
X60582999Y-114324999D02*
X63125001Y-114324999D01*
X63125001Y-114324999D02*
X63375000Y-114075000D01*
X60900000Y-117600000D02*
X57000000Y-117600000D01*
X57000000Y-117600000D02*
X55800000Y-117600000D01*
X68291962Y-104900040D02*
X70300000Y-104900040D01*
X70300000Y-104900040D02*
X70976926Y-104900040D01*
X73500000Y-102900000D02*
X73157998Y-102900000D01*
X73157998Y-102900000D02*
X71157958Y-104900040D01*
X71157958Y-104900040D02*
X70300000Y-104900040D01*
X67500000Y-105700000D02*
X67800000Y-105400000D01*
X67800000Y-105400000D02*
X67800000Y-105392002D01*
X67800000Y-105392002D02*
X68291962Y-104900040D01*
X62725000Y-106925000D02*
X62725000Y-106480012D01*
X62725000Y-106480012D02*
X63380033Y-105824979D01*
X63380033Y-105824979D02*
X65675021Y-105824979D01*
X65675021Y-105824979D02*
X67649990Y-103850010D01*
X67649990Y-103850010D02*
X70541992Y-103850010D01*
X70541992Y-103850010D02*
X72600000Y-101792002D01*
X72600000Y-101792002D02*
X72600000Y-101300000D01*
X70686970Y-104200020D02*
X67807978Y-104200020D01*
X67207998Y-104800000D02*
X67200000Y-104800000D01*
X67807978Y-104200020D02*
X67207998Y-104800000D01*
X67200000Y-104800000D02*
X65825011Y-106174989D01*
X65825011Y-106174989D02*
X63525011Y-106174989D01*
X63525011Y-106174989D02*
X63375000Y-106325000D01*
X63375000Y-106325000D02*
X63375000Y-106925000D01*
X70300000Y-104200020D02*
X70686970Y-104200020D01*
X72836998Y-102049992D02*
X70686970Y-104200020D01*
X73100000Y-101300000D02*
X73100000Y-101786990D01*
X73100000Y-101786990D02*
X72836998Y-102049992D01*
X63800000Y-106600000D02*
X63800000Y-107150000D01*
X63800000Y-107150000D02*
X63375000Y-107575000D01*
X70831948Y-104550030D02*
X72981978Y-102400000D01*
X72981978Y-102400000D02*
X73500000Y-102400000D01*
X70831948Y-104550030D02*
X68049970Y-104550030D01*
X68049970Y-104550030D02*
X67500000Y-105100000D01*
X65325000Y-107575000D02*
X64732998Y-107575000D01*
X64732998Y-107575000D02*
X64274999Y-107117001D01*
X64274999Y-107117001D02*
X64274999Y-106625001D01*
X64274999Y-106625001D02*
X64300000Y-106600000D01*
X67925000Y-116800000D02*
X67874990Y-116850010D01*
X61236980Y-118450010D02*
X58249990Y-118450010D01*
X67874990Y-116850010D02*
X64000000Y-116850010D01*
X64000000Y-116850010D02*
X63474990Y-117375020D01*
X58249990Y-118450010D02*
X57800000Y-118900000D01*
X63474990Y-117375020D02*
X62311970Y-117375020D01*
X62311970Y-117375020D02*
X61236980Y-118450010D01*
X57800000Y-118900000D02*
X57400001Y-118900001D01*
X57400001Y-118900001D02*
X57000000Y-118500000D01*
X67925000Y-117012868D02*
X67925000Y-116800000D01*
X67925000Y-116800000D02*
X67925000Y-116675000D01*
X67925000Y-117012868D02*
X70400000Y-119487868D01*
X70400000Y-119700000D02*
X70400000Y-119487868D01*
X57057997Y-118500000D02*
X57000000Y-118500000D01*
X73200000Y-112762588D02*
X73762587Y-112200001D01*
X73762587Y-112200001D02*
X74092001Y-112200001D01*
X74092001Y-112200001D02*
X74500001Y-111792001D01*
X74500001Y-111792001D02*
X74500001Y-106900001D01*
X74500001Y-106900001D02*
X74200000Y-106600000D01*
X64675000Y-116025000D02*
X64675000Y-114782998D01*
X64675000Y-114782998D02*
X65132999Y-114324999D01*
X65132999Y-114324999D02*
X65175001Y-114324999D01*
X65175001Y-114324999D02*
X65224980Y-114275020D01*
X65224980Y-114275020D02*
X67229992Y-114275020D01*
X67229992Y-114275020D02*
X67530023Y-113974989D01*
X68572881Y-113974989D02*
X68872912Y-114275020D01*
X67530023Y-113974989D02*
X68572881Y-113974989D01*
X68872912Y-114275020D02*
X71687568Y-114275020D01*
X71687568Y-114275020D02*
X73200000Y-112762588D01*
X73200000Y-112762588D02*
X73300000Y-112662588D01*
X72967600Y-112500000D02*
X71542590Y-113925010D01*
X71542590Y-113925010D02*
X69017890Y-113925010D01*
X69017890Y-113925010D02*
X68717859Y-113624979D01*
X68717859Y-113624979D02*
X67385045Y-113624979D01*
X67385045Y-113624979D02*
X67085014Y-113925010D01*
X64324990Y-114638020D02*
X64324990Y-115535044D01*
X67085014Y-113925010D02*
X65038000Y-113925010D01*
X65038000Y-113925010D02*
X64324990Y-114638020D01*
X64324990Y-115535044D02*
X63185034Y-116675000D01*
X63185034Y-116675000D02*
X62288010Y-116675000D01*
X62288010Y-116675000D02*
X61425000Y-116675000D01*
X74100000Y-111600000D02*
X73867600Y-111600000D01*
X73867600Y-111600000D02*
X73667600Y-111800000D01*
X72967600Y-112500000D02*
X73155022Y-112312578D01*
X73667600Y-111800000D02*
X72967600Y-112500000D01*
X67275000Y-117325000D02*
X67525011Y-117325000D01*
X67525011Y-117325000D02*
X69200011Y-119000000D01*
X59300000Y-104300000D02*
X62800000Y-104300000D01*
X60200000Y-113900000D02*
X62250000Y-113900000D01*
X62250000Y-113900000D02*
X62725000Y-113425000D01*
X60900000Y-118900000D02*
X58294988Y-118900000D01*
X58294988Y-118900000D02*
X57944977Y-119250011D01*
X57944977Y-119250011D02*
X57158009Y-119250011D01*
X57158009Y-119250011D02*
X56707998Y-118800000D01*
X56707998Y-118800000D02*
X55800000Y-118800000D01*
X55950010Y-95549990D02*
X55100000Y-96400000D01*
X55100000Y-96400000D02*
X55100000Y-97900000D01*
X55100000Y-97900000D02*
X54900000Y-98100000D01*
X63750000Y-92600000D02*
X61800000Y-94550000D01*
X61800000Y-94550000D02*
X58899990Y-94550000D01*
X58899990Y-94550000D02*
X57900000Y-95549990D01*
X57900000Y-95549990D02*
X55950010Y-95549990D01*
X73550000Y-113800000D02*
X72657576Y-113800000D01*
X72657576Y-113800000D02*
X71832546Y-114625030D01*
X71832546Y-114625030D02*
X68525030Y-114625030D01*
X68525030Y-114625030D02*
X68224999Y-114324999D01*
X68224999Y-114324999D02*
X67675001Y-114324999D01*
X67675001Y-114324999D02*
X67275000Y-114725000D01*
D18*
G36*
X76630000Y-124330000D02*
X47370000Y-124330000D01*
X47370000Y-121373265D01*
X61529936Y-121373265D01*
X61586146Y-121509305D01*
X61690138Y-121613478D01*
X61826080Y-121669926D01*
X61973275Y-121670054D01*
X62109315Y-121613844D01*
X62149980Y-121573250D01*
X62190138Y-121613478D01*
X62326080Y-121669926D01*
X62473275Y-121670054D01*
X62609315Y-121613844D01*
X62649980Y-121573250D01*
X62690138Y-121613478D01*
X62826080Y-121669926D01*
X62973275Y-121670054D01*
X63109315Y-121613844D01*
X63149975Y-121573255D01*
X63190138Y-121613488D01*
X63326080Y-121669936D01*
X63473275Y-121670064D01*
X63609315Y-121613854D01*
X63649980Y-121573260D01*
X63690138Y-121613488D01*
X63826080Y-121669936D01*
X63973275Y-121670064D01*
X64109315Y-121613854D01*
X64149980Y-121573260D01*
X64190138Y-121613488D01*
X64326080Y-121669936D01*
X64473275Y-121670064D01*
X64609315Y-121613854D01*
X64649980Y-121573260D01*
X64690138Y-121613488D01*
X64826080Y-121669936D01*
X64973275Y-121670064D01*
X65109315Y-121613854D01*
X65213488Y-121509862D01*
X65269936Y-121373920D01*
X65269936Y-121373275D01*
X65529936Y-121373275D01*
X65586146Y-121509315D01*
X65690138Y-121613488D01*
X65826080Y-121669936D01*
X65973275Y-121670064D01*
X66109315Y-121613854D01*
X66213488Y-121509862D01*
X66269936Y-121373920D01*
X66269936Y-121373275D01*
X67529936Y-121373275D01*
X67586146Y-121509315D01*
X67690138Y-121613488D01*
X67826080Y-121669936D01*
X67973275Y-121670064D01*
X68109315Y-121613854D01*
X68213488Y-121509862D01*
X68269936Y-121373920D01*
X68270064Y-121226725D01*
X68213854Y-121090685D01*
X68109862Y-120986512D01*
X67973920Y-120930064D01*
X67826725Y-120929936D01*
X67690685Y-120986146D01*
X67586512Y-121090138D01*
X67530064Y-121226080D01*
X67529936Y-121373275D01*
X66269936Y-121373275D01*
X66270064Y-121226725D01*
X66213854Y-121090685D01*
X66109862Y-120986512D01*
X65973920Y-120930064D01*
X65826725Y-120929936D01*
X65690685Y-120986146D01*
X65586512Y-121090138D01*
X65530064Y-121226080D01*
X65529936Y-121373275D01*
X65269936Y-121373275D01*
X65270064Y-121226725D01*
X65213854Y-121090685D01*
X65109862Y-120986512D01*
X64973920Y-120930064D01*
X64826725Y-120929936D01*
X64690685Y-120986146D01*
X64650020Y-121026740D01*
X64609862Y-120986512D01*
X64473920Y-120930064D01*
X64326725Y-120929936D01*
X64190685Y-120986146D01*
X64150020Y-121026740D01*
X64109862Y-120986512D01*
X63973920Y-120930064D01*
X63826725Y-120929936D01*
X63690685Y-120986146D01*
X63650020Y-121026740D01*
X63609862Y-120986512D01*
X63473920Y-120930064D01*
X63326725Y-120929936D01*
X63190685Y-120986146D01*
X63150025Y-121026735D01*
X63109862Y-120986502D01*
X62973920Y-120930054D01*
X62826725Y-120929926D01*
X62690685Y-120986136D01*
X62650020Y-121026730D01*
X62609862Y-120986502D01*
X62473920Y-120930054D01*
X62326725Y-120929926D01*
X62190685Y-120986136D01*
X62150020Y-121026730D01*
X62109862Y-120986502D01*
X61973920Y-120930054D01*
X61826725Y-120929926D01*
X61690685Y-120986136D01*
X61586512Y-121090128D01*
X61530064Y-121226070D01*
X61529936Y-121373265D01*
X47370000Y-121373265D01*
X47370000Y-119773265D01*
X62429946Y-119773265D01*
X62486156Y-119909305D01*
X62590148Y-120013478D01*
X62726090Y-120069926D01*
X62873285Y-120070054D01*
X63009325Y-120013844D01*
X63113498Y-119909852D01*
X63169946Y-119773910D01*
X63169946Y-119773275D01*
X66529936Y-119773275D01*
X66586146Y-119909315D01*
X66690138Y-120013488D01*
X66826080Y-120069936D01*
X66973275Y-120070064D01*
X67109315Y-120013854D01*
X67213488Y-119909862D01*
X67269936Y-119773920D01*
X67269936Y-119773275D01*
X67529936Y-119773275D01*
X67586146Y-119909315D01*
X67690138Y-120013488D01*
X67826080Y-120069936D01*
X67973275Y-120070064D01*
X68109315Y-120013854D01*
X68149980Y-119973260D01*
X68190138Y-120013488D01*
X68326080Y-120069936D01*
X68473275Y-120070064D01*
X68609315Y-120013854D01*
X68713488Y-119909862D01*
X68769936Y-119773920D01*
X68770064Y-119626725D01*
X68713854Y-119490685D01*
X68609862Y-119386512D01*
X68473920Y-119330064D01*
X68326725Y-119329936D01*
X68190685Y-119386146D01*
X68150020Y-119426740D01*
X68109862Y-119386512D01*
X67973920Y-119330064D01*
X67826725Y-119329936D01*
X67690685Y-119386146D01*
X67586512Y-119490138D01*
X67530064Y-119626080D01*
X67529936Y-119773275D01*
X67269936Y-119773275D01*
X67270064Y-119626725D01*
X67213854Y-119490685D01*
X67109862Y-119386512D01*
X66973920Y-119330064D01*
X66826725Y-119329936D01*
X66690685Y-119386146D01*
X66586512Y-119490138D01*
X66530064Y-119626080D01*
X66529936Y-119773275D01*
X63169946Y-119773275D01*
X63170074Y-119626715D01*
X63113864Y-119490675D01*
X63009872Y-119386502D01*
X62873930Y-119330054D01*
X62726735Y-119329926D01*
X62590695Y-119386136D01*
X62486522Y-119490128D01*
X62430074Y-119626070D01*
X62429946Y-119773265D01*
X47370000Y-119773265D01*
X47370000Y-118073275D01*
X47429936Y-118073275D01*
X47486146Y-118209315D01*
X47590138Y-118313488D01*
X47726080Y-118369936D01*
X47873275Y-118370064D01*
X48009315Y-118313854D01*
X48113488Y-118209862D01*
X48169936Y-118073920D01*
X48170064Y-117926725D01*
X48113854Y-117790685D01*
X48009862Y-117686512D01*
X47873920Y-117630064D01*
X47726725Y-117629936D01*
X47590685Y-117686146D01*
X47486512Y-117790138D01*
X47430064Y-117926080D01*
X47429936Y-118073275D01*
X47370000Y-118073275D01*
X47370000Y-114873275D01*
X49929936Y-114873275D01*
X49986146Y-115009315D01*
X50090138Y-115113488D01*
X50226080Y-115169936D01*
X50373275Y-115170064D01*
X50509315Y-115113854D01*
X50613488Y-115009862D01*
X50669936Y-114873920D01*
X50670064Y-114726725D01*
X50613854Y-114590685D01*
X50509862Y-114486512D01*
X50373920Y-114430064D01*
X50226725Y-114429936D01*
X50090685Y-114486146D01*
X49986512Y-114590138D01*
X49930064Y-114726080D01*
X49929936Y-114873275D01*
X47370000Y-114873275D01*
X47370000Y-112773275D01*
X47729936Y-112773275D01*
X47786146Y-112909315D01*
X47890138Y-113013488D01*
X48026080Y-113069936D01*
X48173275Y-113070064D01*
X48309315Y-113013854D01*
X48413488Y-112909862D01*
X48469936Y-112773920D01*
X48469936Y-112773275D01*
X48829936Y-112773275D01*
X48886146Y-112909315D01*
X48990138Y-113013488D01*
X49126080Y-113069936D01*
X49273275Y-113070064D01*
X49409315Y-113013854D01*
X49513488Y-112909862D01*
X49569936Y-112773920D01*
X49570064Y-112626725D01*
X49517264Y-112498938D01*
X49590883Y-112609117D01*
X50790883Y-113809117D01*
X51024468Y-113965193D01*
X51300000Y-114020000D01*
X52780000Y-114020000D01*
X52780000Y-114505821D01*
X52730064Y-114626080D01*
X52729936Y-114773275D01*
X52732715Y-114780001D01*
X52610170Y-114780000D01*
X52458416Y-114628246D01*
X52408690Y-114507899D01*
X52304698Y-114403726D01*
X52168756Y-114347278D01*
X52021561Y-114347150D01*
X51885521Y-114403360D01*
X51781348Y-114507352D01*
X51724900Y-114643294D01*
X51724772Y-114790489D01*
X51780982Y-114926529D01*
X51884974Y-115030702D01*
X52006052Y-115080978D01*
X52251348Y-115326274D01*
X52251351Y-115326276D01*
X52355162Y-115395641D01*
X52477621Y-115420000D01*
X52907998Y-115420001D01*
X53999999Y-115420001D01*
X54122458Y-115395642D01*
X54226273Y-115326275D01*
X54488968Y-115063580D01*
X54609315Y-115013854D01*
X54713488Y-114909862D01*
X54769936Y-114773920D01*
X54770064Y-114626725D01*
X54713854Y-114490685D01*
X54609862Y-114386512D01*
X54473920Y-114330064D01*
X54326725Y-114329936D01*
X54190685Y-114386146D01*
X54086512Y-114490138D01*
X54036236Y-114611216D01*
X53867451Y-114780001D01*
X53467411Y-114780001D01*
X53469936Y-114773920D01*
X53470064Y-114626725D01*
X53420000Y-114505560D01*
X53420000Y-114020000D01*
X58480000Y-114020000D01*
X58480000Y-115050000D01*
X58534807Y-115325532D01*
X58690883Y-115559117D01*
X58924468Y-115715193D01*
X59200000Y-115770000D01*
X59475532Y-115715193D01*
X59709117Y-115559117D01*
X59865193Y-115325532D01*
X59920000Y-115050000D01*
X59920000Y-114143228D01*
X59990138Y-114213488D01*
X60126080Y-114269936D01*
X60185462Y-114269988D01*
X60148725Y-114306725D01*
X60079358Y-114410540D01*
X60054999Y-114532999D01*
X60054999Y-116792453D01*
X59917462Y-116929990D01*
X56294670Y-116929990D01*
X56238406Y-116873726D01*
X56237029Y-116872806D01*
X56134591Y-116804359D01*
X56012132Y-116780000D01*
X55994179Y-116780000D01*
X55873920Y-116730064D01*
X55726725Y-116729936D01*
X55590685Y-116786146D01*
X55486512Y-116890138D01*
X55430064Y-117026080D01*
X55429936Y-117173275D01*
X55486146Y-117309315D01*
X55526740Y-117349980D01*
X55486512Y-117390138D01*
X55430064Y-117526080D01*
X55429936Y-117673275D01*
X55486146Y-117809315D01*
X55590138Y-117913488D01*
X55726080Y-117969936D01*
X55873275Y-117970064D01*
X55994440Y-117920000D01*
X57727452Y-117920000D01*
X57511032Y-118136420D01*
X57390685Y-118186146D01*
X57299933Y-118276740D01*
X57209862Y-118186512D01*
X57073920Y-118130064D01*
X56926725Y-118129936D01*
X56790685Y-118186146D01*
X56686512Y-118290138D01*
X56630064Y-118426080D01*
X56630017Y-118480000D01*
X55994179Y-118480000D01*
X55873920Y-118430064D01*
X55726725Y-118429936D01*
X55590685Y-118486146D01*
X55486512Y-118590138D01*
X55430064Y-118726080D01*
X55429936Y-118873275D01*
X55486146Y-119009315D01*
X55526740Y-119049980D01*
X55486512Y-119090138D01*
X55430064Y-119226080D01*
X55429936Y-119373275D01*
X55486146Y-119509315D01*
X55590138Y-119613488D01*
X55726080Y-119669936D01*
X55873275Y-119670064D01*
X56009315Y-119613854D01*
X56113488Y-119509862D01*
X56169936Y-119373920D01*
X56170064Y-119226725D01*
X56125967Y-119120000D01*
X56575450Y-119120000D01*
X56931735Y-119476285D01*
X57035551Y-119545653D01*
X57158009Y-119570011D01*
X57944977Y-119570011D01*
X58067436Y-119545652D01*
X58171251Y-119476285D01*
X58427536Y-119220000D01*
X60574112Y-119220000D01*
X60530064Y-119326080D01*
X60529936Y-119473275D01*
X60586146Y-119609315D01*
X60690138Y-119713488D01*
X60826080Y-119769936D01*
X60973275Y-119770064D01*
X61109315Y-119713854D01*
X61213488Y-119609862D01*
X61269936Y-119473920D01*
X61270064Y-119326725D01*
X61213854Y-119190685D01*
X61173260Y-119150020D01*
X61213488Y-119109862D01*
X61269936Y-118973920D01*
X61270064Y-118826725D01*
X61245897Y-118768236D01*
X61359439Y-118745651D01*
X61463254Y-118676284D01*
X62444518Y-117695020D01*
X63474990Y-117695020D01*
X63597449Y-117670661D01*
X63701264Y-117601294D01*
X64132548Y-117170010D01*
X65638727Y-117170010D01*
X65605064Y-117251080D01*
X65604936Y-117398275D01*
X65661146Y-117534315D01*
X65765138Y-117638488D01*
X65901080Y-117694936D01*
X66048275Y-117695064D01*
X66184315Y-117638854D01*
X66288488Y-117534862D01*
X66344936Y-117398920D01*
X66345064Y-117251725D01*
X66311300Y-117170010D01*
X66938727Y-117170010D01*
X66905064Y-117251080D01*
X66904936Y-117398275D01*
X66961146Y-117534315D01*
X67065138Y-117638488D01*
X67201080Y-117694936D01*
X67348275Y-117695064D01*
X67414970Y-117667507D01*
X68836431Y-119088968D01*
X68886157Y-119209315D01*
X68990149Y-119313488D01*
X69126091Y-119369936D01*
X69273286Y-119370064D01*
X69409326Y-119313854D01*
X69513499Y-119209862D01*
X69559254Y-119099670D01*
X69800398Y-119340814D01*
X69690685Y-119386146D01*
X69586512Y-119490138D01*
X69530064Y-119626080D01*
X69529936Y-119773275D01*
X69586146Y-119909315D01*
X69690138Y-120013488D01*
X69826080Y-120069936D01*
X69973275Y-120070064D01*
X70109315Y-120013854D01*
X70149980Y-119973260D01*
X70190138Y-120013488D01*
X70326080Y-120069936D01*
X70473275Y-120070064D01*
X70609315Y-120013854D01*
X70649980Y-119973260D01*
X70690138Y-120013488D01*
X70826080Y-120069936D01*
X70973275Y-120070064D01*
X71109315Y-120013854D01*
X71149980Y-119973260D01*
X71190138Y-120013488D01*
X71326080Y-120069936D01*
X71473275Y-120070064D01*
X71609315Y-120013854D01*
X71713488Y-119909862D01*
X71769936Y-119773920D01*
X71770064Y-119626725D01*
X71720000Y-119505560D01*
X71720000Y-119487868D01*
X71695641Y-119365409D01*
X71626274Y-119261594D01*
X71438405Y-119073725D01*
X71437732Y-119073275D01*
X71334590Y-119004358D01*
X71212131Y-118979999D01*
X70839667Y-118979999D01*
X68645001Y-116785333D01*
X68645001Y-116425001D01*
X68620642Y-116302542D01*
X68551275Y-116198727D01*
X68288580Y-115936032D01*
X68238854Y-115815685D01*
X68216689Y-115793482D01*
X68292696Y-115742696D01*
X68405417Y-115573995D01*
X68430424Y-115448275D01*
X68854936Y-115448275D01*
X68911146Y-115584315D01*
X69015138Y-115688488D01*
X69042762Y-115699958D01*
X69015685Y-115711146D01*
X68911512Y-115815138D01*
X68855064Y-115951080D01*
X68854936Y-116098275D01*
X68911146Y-116234315D01*
X69015138Y-116338488D01*
X69151080Y-116394936D01*
X69298275Y-116395064D01*
X69434315Y-116338854D01*
X69538488Y-116234862D01*
X69594936Y-116098920D01*
X69595064Y-115951725D01*
X69538854Y-115815685D01*
X69434862Y-115711512D01*
X69407238Y-115700042D01*
X69434315Y-115688854D01*
X69538488Y-115584862D01*
X69594936Y-115448920D01*
X69595064Y-115301725D01*
X69538854Y-115165685D01*
X69434862Y-115061512D01*
X69298920Y-115005064D01*
X69151725Y-115004936D01*
X69015685Y-115061146D01*
X68911512Y-115165138D01*
X68855064Y-115301080D01*
X68854936Y-115448275D01*
X68430424Y-115448275D01*
X68445000Y-115375000D01*
X68405417Y-115176005D01*
X68292696Y-115007304D01*
X68123995Y-114894583D01*
X67925000Y-114855000D01*
X67621650Y-114855000D01*
X67638764Y-114813784D01*
X67807549Y-114644999D01*
X68092451Y-114644999D01*
X68298756Y-114851304D01*
X68402571Y-114920671D01*
X68525030Y-114945030D01*
X70250505Y-114945030D01*
X70157304Y-115007304D01*
X70044583Y-115176005D01*
X70005000Y-115375000D01*
X70044583Y-115573995D01*
X70157304Y-115742696D01*
X70233248Y-115793440D01*
X70211512Y-115815138D01*
X70155064Y-115951080D01*
X70154936Y-116098275D01*
X70211146Y-116234315D01*
X70315138Y-116338488D01*
X70342762Y-116349958D01*
X70315685Y-116361146D01*
X70211512Y-116465138D01*
X70155064Y-116601080D01*
X70154936Y-116748275D01*
X70211146Y-116884315D01*
X70315138Y-116988488D01*
X70451080Y-117044936D01*
X70598275Y-117045064D01*
X70734315Y-116988854D01*
X70838488Y-116884862D01*
X70894936Y-116748920D01*
X70895064Y-116601725D01*
X70838854Y-116465685D01*
X70734862Y-116361512D01*
X70707238Y-116350042D01*
X70734315Y-116338854D01*
X70838488Y-116234862D01*
X70894936Y-116098920D01*
X70895033Y-115987845D01*
X71364000Y-116456813D01*
X71364000Y-116684000D01*
X71418807Y-116959532D01*
X71574883Y-117193117D01*
X74590883Y-120209117D01*
X74824468Y-120365193D01*
X75100000Y-120420000D01*
X75375532Y-120365193D01*
X75609117Y-120209117D01*
X75765193Y-119975532D01*
X75820000Y-119700000D01*
X75765193Y-119424468D01*
X75609117Y-119190883D01*
X73291509Y-116873275D01*
X73529936Y-116873275D01*
X73586146Y-117009315D01*
X73690138Y-117113488D01*
X73826080Y-117169936D01*
X73973275Y-117170064D01*
X74109315Y-117113854D01*
X74213488Y-117009862D01*
X74269936Y-116873920D01*
X74270064Y-116726725D01*
X74213854Y-116590685D01*
X74109862Y-116486512D01*
X73973920Y-116430064D01*
X73826725Y-116429936D01*
X73690685Y-116486146D01*
X73586512Y-116590138D01*
X73530064Y-116726080D01*
X73529936Y-116873275D01*
X73291509Y-116873275D01*
X72804000Y-116385766D01*
X72804000Y-116300000D01*
X72749193Y-116024468D01*
X72593117Y-115790883D01*
X72359532Y-115634807D01*
X72279750Y-115618937D01*
X71605842Y-114945030D01*
X71832546Y-114945030D01*
X71955005Y-114920671D01*
X72058820Y-114851304D01*
X72790124Y-114120000D01*
X73355821Y-114120000D01*
X73476080Y-114169936D01*
X73623275Y-114170064D01*
X73759315Y-114113854D01*
X73863488Y-114009862D01*
X73919936Y-113873920D01*
X73920064Y-113726725D01*
X73863854Y-113590685D01*
X73759862Y-113486512D01*
X73623920Y-113430064D01*
X73476725Y-113429936D01*
X73355560Y-113480000D01*
X72935136Y-113480000D01*
X73895135Y-112520001D01*
X74092001Y-112520001D01*
X74214460Y-112495642D01*
X74318275Y-112426275D01*
X74726275Y-112018275D01*
X74744710Y-111990685D01*
X74795642Y-111914460D01*
X74820001Y-111792001D01*
X74820001Y-106900001D01*
X74795642Y-106777542D01*
X74769227Y-106738009D01*
X74726275Y-106673726D01*
X74563579Y-106511031D01*
X74513854Y-106390685D01*
X74409862Y-106286512D01*
X74273920Y-106230064D01*
X74126725Y-106229936D01*
X73990685Y-106286146D01*
X73886512Y-106390138D01*
X73830064Y-106526080D01*
X73829936Y-106673275D01*
X73886146Y-106809315D01*
X73990138Y-106913488D01*
X74111215Y-106963764D01*
X74180001Y-107032550D01*
X74180001Y-108932589D01*
X74173920Y-108930064D01*
X74026725Y-108929936D01*
X73890685Y-108986146D01*
X73786512Y-109090138D01*
X73736236Y-109211216D01*
X73573726Y-109373726D01*
X73504359Y-109477541D01*
X73480000Y-109600000D01*
X73480000Y-109674112D01*
X73373920Y-109630064D01*
X73226725Y-109629936D01*
X73105560Y-109680000D01*
X72320000Y-109680000D01*
X72320000Y-108500005D01*
X72320001Y-108500000D01*
X72280417Y-108301005D01*
X72278593Y-108298275D01*
X72167696Y-108132304D01*
X72167693Y-108132302D01*
X71867697Y-107832305D01*
X71867694Y-107832303D01*
X71467696Y-107432304D01*
X71298995Y-107319583D01*
X71100000Y-107279999D01*
X70901005Y-107319583D01*
X70732304Y-107432304D01*
X70619583Y-107601005D01*
X70579999Y-107800000D01*
X70612760Y-107964697D01*
X70586961Y-107947458D01*
X70522459Y-107904359D01*
X70400000Y-107880000D01*
X69274551Y-107880000D01*
X68743276Y-107348726D01*
X68699660Y-107319583D01*
X68639461Y-107279359D01*
X68517002Y-107255000D01*
X68119179Y-107255000D01*
X67998920Y-107205064D01*
X67851725Y-107204936D01*
X67715685Y-107261146D01*
X67611512Y-107365138D01*
X67600042Y-107392762D01*
X67588854Y-107365685D01*
X67484862Y-107261512D01*
X67457238Y-107250042D01*
X67484315Y-107238854D01*
X67588488Y-107134862D01*
X67644936Y-106998920D01*
X67644936Y-106998275D01*
X68854936Y-106998275D01*
X68911146Y-107134315D01*
X69015138Y-107238488D01*
X69151080Y-107294936D01*
X69298275Y-107295064D01*
X69434315Y-107238854D01*
X69538488Y-107134862D01*
X69549958Y-107107238D01*
X69561146Y-107134315D01*
X69665138Y-107238488D01*
X69801080Y-107294936D01*
X69948275Y-107295064D01*
X70084315Y-107238854D01*
X70188488Y-107134862D01*
X70244936Y-106998920D01*
X70245064Y-106851725D01*
X70188854Y-106715685D01*
X70084862Y-106611512D01*
X69948920Y-106555064D01*
X69801725Y-106554936D01*
X69665685Y-106611146D01*
X69561512Y-106715138D01*
X69550042Y-106742762D01*
X69538854Y-106715685D01*
X69434862Y-106611512D01*
X69298920Y-106555064D01*
X69151725Y-106554936D01*
X69015685Y-106611146D01*
X68911512Y-106715138D01*
X68855064Y-106851080D01*
X68854936Y-106998275D01*
X67644936Y-106998275D01*
X67645064Y-106851725D01*
X67588854Y-106715685D01*
X67484862Y-106611512D01*
X67348920Y-106555064D01*
X67201725Y-106554936D01*
X67065685Y-106611146D01*
X66961512Y-106715138D01*
X66950042Y-106742762D01*
X66938854Y-106715685D01*
X66834862Y-106611512D01*
X66698920Y-106555064D01*
X66551725Y-106554936D01*
X66415685Y-106611146D01*
X66311512Y-106715138D01*
X66300042Y-106742762D01*
X66288854Y-106715685D01*
X66184862Y-106611512D01*
X66048920Y-106555064D01*
X65901725Y-106554936D01*
X65765685Y-106611146D01*
X65661512Y-106715138D01*
X65650042Y-106742762D01*
X65638854Y-106715685D01*
X65534862Y-106611512D01*
X65398920Y-106555064D01*
X65251725Y-106554936D01*
X65115685Y-106611146D01*
X65011512Y-106715138D01*
X65000042Y-106742762D01*
X64988854Y-106715685D01*
X64884862Y-106611512D01*
X64748920Y-106555064D01*
X64670039Y-106554995D01*
X64670064Y-106526725D01*
X64656951Y-106494989D01*
X65825011Y-106494989D01*
X65947470Y-106470630D01*
X66051285Y-106401263D01*
X67173599Y-105278949D01*
X67186146Y-105309315D01*
X67276740Y-105400067D01*
X67186512Y-105490138D01*
X67130064Y-105626080D01*
X67129936Y-105773275D01*
X67186146Y-105909315D01*
X67290138Y-106013488D01*
X67426080Y-106069936D01*
X67573275Y-106070064D01*
X67709315Y-106013854D01*
X67813488Y-105909862D01*
X67863764Y-105788784D01*
X68026274Y-105626274D01*
X68042379Y-105602171D01*
X68424510Y-105220040D01*
X71157958Y-105220040D01*
X71280417Y-105195681D01*
X71384232Y-105126314D01*
X73290546Y-103220000D01*
X73305821Y-103220000D01*
X73426080Y-103269936D01*
X73573275Y-103270064D01*
X73709315Y-103213854D01*
X73813488Y-103109862D01*
X73869936Y-102973920D01*
X73870064Y-102826725D01*
X73813854Y-102690685D01*
X73773260Y-102650020D01*
X73813488Y-102609862D01*
X73869936Y-102473920D01*
X73870064Y-102326725D01*
X73813854Y-102190685D01*
X73709862Y-102086512D01*
X73573920Y-102030064D01*
X73426725Y-102029936D01*
X73305560Y-102080000D01*
X73259538Y-102080000D01*
X73326274Y-102013264D01*
X73395641Y-101909449D01*
X73420000Y-101786990D01*
X73420000Y-101494179D01*
X73469936Y-101373920D01*
X73470064Y-101226725D01*
X73413854Y-101090685D01*
X73309862Y-100986512D01*
X73173920Y-100930064D01*
X73026725Y-100929936D01*
X72890685Y-100986146D01*
X72850020Y-101026740D01*
X72809862Y-100986512D01*
X72673920Y-100930064D01*
X72593321Y-100929994D01*
X72613488Y-100909862D01*
X72669936Y-100773920D01*
X72670064Y-100626725D01*
X72613854Y-100490685D01*
X72509862Y-100386512D01*
X72388784Y-100336236D01*
X72326274Y-100273726D01*
X72222459Y-100204359D01*
X72100000Y-100180000D01*
X68094179Y-100180000D01*
X67973920Y-100130064D01*
X67826725Y-100129936D01*
X67705560Y-100180000D01*
X66324550Y-100180000D01*
X65518275Y-99373725D01*
X65414460Y-99304358D01*
X65292001Y-99279999D01*
X65120000Y-99279999D01*
X65120000Y-99273275D01*
X68129936Y-99273275D01*
X68186146Y-99409315D01*
X68290138Y-99513488D01*
X68426080Y-99569936D01*
X68573275Y-99570064D01*
X68709315Y-99513854D01*
X68813488Y-99409862D01*
X68869936Y-99273920D01*
X68870064Y-99126725D01*
X68819306Y-99003880D01*
X68913488Y-98909862D01*
X68969936Y-98773920D01*
X68970064Y-98626725D01*
X68913854Y-98490685D01*
X68809862Y-98386512D01*
X68777984Y-98373275D01*
X69829936Y-98373275D01*
X69886146Y-98509315D01*
X69990138Y-98613488D01*
X70126080Y-98669936D01*
X70273275Y-98670064D01*
X70409315Y-98613854D01*
X70513488Y-98509862D01*
X70569936Y-98373920D01*
X70570064Y-98226725D01*
X70513854Y-98090685D01*
X70409862Y-97986512D01*
X70273920Y-97930064D01*
X70126725Y-97929936D01*
X69990685Y-97986146D01*
X69886512Y-98090138D01*
X69830064Y-98226080D01*
X69829936Y-98373275D01*
X68777984Y-98373275D01*
X68673920Y-98330064D01*
X68526725Y-98329936D01*
X68390685Y-98386146D01*
X68286512Y-98490138D01*
X68230064Y-98626080D01*
X68229936Y-98773275D01*
X68280694Y-98896120D01*
X68186512Y-98990138D01*
X68130064Y-99126080D01*
X68129936Y-99273275D01*
X65120000Y-99273275D01*
X65120000Y-97794179D01*
X65169936Y-97673920D01*
X65170064Y-97526725D01*
X65113854Y-97390685D01*
X65009862Y-97286512D01*
X64873920Y-97230064D01*
X64726725Y-97229936D01*
X64590685Y-97286146D01*
X64495937Y-97380730D01*
X64373920Y-97330064D01*
X64226725Y-97329936D01*
X64090685Y-97386146D01*
X63986512Y-97490138D01*
X63930064Y-97626080D01*
X63929936Y-97773275D01*
X63986146Y-97909315D01*
X64090138Y-98013488D01*
X64226080Y-98069936D01*
X64373275Y-98070064D01*
X64480000Y-98025967D01*
X64480000Y-99369534D01*
X64473727Y-99373725D01*
X64211032Y-99636420D01*
X64090685Y-99686146D01*
X63986512Y-99790138D01*
X63930064Y-99926080D01*
X63929936Y-100073275D01*
X63986146Y-100209315D01*
X64090138Y-100313488D01*
X64226080Y-100369936D01*
X64373275Y-100370064D01*
X64509315Y-100313854D01*
X64613488Y-100209862D01*
X64663764Y-100088784D01*
X64729980Y-100022568D01*
X64729936Y-100073275D01*
X64780000Y-100194440D01*
X64780000Y-102767451D01*
X64267452Y-103280000D01*
X58700000Y-103280000D01*
X58577541Y-103304359D01*
X58473726Y-103373726D01*
X58367393Y-103480059D01*
X58197019Y-103479910D01*
X58020041Y-103553037D01*
X58020090Y-103497019D01*
X57941091Y-103305829D01*
X57794941Y-103159423D01*
X57603888Y-103080091D01*
X57397019Y-103079910D01*
X57205829Y-103158909D01*
X57059423Y-103305059D01*
X56980091Y-103496112D01*
X56979910Y-103702981D01*
X57058909Y-103894171D01*
X57205059Y-104040577D01*
X57396112Y-104119909D01*
X57602981Y-104120090D01*
X57779959Y-104046963D01*
X57779910Y-104102981D01*
X57858909Y-104294171D01*
X58005059Y-104440577D01*
X58100000Y-104480000D01*
X57656811Y-104479999D01*
X57538406Y-104361594D01*
X57337263Y-104227195D01*
X57100000Y-104180000D01*
X56862737Y-104227195D01*
X56661594Y-104361594D01*
X56527195Y-104562737D01*
X56505434Y-104672138D01*
X55920000Y-104086704D01*
X55920000Y-103994179D01*
X55969936Y-103873920D01*
X55970064Y-103726725D01*
X55913854Y-103590685D01*
X55809862Y-103486512D01*
X55673920Y-103430064D01*
X55526725Y-103429936D01*
X55390685Y-103486146D01*
X55286512Y-103590138D01*
X55230064Y-103726080D01*
X55229936Y-103873275D01*
X55280000Y-103994440D01*
X55280000Y-104219252D01*
X55304359Y-104341711D01*
X55358313Y-104422459D01*
X55373726Y-104445526D01*
X56979453Y-106051253D01*
X57083268Y-106120620D01*
X57205727Y-106144979D01*
X59115483Y-106144979D01*
X56330493Y-108929969D01*
X53155043Y-108929969D01*
X53032584Y-108954328D01*
X52930620Y-109022458D01*
X52928769Y-109023695D01*
X51523726Y-110428738D01*
X51454359Y-110532553D01*
X51444864Y-110580284D01*
X51323920Y-110530064D01*
X51176725Y-110529936D01*
X51040685Y-110586146D01*
X50974977Y-110651740D01*
X50909862Y-110586512D01*
X50773920Y-110530064D01*
X50626725Y-110529936D01*
X50490685Y-110586146D01*
X50450020Y-110626740D01*
X50409862Y-110586512D01*
X50273920Y-110530064D01*
X50126725Y-110529936D01*
X49990685Y-110586146D01*
X49886512Y-110690138D01*
X49830064Y-110826080D01*
X49829936Y-110973275D01*
X49886146Y-111109315D01*
X49892682Y-111115862D01*
X49904359Y-111174567D01*
X49941441Y-111230064D01*
X49973726Y-111278382D01*
X50079435Y-111384091D01*
X49824468Y-111434807D01*
X49590883Y-111590883D01*
X49434807Y-111824468D01*
X49380000Y-112100000D01*
X49434807Y-112375532D01*
X49507490Y-112484309D01*
X49409862Y-112386512D01*
X49273920Y-112330064D01*
X49126725Y-112329936D01*
X48990685Y-112386146D01*
X48886512Y-112490138D01*
X48830064Y-112626080D01*
X48829936Y-112773275D01*
X48469936Y-112773275D01*
X48470064Y-112626725D01*
X48413854Y-112490685D01*
X48309862Y-112386512D01*
X48173920Y-112330064D01*
X48026725Y-112329936D01*
X47890685Y-112386146D01*
X47786512Y-112490138D01*
X47730064Y-112626080D01*
X47729936Y-112773275D01*
X47370000Y-112773275D01*
X47370000Y-99702981D01*
X58629910Y-99702981D01*
X58708909Y-99894171D01*
X58855059Y-100040577D01*
X59046112Y-100119909D01*
X59252981Y-100120090D01*
X59444171Y-100041091D01*
X59590577Y-99894941D01*
X59658374Y-99731668D01*
X59690138Y-99763488D01*
X59826080Y-99819936D01*
X59973275Y-99820064D01*
X60109315Y-99763854D01*
X60213488Y-99659862D01*
X60269936Y-99523920D01*
X60270064Y-99376725D01*
X60213854Y-99240685D01*
X60109862Y-99136512D01*
X59973920Y-99080064D01*
X59826725Y-99079936D01*
X59690685Y-99136146D01*
X59586512Y-99240138D01*
X59568593Y-99283292D01*
X59444941Y-99159423D01*
X59253888Y-99080091D01*
X59047019Y-99079910D01*
X58855829Y-99158909D01*
X58709423Y-99305059D01*
X58630091Y-99496112D01*
X58629910Y-99702981D01*
X47370000Y-99702981D01*
X47370000Y-98173275D01*
X54529936Y-98173275D01*
X54586146Y-98309315D01*
X54676740Y-98400067D01*
X54586512Y-98490138D01*
X54530064Y-98626080D01*
X54529936Y-98773275D01*
X54586146Y-98909315D01*
X54690138Y-99013488D01*
X54826080Y-99069936D01*
X54973275Y-99070064D01*
X55109315Y-99013854D01*
X55213488Y-98909862D01*
X55269936Y-98773920D01*
X55270064Y-98626725D01*
X55213854Y-98490685D01*
X55123260Y-98399933D01*
X55213488Y-98309862D01*
X55263764Y-98188784D01*
X55326274Y-98126274D01*
X55395642Y-98022458D01*
X55420000Y-97900000D01*
X55420000Y-97076156D01*
X55461594Y-97138406D01*
X55662737Y-97272805D01*
X55900000Y-97320000D01*
X56137263Y-97272805D01*
X56338406Y-97138406D01*
X56556813Y-96920000D01*
X58261855Y-96920000D01*
X58499119Y-96872805D01*
X58632768Y-96783503D01*
X59230664Y-96783503D01*
X59332387Y-97029691D01*
X59520578Y-97218211D01*
X59766588Y-97320364D01*
X60032963Y-97320596D01*
X60279151Y-97218873D01*
X60467671Y-97030682D01*
X60569824Y-96784672D01*
X60569833Y-96773275D01*
X62629936Y-96773275D01*
X62686146Y-96909315D01*
X62726740Y-96949980D01*
X62686512Y-96990138D01*
X62630064Y-97126080D01*
X62629936Y-97273275D01*
X62686146Y-97409315D01*
X62726740Y-97449980D01*
X62686512Y-97490138D01*
X62630064Y-97626080D01*
X62629936Y-97773275D01*
X62686146Y-97909315D01*
X62790138Y-98013488D01*
X62926080Y-98069936D01*
X63073275Y-98070064D01*
X63209315Y-98013854D01*
X63313488Y-97909862D01*
X63369936Y-97773920D01*
X63370064Y-97626725D01*
X63313854Y-97490685D01*
X63273260Y-97450020D01*
X63313488Y-97409862D01*
X63369936Y-97273920D01*
X63370064Y-97126725D01*
X63313854Y-96990685D01*
X63273260Y-96950020D01*
X63313488Y-96909862D01*
X63365956Y-96783503D01*
X63629944Y-96783503D01*
X63731667Y-97029691D01*
X63919858Y-97218211D01*
X64165868Y-97320364D01*
X64432243Y-97320596D01*
X64678431Y-97218873D01*
X64866951Y-97030682D01*
X64969104Y-96784672D01*
X64969201Y-96673275D01*
X68229936Y-96673275D01*
X68286146Y-96809315D01*
X68326740Y-96849980D01*
X68286512Y-96890138D01*
X68230064Y-97026080D01*
X68229936Y-97173275D01*
X68286146Y-97309315D01*
X68326740Y-97349980D01*
X68286512Y-97390138D01*
X68230064Y-97526080D01*
X68229936Y-97673275D01*
X68286146Y-97809315D01*
X68390138Y-97913488D01*
X68526080Y-97969936D01*
X68673275Y-97970064D01*
X68809315Y-97913854D01*
X68913488Y-97809862D01*
X68969936Y-97673920D01*
X68970064Y-97526725D01*
X68913854Y-97390685D01*
X68873260Y-97350020D01*
X68913488Y-97309862D01*
X68969936Y-97173920D01*
X68970064Y-97026725D01*
X68913854Y-96890685D01*
X68873260Y-96850020D01*
X68913488Y-96809862D01*
X68969936Y-96673920D01*
X68970064Y-96526725D01*
X68913854Y-96390685D01*
X68809862Y-96286512D01*
X68673920Y-96230064D01*
X68526725Y-96229936D01*
X68390685Y-96286146D01*
X68286512Y-96390138D01*
X68230064Y-96526080D01*
X68229936Y-96673275D01*
X64969201Y-96673275D01*
X64969336Y-96518297D01*
X64867613Y-96272109D01*
X64679422Y-96083589D01*
X64433412Y-95981436D01*
X64167037Y-95981204D01*
X63920849Y-96082927D01*
X63732329Y-96271118D01*
X63630176Y-96517128D01*
X63629944Y-96783503D01*
X63365956Y-96783503D01*
X63369936Y-96773920D01*
X63370064Y-96626725D01*
X63313854Y-96490685D01*
X63209862Y-96386512D01*
X63073920Y-96330064D01*
X62926725Y-96329936D01*
X62790685Y-96386146D01*
X62686512Y-96490138D01*
X62630064Y-96626080D01*
X62629936Y-96773275D01*
X60569833Y-96773275D01*
X60570056Y-96518297D01*
X60468333Y-96272109D01*
X60280142Y-96083589D01*
X60034132Y-95981436D01*
X59767757Y-95981204D01*
X59521569Y-96082927D01*
X59333049Y-96271118D01*
X59230896Y-96517128D01*
X59230664Y-96783503D01*
X58632768Y-96783503D01*
X58700261Y-96738406D01*
X59518668Y-95920000D01*
X60853350Y-95920000D01*
X60830064Y-95976080D01*
X60829936Y-96123275D01*
X60886146Y-96259315D01*
X60990138Y-96363488D01*
X61126080Y-96419936D01*
X61273275Y-96420064D01*
X61409315Y-96363854D01*
X61513488Y-96259862D01*
X61569936Y-96123920D01*
X61570064Y-95976725D01*
X61546626Y-95920000D01*
X64683708Y-95920000D01*
X64762736Y-95972805D01*
X65000000Y-96020000D01*
X67000000Y-96020000D01*
X67237264Y-95972805D01*
X67438406Y-95838406D01*
X67572805Y-95637264D01*
X67620000Y-95400000D01*
X67572805Y-95162736D01*
X67438406Y-94961594D01*
X67237264Y-94827195D01*
X67000000Y-94780000D01*
X65216292Y-94780000D01*
X65137264Y-94727195D01*
X64900000Y-94680000D01*
X63925888Y-94680000D01*
X63969936Y-94573920D01*
X63970064Y-94426725D01*
X63913854Y-94290685D01*
X63809862Y-94186512D01*
X63673920Y-94130064D01*
X63526725Y-94129936D01*
X63390685Y-94186146D01*
X63286512Y-94290138D01*
X63230064Y-94426080D01*
X63229936Y-94573275D01*
X63274033Y-94680000D01*
X62122548Y-94680000D01*
X63729273Y-93073275D01*
X64729936Y-93073275D01*
X64786146Y-93209315D01*
X64890138Y-93313488D01*
X65026080Y-93369936D01*
X65173275Y-93370064D01*
X65309315Y-93313854D01*
X65413488Y-93209862D01*
X65469936Y-93073920D01*
X65470064Y-92926725D01*
X65413854Y-92790685D01*
X65309862Y-92686512D01*
X65277984Y-92673275D01*
X67629936Y-92673275D01*
X67686146Y-92809315D01*
X67790138Y-92913488D01*
X67926080Y-92969936D01*
X68073275Y-92970064D01*
X68209315Y-92913854D01*
X68249980Y-92873260D01*
X68290138Y-92913488D01*
X68426080Y-92969936D01*
X68573275Y-92970064D01*
X68709315Y-92913854D01*
X68813488Y-92809862D01*
X68869936Y-92673920D01*
X68870064Y-92526725D01*
X68813854Y-92390685D01*
X68709862Y-92286512D01*
X68573920Y-92230064D01*
X68426725Y-92229936D01*
X68290685Y-92286146D01*
X68250020Y-92326740D01*
X68209862Y-92286512D01*
X68073920Y-92230064D01*
X67926725Y-92229936D01*
X67790685Y-92286146D01*
X67686512Y-92390138D01*
X67630064Y-92526080D01*
X67629936Y-92673275D01*
X65277984Y-92673275D01*
X65173920Y-92630064D01*
X65026725Y-92629936D01*
X64890685Y-92686146D01*
X64786512Y-92790138D01*
X64730064Y-92926080D01*
X64729936Y-93073275D01*
X63729273Y-93073275D01*
X63838968Y-92963580D01*
X63959315Y-92913854D01*
X64063488Y-92809862D01*
X64119936Y-92673920D01*
X64120064Y-92526725D01*
X64063854Y-92390685D01*
X63959862Y-92286512D01*
X63823920Y-92230064D01*
X63676725Y-92229936D01*
X63540685Y-92286146D01*
X63436512Y-92390138D01*
X63386236Y-92511216D01*
X61667452Y-94230000D01*
X58899990Y-94230000D01*
X58777531Y-94254359D01*
X58673716Y-94323726D01*
X57767452Y-95229990D01*
X55950010Y-95229990D01*
X55827552Y-95254348D01*
X55723736Y-95323716D01*
X54873726Y-96173726D01*
X54804359Y-96277541D01*
X54780000Y-96400000D01*
X54780000Y-97749242D01*
X54690685Y-97786146D01*
X54586512Y-97890138D01*
X54530064Y-98026080D01*
X54529936Y-98173275D01*
X47370000Y-98173275D01*
X47370000Y-91673275D01*
X55829936Y-91673275D01*
X55880000Y-91794440D01*
X55880000Y-91812132D01*
X55904359Y-91934591D01*
X55944169Y-91994171D01*
X55973726Y-92038406D01*
X56161595Y-92226275D01*
X56265410Y-92295642D01*
X56387869Y-92320001D01*
X58399999Y-92320001D01*
X58522458Y-92295642D01*
X58626273Y-92226275D01*
X58888968Y-91963580D01*
X59009315Y-91913854D01*
X59113488Y-91809862D01*
X59116345Y-91802981D01*
X69679910Y-91802981D01*
X69758909Y-91994171D01*
X69905059Y-92140577D01*
X70096112Y-92219909D01*
X70302981Y-92220090D01*
X70494171Y-92141091D01*
X70600057Y-92035391D01*
X70705059Y-92140577D01*
X70896112Y-92219909D01*
X71102981Y-92220090D01*
X71294171Y-92141091D01*
X71440577Y-91994941D01*
X71519909Y-91803888D01*
X71520090Y-91597019D01*
X71441091Y-91405829D01*
X71294941Y-91259423D01*
X71103888Y-91180091D01*
X70897019Y-91179910D01*
X70705829Y-91258909D01*
X70599943Y-91364609D01*
X70494941Y-91259423D01*
X70303888Y-91180091D01*
X70097019Y-91179910D01*
X69905829Y-91258909D01*
X69759423Y-91405059D01*
X69680091Y-91596112D01*
X69679910Y-91802981D01*
X59116345Y-91802981D01*
X59169936Y-91673920D01*
X59170064Y-91526725D01*
X59113854Y-91390685D01*
X59009862Y-91286512D01*
X58873920Y-91230064D01*
X58726725Y-91229936D01*
X58590685Y-91286146D01*
X58486512Y-91390138D01*
X58436236Y-91511216D01*
X58267451Y-91680001D01*
X58067411Y-91680001D01*
X58069936Y-91673920D01*
X58070064Y-91526725D01*
X58013854Y-91390685D01*
X57909862Y-91286512D01*
X57773920Y-91230064D01*
X57626725Y-91229936D01*
X57490685Y-91286146D01*
X57450020Y-91326740D01*
X57409862Y-91286512D01*
X57273920Y-91230064D01*
X57126725Y-91229936D01*
X56990685Y-91286146D01*
X56950020Y-91326740D01*
X56909862Y-91286512D01*
X56773920Y-91230064D01*
X56626725Y-91229936D01*
X56490685Y-91286146D01*
X56450020Y-91326740D01*
X56409862Y-91286512D01*
X56273920Y-91230064D01*
X56126725Y-91229936D01*
X55990685Y-91286146D01*
X55886512Y-91390138D01*
X55830064Y-91526080D01*
X55829936Y-91673275D01*
X47370000Y-91673275D01*
X47370000Y-91170000D01*
X76630000Y-91170000D01*
X76630000Y-124330000D01*
X76630000Y-124330000D01*
G37*
X76630000Y-124330000D02*
X47370000Y-124330000D01*
X47370000Y-121373265D01*
X61529936Y-121373265D01*
X61586146Y-121509305D01*
X61690138Y-121613478D01*
X61826080Y-121669926D01*
X61973275Y-121670054D01*
X62109315Y-121613844D01*
X62149980Y-121573250D01*
X62190138Y-121613478D01*
X62326080Y-121669926D01*
X62473275Y-121670054D01*
X62609315Y-121613844D01*
X62649980Y-121573250D01*
X62690138Y-121613478D01*
X62826080Y-121669926D01*
X62973275Y-121670054D01*
X63109315Y-121613844D01*
X63149975Y-121573255D01*
X63190138Y-121613488D01*
X63326080Y-121669936D01*
X63473275Y-121670064D01*
X63609315Y-121613854D01*
X63649980Y-121573260D01*
X63690138Y-121613488D01*
X63826080Y-121669936D01*
X63973275Y-121670064D01*
X64109315Y-121613854D01*
X64149980Y-121573260D01*
X64190138Y-121613488D01*
X64326080Y-121669936D01*
X64473275Y-121670064D01*
X64609315Y-121613854D01*
X64649980Y-121573260D01*
X64690138Y-121613488D01*
X64826080Y-121669936D01*
X64973275Y-121670064D01*
X65109315Y-121613854D01*
X65213488Y-121509862D01*
X65269936Y-121373920D01*
X65269936Y-121373275D01*
X65529936Y-121373275D01*
X65586146Y-121509315D01*
X65690138Y-121613488D01*
X65826080Y-121669936D01*
X65973275Y-121670064D01*
X66109315Y-121613854D01*
X66213488Y-121509862D01*
X66269936Y-121373920D01*
X66269936Y-121373275D01*
X67529936Y-121373275D01*
X67586146Y-121509315D01*
X67690138Y-121613488D01*
X67826080Y-121669936D01*
X67973275Y-121670064D01*
X68109315Y-121613854D01*
X68213488Y-121509862D01*
X68269936Y-121373920D01*
X68270064Y-121226725D01*
X68213854Y-121090685D01*
X68109862Y-120986512D01*
X67973920Y-120930064D01*
X67826725Y-120929936D01*
X67690685Y-120986146D01*
X67586512Y-121090138D01*
X67530064Y-121226080D01*
X67529936Y-121373275D01*
X66269936Y-121373275D01*
X66270064Y-121226725D01*
X66213854Y-121090685D01*
X66109862Y-120986512D01*
X65973920Y-120930064D01*
X65826725Y-120929936D01*
X65690685Y-120986146D01*
X65586512Y-121090138D01*
X65530064Y-121226080D01*
X65529936Y-121373275D01*
X65269936Y-121373275D01*
X65270064Y-121226725D01*
X65213854Y-121090685D01*
X65109862Y-120986512D01*
X64973920Y-120930064D01*
X64826725Y-120929936D01*
X64690685Y-120986146D01*
X64650020Y-121026740D01*
X64609862Y-120986512D01*
X64473920Y-120930064D01*
X64326725Y-120929936D01*
X64190685Y-120986146D01*
X64150020Y-121026740D01*
X64109862Y-120986512D01*
X63973920Y-120930064D01*
X63826725Y-120929936D01*
X63690685Y-120986146D01*
X63650020Y-121026740D01*
X63609862Y-120986512D01*
X63473920Y-120930064D01*
X63326725Y-120929936D01*
X63190685Y-120986146D01*
X63150025Y-121026735D01*
X63109862Y-120986502D01*
X62973920Y-120930054D01*
X62826725Y-120929926D01*
X62690685Y-120986136D01*
X62650020Y-121026730D01*
X62609862Y-120986502D01*
X62473920Y-120930054D01*
X62326725Y-120929926D01*
X62190685Y-120986136D01*
X62150020Y-121026730D01*
X62109862Y-120986502D01*
X61973920Y-120930054D01*
X61826725Y-120929926D01*
X61690685Y-120986136D01*
X61586512Y-121090128D01*
X61530064Y-121226070D01*
X61529936Y-121373265D01*
X47370000Y-121373265D01*
X47370000Y-119773265D01*
X62429946Y-119773265D01*
X62486156Y-119909305D01*
X62590148Y-120013478D01*
X62726090Y-120069926D01*
X62873285Y-120070054D01*
X63009325Y-120013844D01*
X63113498Y-119909852D01*
X63169946Y-119773910D01*
X63169946Y-119773275D01*
X66529936Y-119773275D01*
X66586146Y-119909315D01*
X66690138Y-120013488D01*
X66826080Y-120069936D01*
X66973275Y-120070064D01*
X67109315Y-120013854D01*
X67213488Y-119909862D01*
X67269936Y-119773920D01*
X67269936Y-119773275D01*
X67529936Y-119773275D01*
X67586146Y-119909315D01*
X67690138Y-120013488D01*
X67826080Y-120069936D01*
X67973275Y-120070064D01*
X68109315Y-120013854D01*
X68149980Y-119973260D01*
X68190138Y-120013488D01*
X68326080Y-120069936D01*
X68473275Y-120070064D01*
X68609315Y-120013854D01*
X68713488Y-119909862D01*
X68769936Y-119773920D01*
X68770064Y-119626725D01*
X68713854Y-119490685D01*
X68609862Y-119386512D01*
X68473920Y-119330064D01*
X68326725Y-119329936D01*
X68190685Y-119386146D01*
X68150020Y-119426740D01*
X68109862Y-119386512D01*
X67973920Y-119330064D01*
X67826725Y-119329936D01*
X67690685Y-119386146D01*
X67586512Y-119490138D01*
X67530064Y-119626080D01*
X67529936Y-119773275D01*
X67269936Y-119773275D01*
X67270064Y-119626725D01*
X67213854Y-119490685D01*
X67109862Y-119386512D01*
X66973920Y-119330064D01*
X66826725Y-119329936D01*
X66690685Y-119386146D01*
X66586512Y-119490138D01*
X66530064Y-119626080D01*
X66529936Y-119773275D01*
X63169946Y-119773275D01*
X63170074Y-119626715D01*
X63113864Y-119490675D01*
X63009872Y-119386502D01*
X62873930Y-119330054D01*
X62726735Y-119329926D01*
X62590695Y-119386136D01*
X62486522Y-119490128D01*
X62430074Y-119626070D01*
X62429946Y-119773265D01*
X47370000Y-119773265D01*
X47370000Y-118073275D01*
X47429936Y-118073275D01*
X47486146Y-118209315D01*
X47590138Y-118313488D01*
X47726080Y-118369936D01*
X47873275Y-118370064D01*
X48009315Y-118313854D01*
X48113488Y-118209862D01*
X48169936Y-118073920D01*
X48170064Y-117926725D01*
X48113854Y-117790685D01*
X48009862Y-117686512D01*
X47873920Y-117630064D01*
X47726725Y-117629936D01*
X47590685Y-117686146D01*
X47486512Y-117790138D01*
X47430064Y-117926080D01*
X47429936Y-118073275D01*
X47370000Y-118073275D01*
X47370000Y-114873275D01*
X49929936Y-114873275D01*
X49986146Y-115009315D01*
X50090138Y-115113488D01*
X50226080Y-115169936D01*
X50373275Y-115170064D01*
X50509315Y-115113854D01*
X50613488Y-115009862D01*
X50669936Y-114873920D01*
X50670064Y-114726725D01*
X50613854Y-114590685D01*
X50509862Y-114486512D01*
X50373920Y-114430064D01*
X50226725Y-114429936D01*
X50090685Y-114486146D01*
X49986512Y-114590138D01*
X49930064Y-114726080D01*
X49929936Y-114873275D01*
X47370000Y-114873275D01*
X47370000Y-112773275D01*
X47729936Y-112773275D01*
X47786146Y-112909315D01*
X47890138Y-113013488D01*
X48026080Y-113069936D01*
X48173275Y-113070064D01*
X48309315Y-113013854D01*
X48413488Y-112909862D01*
X48469936Y-112773920D01*
X48469936Y-112773275D01*
X48829936Y-112773275D01*
X48886146Y-112909315D01*
X48990138Y-113013488D01*
X49126080Y-113069936D01*
X49273275Y-113070064D01*
X49409315Y-113013854D01*
X49513488Y-112909862D01*
X49569936Y-112773920D01*
X49570064Y-112626725D01*
X49517264Y-112498938D01*
X49590883Y-112609117D01*
X50790883Y-113809117D01*
X51024468Y-113965193D01*
X51300000Y-114020000D01*
X52780000Y-114020000D01*
X52780000Y-114505821D01*
X52730064Y-114626080D01*
X52729936Y-114773275D01*
X52732715Y-114780001D01*
X52610170Y-114780000D01*
X52458416Y-114628246D01*
X52408690Y-114507899D01*
X52304698Y-114403726D01*
X52168756Y-114347278D01*
X52021561Y-114347150D01*
X51885521Y-114403360D01*
X51781348Y-114507352D01*
X51724900Y-114643294D01*
X51724772Y-114790489D01*
X51780982Y-114926529D01*
X51884974Y-115030702D01*
X52006052Y-115080978D01*
X52251348Y-115326274D01*
X52251351Y-115326276D01*
X52355162Y-115395641D01*
X52477621Y-115420000D01*
X52907998Y-115420001D01*
X53999999Y-115420001D01*
X54122458Y-115395642D01*
X54226273Y-115326275D01*
X54488968Y-115063580D01*
X54609315Y-115013854D01*
X54713488Y-114909862D01*
X54769936Y-114773920D01*
X54770064Y-114626725D01*
X54713854Y-114490685D01*
X54609862Y-114386512D01*
X54473920Y-114330064D01*
X54326725Y-114329936D01*
X54190685Y-114386146D01*
X54086512Y-114490138D01*
X54036236Y-114611216D01*
X53867451Y-114780001D01*
X53467411Y-114780001D01*
X53469936Y-114773920D01*
X53470064Y-114626725D01*
X53420000Y-114505560D01*
X53420000Y-114020000D01*
X58480000Y-114020000D01*
X58480000Y-115050000D01*
X58534807Y-115325532D01*
X58690883Y-115559117D01*
X58924468Y-115715193D01*
X59200000Y-115770000D01*
X59475532Y-115715193D01*
X59709117Y-115559117D01*
X59865193Y-115325532D01*
X59920000Y-115050000D01*
X59920000Y-114143228D01*
X59990138Y-114213488D01*
X60126080Y-114269936D01*
X60185462Y-114269988D01*
X60148725Y-114306725D01*
X60079358Y-114410540D01*
X60054999Y-114532999D01*
X60054999Y-116792453D01*
X59917462Y-116929990D01*
X56294670Y-116929990D01*
X56238406Y-116873726D01*
X56237029Y-116872806D01*
X56134591Y-116804359D01*
X56012132Y-116780000D01*
X55994179Y-116780000D01*
X55873920Y-116730064D01*
X55726725Y-116729936D01*
X55590685Y-116786146D01*
X55486512Y-116890138D01*
X55430064Y-117026080D01*
X55429936Y-117173275D01*
X55486146Y-117309315D01*
X55526740Y-117349980D01*
X55486512Y-117390138D01*
X55430064Y-117526080D01*
X55429936Y-117673275D01*
X55486146Y-117809315D01*
X55590138Y-117913488D01*
X55726080Y-117969936D01*
X55873275Y-117970064D01*
X55994440Y-117920000D01*
X57727452Y-117920000D01*
X57511032Y-118136420D01*
X57390685Y-118186146D01*
X57299933Y-118276740D01*
X57209862Y-118186512D01*
X57073920Y-118130064D01*
X56926725Y-118129936D01*
X56790685Y-118186146D01*
X56686512Y-118290138D01*
X56630064Y-118426080D01*
X56630017Y-118480000D01*
X55994179Y-118480000D01*
X55873920Y-118430064D01*
X55726725Y-118429936D01*
X55590685Y-118486146D01*
X55486512Y-118590138D01*
X55430064Y-118726080D01*
X55429936Y-118873275D01*
X55486146Y-119009315D01*
X55526740Y-119049980D01*
X55486512Y-119090138D01*
X55430064Y-119226080D01*
X55429936Y-119373275D01*
X55486146Y-119509315D01*
X55590138Y-119613488D01*
X55726080Y-119669936D01*
X55873275Y-119670064D01*
X56009315Y-119613854D01*
X56113488Y-119509862D01*
X56169936Y-119373920D01*
X56170064Y-119226725D01*
X56125967Y-119120000D01*
X56575450Y-119120000D01*
X56931735Y-119476285D01*
X57035551Y-119545653D01*
X57158009Y-119570011D01*
X57944977Y-119570011D01*
X58067436Y-119545652D01*
X58171251Y-119476285D01*
X58427536Y-119220000D01*
X60574112Y-119220000D01*
X60530064Y-119326080D01*
X60529936Y-119473275D01*
X60586146Y-119609315D01*
X60690138Y-119713488D01*
X60826080Y-119769936D01*
X60973275Y-119770064D01*
X61109315Y-119713854D01*
X61213488Y-119609862D01*
X61269936Y-119473920D01*
X61270064Y-119326725D01*
X61213854Y-119190685D01*
X61173260Y-119150020D01*
X61213488Y-119109862D01*
X61269936Y-118973920D01*
X61270064Y-118826725D01*
X61245897Y-118768236D01*
X61359439Y-118745651D01*
X61463254Y-118676284D01*
X62444518Y-117695020D01*
X63474990Y-117695020D01*
X63597449Y-117670661D01*
X63701264Y-117601294D01*
X64132548Y-117170010D01*
X65638727Y-117170010D01*
X65605064Y-117251080D01*
X65604936Y-117398275D01*
X65661146Y-117534315D01*
X65765138Y-117638488D01*
X65901080Y-117694936D01*
X66048275Y-117695064D01*
X66184315Y-117638854D01*
X66288488Y-117534862D01*
X66344936Y-117398920D01*
X66345064Y-117251725D01*
X66311300Y-117170010D01*
X66938727Y-117170010D01*
X66905064Y-117251080D01*
X66904936Y-117398275D01*
X66961146Y-117534315D01*
X67065138Y-117638488D01*
X67201080Y-117694936D01*
X67348275Y-117695064D01*
X67414970Y-117667507D01*
X68836431Y-119088968D01*
X68886157Y-119209315D01*
X68990149Y-119313488D01*
X69126091Y-119369936D01*
X69273286Y-119370064D01*
X69409326Y-119313854D01*
X69513499Y-119209862D01*
X69559254Y-119099670D01*
X69800398Y-119340814D01*
X69690685Y-119386146D01*
X69586512Y-119490138D01*
X69530064Y-119626080D01*
X69529936Y-119773275D01*
X69586146Y-119909315D01*
X69690138Y-120013488D01*
X69826080Y-120069936D01*
X69973275Y-120070064D01*
X70109315Y-120013854D01*
X70149980Y-119973260D01*
X70190138Y-120013488D01*
X70326080Y-120069936D01*
X70473275Y-120070064D01*
X70609315Y-120013854D01*
X70649980Y-119973260D01*
X70690138Y-120013488D01*
X70826080Y-120069936D01*
X70973275Y-120070064D01*
X71109315Y-120013854D01*
X71149980Y-119973260D01*
X71190138Y-120013488D01*
X71326080Y-120069936D01*
X71473275Y-120070064D01*
X71609315Y-120013854D01*
X71713488Y-119909862D01*
X71769936Y-119773920D01*
X71770064Y-119626725D01*
X71720000Y-119505560D01*
X71720000Y-119487868D01*
X71695641Y-119365409D01*
X71626274Y-119261594D01*
X71438405Y-119073725D01*
X71437732Y-119073275D01*
X71334590Y-119004358D01*
X71212131Y-118979999D01*
X70839667Y-118979999D01*
X68645001Y-116785333D01*
X68645001Y-116425001D01*
X68620642Y-116302542D01*
X68551275Y-116198727D01*
X68288580Y-115936032D01*
X68238854Y-115815685D01*
X68216689Y-115793482D01*
X68292696Y-115742696D01*
X68405417Y-115573995D01*
X68430424Y-115448275D01*
X68854936Y-115448275D01*
X68911146Y-115584315D01*
X69015138Y-115688488D01*
X69042762Y-115699958D01*
X69015685Y-115711146D01*
X68911512Y-115815138D01*
X68855064Y-115951080D01*
X68854936Y-116098275D01*
X68911146Y-116234315D01*
X69015138Y-116338488D01*
X69151080Y-116394936D01*
X69298275Y-116395064D01*
X69434315Y-116338854D01*
X69538488Y-116234862D01*
X69594936Y-116098920D01*
X69595064Y-115951725D01*
X69538854Y-115815685D01*
X69434862Y-115711512D01*
X69407238Y-115700042D01*
X69434315Y-115688854D01*
X69538488Y-115584862D01*
X69594936Y-115448920D01*
X69595064Y-115301725D01*
X69538854Y-115165685D01*
X69434862Y-115061512D01*
X69298920Y-115005064D01*
X69151725Y-115004936D01*
X69015685Y-115061146D01*
X68911512Y-115165138D01*
X68855064Y-115301080D01*
X68854936Y-115448275D01*
X68430424Y-115448275D01*
X68445000Y-115375000D01*
X68405417Y-115176005D01*
X68292696Y-115007304D01*
X68123995Y-114894583D01*
X67925000Y-114855000D01*
X67621650Y-114855000D01*
X67638764Y-114813784D01*
X67807549Y-114644999D01*
X68092451Y-114644999D01*
X68298756Y-114851304D01*
X68402571Y-114920671D01*
X68525030Y-114945030D01*
X70250505Y-114945030D01*
X70157304Y-115007304D01*
X70044583Y-115176005D01*
X70005000Y-115375000D01*
X70044583Y-115573995D01*
X70157304Y-115742696D01*
X70233248Y-115793440D01*
X70211512Y-115815138D01*
X70155064Y-115951080D01*
X70154936Y-116098275D01*
X70211146Y-116234315D01*
X70315138Y-116338488D01*
X70342762Y-116349958D01*
X70315685Y-116361146D01*
X70211512Y-116465138D01*
X70155064Y-116601080D01*
X70154936Y-116748275D01*
X70211146Y-116884315D01*
X70315138Y-116988488D01*
X70451080Y-117044936D01*
X70598275Y-117045064D01*
X70734315Y-116988854D01*
X70838488Y-116884862D01*
X70894936Y-116748920D01*
X70895064Y-116601725D01*
X70838854Y-116465685D01*
X70734862Y-116361512D01*
X70707238Y-116350042D01*
X70734315Y-116338854D01*
X70838488Y-116234862D01*
X70894936Y-116098920D01*
X70895033Y-115987845D01*
X71364000Y-116456813D01*
X71364000Y-116684000D01*
X71418807Y-116959532D01*
X71574883Y-117193117D01*
X74590883Y-120209117D01*
X74824468Y-120365193D01*
X75100000Y-120420000D01*
X75375532Y-120365193D01*
X75609117Y-120209117D01*
X75765193Y-119975532D01*
X75820000Y-119700000D01*
X75765193Y-119424468D01*
X75609117Y-119190883D01*
X73291509Y-116873275D01*
X73529936Y-116873275D01*
X73586146Y-117009315D01*
X73690138Y-117113488D01*
X73826080Y-117169936D01*
X73973275Y-117170064D01*
X74109315Y-117113854D01*
X74213488Y-117009862D01*
X74269936Y-116873920D01*
X74270064Y-116726725D01*
X74213854Y-116590685D01*
X74109862Y-116486512D01*
X73973920Y-116430064D01*
X73826725Y-116429936D01*
X73690685Y-116486146D01*
X73586512Y-116590138D01*
X73530064Y-116726080D01*
X73529936Y-116873275D01*
X73291509Y-116873275D01*
X72804000Y-116385766D01*
X72804000Y-116300000D01*
X72749193Y-116024468D01*
X72593117Y-115790883D01*
X72359532Y-115634807D01*
X72279750Y-115618937D01*
X71605842Y-114945030D01*
X71832546Y-114945030D01*
X71955005Y-114920671D01*
X72058820Y-114851304D01*
X72790124Y-114120000D01*
X73355821Y-114120000D01*
X73476080Y-114169936D01*
X73623275Y-114170064D01*
X73759315Y-114113854D01*
X73863488Y-114009862D01*
X73919936Y-113873920D01*
X73920064Y-113726725D01*
X73863854Y-113590685D01*
X73759862Y-113486512D01*
X73623920Y-113430064D01*
X73476725Y-113429936D01*
X73355560Y-113480000D01*
X72935136Y-113480000D01*
X73895135Y-112520001D01*
X74092001Y-112520001D01*
X74214460Y-112495642D01*
X74318275Y-112426275D01*
X74726275Y-112018275D01*
X74744710Y-111990685D01*
X74795642Y-111914460D01*
X74820001Y-111792001D01*
X74820001Y-106900001D01*
X74795642Y-106777542D01*
X74769227Y-106738009D01*
X74726275Y-106673726D01*
X74563579Y-106511031D01*
X74513854Y-106390685D01*
X74409862Y-106286512D01*
X74273920Y-106230064D01*
X74126725Y-106229936D01*
X73990685Y-106286146D01*
X73886512Y-106390138D01*
X73830064Y-106526080D01*
X73829936Y-106673275D01*
X73886146Y-106809315D01*
X73990138Y-106913488D01*
X74111215Y-106963764D01*
X74180001Y-107032550D01*
X74180001Y-108932589D01*
X74173920Y-108930064D01*
X74026725Y-108929936D01*
X73890685Y-108986146D01*
X73786512Y-109090138D01*
X73736236Y-109211216D01*
X73573726Y-109373726D01*
X73504359Y-109477541D01*
X73480000Y-109600000D01*
X73480000Y-109674112D01*
X73373920Y-109630064D01*
X73226725Y-109629936D01*
X73105560Y-109680000D01*
X72320000Y-109680000D01*
X72320000Y-108500005D01*
X72320001Y-108500000D01*
X72280417Y-108301005D01*
X72278593Y-108298275D01*
X72167696Y-108132304D01*
X72167693Y-108132302D01*
X71867697Y-107832305D01*
X71867694Y-107832303D01*
X71467696Y-107432304D01*
X71298995Y-107319583D01*
X71100000Y-107279999D01*
X70901005Y-107319583D01*
X70732304Y-107432304D01*
X70619583Y-107601005D01*
X70579999Y-107800000D01*
X70612760Y-107964697D01*
X70586961Y-107947458D01*
X70522459Y-107904359D01*
X70400000Y-107880000D01*
X69274551Y-107880000D01*
X68743276Y-107348726D01*
X68699660Y-107319583D01*
X68639461Y-107279359D01*
X68517002Y-107255000D01*
X68119179Y-107255000D01*
X67998920Y-107205064D01*
X67851725Y-107204936D01*
X67715685Y-107261146D01*
X67611512Y-107365138D01*
X67600042Y-107392762D01*
X67588854Y-107365685D01*
X67484862Y-107261512D01*
X67457238Y-107250042D01*
X67484315Y-107238854D01*
X67588488Y-107134862D01*
X67644936Y-106998920D01*
X67644936Y-106998275D01*
X68854936Y-106998275D01*
X68911146Y-107134315D01*
X69015138Y-107238488D01*
X69151080Y-107294936D01*
X69298275Y-107295064D01*
X69434315Y-107238854D01*
X69538488Y-107134862D01*
X69549958Y-107107238D01*
X69561146Y-107134315D01*
X69665138Y-107238488D01*
X69801080Y-107294936D01*
X69948275Y-107295064D01*
X70084315Y-107238854D01*
X70188488Y-107134862D01*
X70244936Y-106998920D01*
X70245064Y-106851725D01*
X70188854Y-106715685D01*
X70084862Y-106611512D01*
X69948920Y-106555064D01*
X69801725Y-106554936D01*
X69665685Y-106611146D01*
X69561512Y-106715138D01*
X69550042Y-106742762D01*
X69538854Y-106715685D01*
X69434862Y-106611512D01*
X69298920Y-106555064D01*
X69151725Y-106554936D01*
X69015685Y-106611146D01*
X68911512Y-106715138D01*
X68855064Y-106851080D01*
X68854936Y-106998275D01*
X67644936Y-106998275D01*
X67645064Y-106851725D01*
X67588854Y-106715685D01*
X67484862Y-106611512D01*
X67348920Y-106555064D01*
X67201725Y-106554936D01*
X67065685Y-106611146D01*
X66961512Y-106715138D01*
X66950042Y-106742762D01*
X66938854Y-106715685D01*
X66834862Y-106611512D01*
X66698920Y-106555064D01*
X66551725Y-106554936D01*
X66415685Y-106611146D01*
X66311512Y-106715138D01*
X66300042Y-106742762D01*
X66288854Y-106715685D01*
X66184862Y-106611512D01*
X66048920Y-106555064D01*
X65901725Y-106554936D01*
X65765685Y-106611146D01*
X65661512Y-106715138D01*
X65650042Y-106742762D01*
X65638854Y-106715685D01*
X65534862Y-106611512D01*
X65398920Y-106555064D01*
X65251725Y-106554936D01*
X65115685Y-106611146D01*
X65011512Y-106715138D01*
X65000042Y-106742762D01*
X64988854Y-106715685D01*
X64884862Y-106611512D01*
X64748920Y-106555064D01*
X64670039Y-106554995D01*
X64670064Y-106526725D01*
X64656951Y-106494989D01*
X65825011Y-106494989D01*
X65947470Y-106470630D01*
X66051285Y-106401263D01*
X67173599Y-105278949D01*
X67186146Y-105309315D01*
X67276740Y-105400067D01*
X67186512Y-105490138D01*
X67130064Y-105626080D01*
X67129936Y-105773275D01*
X67186146Y-105909315D01*
X67290138Y-106013488D01*
X67426080Y-106069936D01*
X67573275Y-106070064D01*
X67709315Y-106013854D01*
X67813488Y-105909862D01*
X67863764Y-105788784D01*
X68026274Y-105626274D01*
X68042379Y-105602171D01*
X68424510Y-105220040D01*
X71157958Y-105220040D01*
X71280417Y-105195681D01*
X71384232Y-105126314D01*
X73290546Y-103220000D01*
X73305821Y-103220000D01*
X73426080Y-103269936D01*
X73573275Y-103270064D01*
X73709315Y-103213854D01*
X73813488Y-103109862D01*
X73869936Y-102973920D01*
X73870064Y-102826725D01*
X73813854Y-102690685D01*
X73773260Y-102650020D01*
X73813488Y-102609862D01*
X73869936Y-102473920D01*
X73870064Y-102326725D01*
X73813854Y-102190685D01*
X73709862Y-102086512D01*
X73573920Y-102030064D01*
X73426725Y-102029936D01*
X73305560Y-102080000D01*
X73259538Y-102080000D01*
X73326274Y-102013264D01*
X73395641Y-101909449D01*
X73420000Y-101786990D01*
X73420000Y-101494179D01*
X73469936Y-101373920D01*
X73470064Y-101226725D01*
X73413854Y-101090685D01*
X73309862Y-100986512D01*
X73173920Y-100930064D01*
X73026725Y-100929936D01*
X72890685Y-100986146D01*
X72850020Y-101026740D01*
X72809862Y-100986512D01*
X72673920Y-100930064D01*
X72593321Y-100929994D01*
X72613488Y-100909862D01*
X72669936Y-100773920D01*
X72670064Y-100626725D01*
X72613854Y-100490685D01*
X72509862Y-100386512D01*
X72388784Y-100336236D01*
X72326274Y-100273726D01*
X72222459Y-100204359D01*
X72100000Y-100180000D01*
X68094179Y-100180000D01*
X67973920Y-100130064D01*
X67826725Y-100129936D01*
X67705560Y-100180000D01*
X66324550Y-100180000D01*
X65518275Y-99373725D01*
X65414460Y-99304358D01*
X65292001Y-99279999D01*
X65120000Y-99279999D01*
X65120000Y-99273275D01*
X68129936Y-99273275D01*
X68186146Y-99409315D01*
X68290138Y-99513488D01*
X68426080Y-99569936D01*
X68573275Y-99570064D01*
X68709315Y-99513854D01*
X68813488Y-99409862D01*
X68869936Y-99273920D01*
X68870064Y-99126725D01*
X68819306Y-99003880D01*
X68913488Y-98909862D01*
X68969936Y-98773920D01*
X68970064Y-98626725D01*
X68913854Y-98490685D01*
X68809862Y-98386512D01*
X68777984Y-98373275D01*
X69829936Y-98373275D01*
X69886146Y-98509315D01*
X69990138Y-98613488D01*
X70126080Y-98669936D01*
X70273275Y-98670064D01*
X70409315Y-98613854D01*
X70513488Y-98509862D01*
X70569936Y-98373920D01*
X70570064Y-98226725D01*
X70513854Y-98090685D01*
X70409862Y-97986512D01*
X70273920Y-97930064D01*
X70126725Y-97929936D01*
X69990685Y-97986146D01*
X69886512Y-98090138D01*
X69830064Y-98226080D01*
X69829936Y-98373275D01*
X68777984Y-98373275D01*
X68673920Y-98330064D01*
X68526725Y-98329936D01*
X68390685Y-98386146D01*
X68286512Y-98490138D01*
X68230064Y-98626080D01*
X68229936Y-98773275D01*
X68280694Y-98896120D01*
X68186512Y-98990138D01*
X68130064Y-99126080D01*
X68129936Y-99273275D01*
X65120000Y-99273275D01*
X65120000Y-97794179D01*
X65169936Y-97673920D01*
X65170064Y-97526725D01*
X65113854Y-97390685D01*
X65009862Y-97286512D01*
X64873920Y-97230064D01*
X64726725Y-97229936D01*
X64590685Y-97286146D01*
X64495937Y-97380730D01*
X64373920Y-97330064D01*
X64226725Y-97329936D01*
X64090685Y-97386146D01*
X63986512Y-97490138D01*
X63930064Y-97626080D01*
X63929936Y-97773275D01*
X63986146Y-97909315D01*
X64090138Y-98013488D01*
X64226080Y-98069936D01*
X64373275Y-98070064D01*
X64480000Y-98025967D01*
X64480000Y-99369534D01*
X64473727Y-99373725D01*
X64211032Y-99636420D01*
X64090685Y-99686146D01*
X63986512Y-99790138D01*
X63930064Y-99926080D01*
X63929936Y-100073275D01*
X63986146Y-100209315D01*
X64090138Y-100313488D01*
X64226080Y-100369936D01*
X64373275Y-100370064D01*
X64509315Y-100313854D01*
X64613488Y-100209862D01*
X64663764Y-100088784D01*
X64729980Y-100022568D01*
X64729936Y-100073275D01*
X64780000Y-100194440D01*
X64780000Y-102767451D01*
X64267452Y-103280000D01*
X58700000Y-103280000D01*
X58577541Y-103304359D01*
X58473726Y-103373726D01*
X58367393Y-103480059D01*
X58197019Y-103479910D01*
X58020041Y-103553037D01*
X58020090Y-103497019D01*
X57941091Y-103305829D01*
X57794941Y-103159423D01*
X57603888Y-103080091D01*
X57397019Y-103079910D01*
X57205829Y-103158909D01*
X57059423Y-103305059D01*
X56980091Y-103496112D01*
X56979910Y-103702981D01*
X57058909Y-103894171D01*
X57205059Y-104040577D01*
X57396112Y-104119909D01*
X57602981Y-104120090D01*
X57779959Y-104046963D01*
X57779910Y-104102981D01*
X57858909Y-104294171D01*
X58005059Y-104440577D01*
X58100000Y-104480000D01*
X57656811Y-104479999D01*
X57538406Y-104361594D01*
X57337263Y-104227195D01*
X57100000Y-104180000D01*
X56862737Y-104227195D01*
X56661594Y-104361594D01*
X56527195Y-104562737D01*
X56505434Y-104672138D01*
X55920000Y-104086704D01*
X55920000Y-103994179D01*
X55969936Y-103873920D01*
X55970064Y-103726725D01*
X55913854Y-103590685D01*
X55809862Y-103486512D01*
X55673920Y-103430064D01*
X55526725Y-103429936D01*
X55390685Y-103486146D01*
X55286512Y-103590138D01*
X55230064Y-103726080D01*
X55229936Y-103873275D01*
X55280000Y-103994440D01*
X55280000Y-104219252D01*
X55304359Y-104341711D01*
X55358313Y-104422459D01*
X55373726Y-104445526D01*
X56979453Y-106051253D01*
X57083268Y-106120620D01*
X57205727Y-106144979D01*
X59115483Y-106144979D01*
X56330493Y-108929969D01*
X53155043Y-108929969D01*
X53032584Y-108954328D01*
X52930620Y-109022458D01*
X52928769Y-109023695D01*
X51523726Y-110428738D01*
X51454359Y-110532553D01*
X51444864Y-110580284D01*
X51323920Y-110530064D01*
X51176725Y-110529936D01*
X51040685Y-110586146D01*
X50974977Y-110651740D01*
X50909862Y-110586512D01*
X50773920Y-110530064D01*
X50626725Y-110529936D01*
X50490685Y-110586146D01*
X50450020Y-110626740D01*
X50409862Y-110586512D01*
X50273920Y-110530064D01*
X50126725Y-110529936D01*
X49990685Y-110586146D01*
X49886512Y-110690138D01*
X49830064Y-110826080D01*
X49829936Y-110973275D01*
X49886146Y-111109315D01*
X49892682Y-111115862D01*
X49904359Y-111174567D01*
X49941441Y-111230064D01*
X49973726Y-111278382D01*
X50079435Y-111384091D01*
X49824468Y-111434807D01*
X49590883Y-111590883D01*
X49434807Y-111824468D01*
X49380000Y-112100000D01*
X49434807Y-112375532D01*
X49507490Y-112484309D01*
X49409862Y-112386512D01*
X49273920Y-112330064D01*
X49126725Y-112329936D01*
X48990685Y-112386146D01*
X48886512Y-112490138D01*
X48830064Y-112626080D01*
X48829936Y-112773275D01*
X48469936Y-112773275D01*
X48470064Y-112626725D01*
X48413854Y-112490685D01*
X48309862Y-112386512D01*
X48173920Y-112330064D01*
X48026725Y-112329936D01*
X47890685Y-112386146D01*
X47786512Y-112490138D01*
X47730064Y-112626080D01*
X47729936Y-112773275D01*
X47370000Y-112773275D01*
X47370000Y-99702981D01*
X58629910Y-99702981D01*
X58708909Y-99894171D01*
X58855059Y-100040577D01*
X59046112Y-100119909D01*
X59252981Y-100120090D01*
X59444171Y-100041091D01*
X59590577Y-99894941D01*
X59658374Y-99731668D01*
X59690138Y-99763488D01*
X59826080Y-99819936D01*
X59973275Y-99820064D01*
X60109315Y-99763854D01*
X60213488Y-99659862D01*
X60269936Y-99523920D01*
X60270064Y-99376725D01*
X60213854Y-99240685D01*
X60109862Y-99136512D01*
X59973920Y-99080064D01*
X59826725Y-99079936D01*
X59690685Y-99136146D01*
X59586512Y-99240138D01*
X59568593Y-99283292D01*
X59444941Y-99159423D01*
X59253888Y-99080091D01*
X59047019Y-99079910D01*
X58855829Y-99158909D01*
X58709423Y-99305059D01*
X58630091Y-99496112D01*
X58629910Y-99702981D01*
X47370000Y-99702981D01*
X47370000Y-98173275D01*
X54529936Y-98173275D01*
X54586146Y-98309315D01*
X54676740Y-98400067D01*
X54586512Y-98490138D01*
X54530064Y-98626080D01*
X54529936Y-98773275D01*
X54586146Y-98909315D01*
X54690138Y-99013488D01*
X54826080Y-99069936D01*
X54973275Y-99070064D01*
X55109315Y-99013854D01*
X55213488Y-98909862D01*
X55269936Y-98773920D01*
X55270064Y-98626725D01*
X55213854Y-98490685D01*
X55123260Y-98399933D01*
X55213488Y-98309862D01*
X55263764Y-98188784D01*
X55326274Y-98126274D01*
X55395642Y-98022458D01*
X55420000Y-97900000D01*
X55420000Y-97076156D01*
X55461594Y-97138406D01*
X55662737Y-97272805D01*
X55900000Y-97320000D01*
X56137263Y-97272805D01*
X56338406Y-97138406D01*
X56556813Y-96920000D01*
X58261855Y-96920000D01*
X58499119Y-96872805D01*
X58632768Y-96783503D01*
X59230664Y-96783503D01*
X59332387Y-97029691D01*
X59520578Y-97218211D01*
X59766588Y-97320364D01*
X60032963Y-97320596D01*
X60279151Y-97218873D01*
X60467671Y-97030682D01*
X60569824Y-96784672D01*
X60569833Y-96773275D01*
X62629936Y-96773275D01*
X62686146Y-96909315D01*
X62726740Y-96949980D01*
X62686512Y-96990138D01*
X62630064Y-97126080D01*
X62629936Y-97273275D01*
X62686146Y-97409315D01*
X62726740Y-97449980D01*
X62686512Y-97490138D01*
X62630064Y-97626080D01*
X62629936Y-97773275D01*
X62686146Y-97909315D01*
X62790138Y-98013488D01*
X62926080Y-98069936D01*
X63073275Y-98070064D01*
X63209315Y-98013854D01*
X63313488Y-97909862D01*
X63369936Y-97773920D01*
X63370064Y-97626725D01*
X63313854Y-97490685D01*
X63273260Y-97450020D01*
X63313488Y-97409862D01*
X63369936Y-97273920D01*
X63370064Y-97126725D01*
X63313854Y-96990685D01*
X63273260Y-96950020D01*
X63313488Y-96909862D01*
X63365956Y-96783503D01*
X63629944Y-96783503D01*
X63731667Y-97029691D01*
X63919858Y-97218211D01*
X64165868Y-97320364D01*
X64432243Y-97320596D01*
X64678431Y-97218873D01*
X64866951Y-97030682D01*
X64969104Y-96784672D01*
X64969201Y-96673275D01*
X68229936Y-96673275D01*
X68286146Y-96809315D01*
X68326740Y-96849980D01*
X68286512Y-96890138D01*
X68230064Y-97026080D01*
X68229936Y-97173275D01*
X68286146Y-97309315D01*
X68326740Y-97349980D01*
X68286512Y-97390138D01*
X68230064Y-97526080D01*
X68229936Y-97673275D01*
X68286146Y-97809315D01*
X68390138Y-97913488D01*
X68526080Y-97969936D01*
X68673275Y-97970064D01*
X68809315Y-97913854D01*
X68913488Y-97809862D01*
X68969936Y-97673920D01*
X68970064Y-97526725D01*
X68913854Y-97390685D01*
X68873260Y-97350020D01*
X68913488Y-97309862D01*
X68969936Y-97173920D01*
X68970064Y-97026725D01*
X68913854Y-96890685D01*
X68873260Y-96850020D01*
X68913488Y-96809862D01*
X68969936Y-96673920D01*
X68970064Y-96526725D01*
X68913854Y-96390685D01*
X68809862Y-96286512D01*
X68673920Y-96230064D01*
X68526725Y-96229936D01*
X68390685Y-96286146D01*
X68286512Y-96390138D01*
X68230064Y-96526080D01*
X68229936Y-96673275D01*
X64969201Y-96673275D01*
X64969336Y-96518297D01*
X64867613Y-96272109D01*
X64679422Y-96083589D01*
X64433412Y-95981436D01*
X64167037Y-95981204D01*
X63920849Y-96082927D01*
X63732329Y-96271118D01*
X63630176Y-96517128D01*
X63629944Y-96783503D01*
X63365956Y-96783503D01*
X63369936Y-96773920D01*
X63370064Y-96626725D01*
X63313854Y-96490685D01*
X63209862Y-96386512D01*
X63073920Y-96330064D01*
X62926725Y-96329936D01*
X62790685Y-96386146D01*
X62686512Y-96490138D01*
X62630064Y-96626080D01*
X62629936Y-96773275D01*
X60569833Y-96773275D01*
X60570056Y-96518297D01*
X60468333Y-96272109D01*
X60280142Y-96083589D01*
X60034132Y-95981436D01*
X59767757Y-95981204D01*
X59521569Y-96082927D01*
X59333049Y-96271118D01*
X59230896Y-96517128D01*
X59230664Y-96783503D01*
X58632768Y-96783503D01*
X58700261Y-96738406D01*
X59518668Y-95920000D01*
X60853350Y-95920000D01*
X60830064Y-95976080D01*
X60829936Y-96123275D01*
X60886146Y-96259315D01*
X60990138Y-96363488D01*
X61126080Y-96419936D01*
X61273275Y-96420064D01*
X61409315Y-96363854D01*
X61513488Y-96259862D01*
X61569936Y-96123920D01*
X61570064Y-95976725D01*
X61546626Y-95920000D01*
X64683708Y-95920000D01*
X64762736Y-95972805D01*
X65000000Y-96020000D01*
X67000000Y-96020000D01*
X67237264Y-95972805D01*
X67438406Y-95838406D01*
X67572805Y-95637264D01*
X67620000Y-95400000D01*
X67572805Y-95162736D01*
X67438406Y-94961594D01*
X67237264Y-94827195D01*
X67000000Y-94780000D01*
X65216292Y-94780000D01*
X65137264Y-94727195D01*
X64900000Y-94680000D01*
X63925888Y-94680000D01*
X63969936Y-94573920D01*
X63970064Y-94426725D01*
X63913854Y-94290685D01*
X63809862Y-94186512D01*
X63673920Y-94130064D01*
X63526725Y-94129936D01*
X63390685Y-94186146D01*
X63286512Y-94290138D01*
X63230064Y-94426080D01*
X63229936Y-94573275D01*
X63274033Y-94680000D01*
X62122548Y-94680000D01*
X63729273Y-93073275D01*
X64729936Y-93073275D01*
X64786146Y-93209315D01*
X64890138Y-93313488D01*
X65026080Y-93369936D01*
X65173275Y-93370064D01*
X65309315Y-93313854D01*
X65413488Y-93209862D01*
X65469936Y-93073920D01*
X65470064Y-92926725D01*
X65413854Y-92790685D01*
X65309862Y-92686512D01*
X65277984Y-92673275D01*
X67629936Y-92673275D01*
X67686146Y-92809315D01*
X67790138Y-92913488D01*
X67926080Y-92969936D01*
X68073275Y-92970064D01*
X68209315Y-92913854D01*
X68249980Y-92873260D01*
X68290138Y-92913488D01*
X68426080Y-92969936D01*
X68573275Y-92970064D01*
X68709315Y-92913854D01*
X68813488Y-92809862D01*
X68869936Y-92673920D01*
X68870064Y-92526725D01*
X68813854Y-92390685D01*
X68709862Y-92286512D01*
X68573920Y-92230064D01*
X68426725Y-92229936D01*
X68290685Y-92286146D01*
X68250020Y-92326740D01*
X68209862Y-92286512D01*
X68073920Y-92230064D01*
X67926725Y-92229936D01*
X67790685Y-92286146D01*
X67686512Y-92390138D01*
X67630064Y-92526080D01*
X67629936Y-92673275D01*
X65277984Y-92673275D01*
X65173920Y-92630064D01*
X65026725Y-92629936D01*
X64890685Y-92686146D01*
X64786512Y-92790138D01*
X64730064Y-92926080D01*
X64729936Y-93073275D01*
X63729273Y-93073275D01*
X63838968Y-92963580D01*
X63959315Y-92913854D01*
X64063488Y-92809862D01*
X64119936Y-92673920D01*
X64120064Y-92526725D01*
X64063854Y-92390685D01*
X63959862Y-92286512D01*
X63823920Y-92230064D01*
X63676725Y-92229936D01*
X63540685Y-92286146D01*
X63436512Y-92390138D01*
X63386236Y-92511216D01*
X61667452Y-94230000D01*
X58899990Y-94230000D01*
X58777531Y-94254359D01*
X58673716Y-94323726D01*
X57767452Y-95229990D01*
X55950010Y-95229990D01*
X55827552Y-95254348D01*
X55723736Y-95323716D01*
X54873726Y-96173726D01*
X54804359Y-96277541D01*
X54780000Y-96400000D01*
X54780000Y-97749242D01*
X54690685Y-97786146D01*
X54586512Y-97890138D01*
X54530064Y-98026080D01*
X54529936Y-98173275D01*
X47370000Y-98173275D01*
X47370000Y-91673275D01*
X55829936Y-91673275D01*
X55880000Y-91794440D01*
X55880000Y-91812132D01*
X55904359Y-91934591D01*
X55944169Y-91994171D01*
X55973726Y-92038406D01*
X56161595Y-92226275D01*
X56265410Y-92295642D01*
X56387869Y-92320001D01*
X58399999Y-92320001D01*
X58522458Y-92295642D01*
X58626273Y-92226275D01*
X58888968Y-91963580D01*
X59009315Y-91913854D01*
X59113488Y-91809862D01*
X59116345Y-91802981D01*
X69679910Y-91802981D01*
X69758909Y-91994171D01*
X69905059Y-92140577D01*
X70096112Y-92219909D01*
X70302981Y-92220090D01*
X70494171Y-92141091D01*
X70600057Y-92035391D01*
X70705059Y-92140577D01*
X70896112Y-92219909D01*
X71102981Y-92220090D01*
X71294171Y-92141091D01*
X71440577Y-91994941D01*
X71519909Y-91803888D01*
X71520090Y-91597019D01*
X71441091Y-91405829D01*
X71294941Y-91259423D01*
X71103888Y-91180091D01*
X70897019Y-91179910D01*
X70705829Y-91258909D01*
X70599943Y-91364609D01*
X70494941Y-91259423D01*
X70303888Y-91180091D01*
X70097019Y-91179910D01*
X69905829Y-91258909D01*
X69759423Y-91405059D01*
X69680091Y-91596112D01*
X69679910Y-91802981D01*
X59116345Y-91802981D01*
X59169936Y-91673920D01*
X59170064Y-91526725D01*
X59113854Y-91390685D01*
X59009862Y-91286512D01*
X58873920Y-91230064D01*
X58726725Y-91229936D01*
X58590685Y-91286146D01*
X58486512Y-91390138D01*
X58436236Y-91511216D01*
X58267451Y-91680001D01*
X58067411Y-91680001D01*
X58069936Y-91673920D01*
X58070064Y-91526725D01*
X58013854Y-91390685D01*
X57909862Y-91286512D01*
X57773920Y-91230064D01*
X57626725Y-91229936D01*
X57490685Y-91286146D01*
X57450020Y-91326740D01*
X57409862Y-91286512D01*
X57273920Y-91230064D01*
X57126725Y-91229936D01*
X56990685Y-91286146D01*
X56950020Y-91326740D01*
X56909862Y-91286512D01*
X56773920Y-91230064D01*
X56626725Y-91229936D01*
X56490685Y-91286146D01*
X56450020Y-91326740D01*
X56409862Y-91286512D01*
X56273920Y-91230064D01*
X56126725Y-91229936D01*
X55990685Y-91286146D01*
X55886512Y-91390138D01*
X55830064Y-91526080D01*
X55829936Y-91673275D01*
X47370000Y-91673275D01*
X47370000Y-91170000D01*
X76630000Y-91170000D01*
X76630000Y-124330000D01*
G36*
X63682302Y-111867693D02*
X63682304Y-111867696D01*
X63764262Y-111922458D01*
X63851004Y-111980417D01*
X64050000Y-112020001D01*
X64050005Y-112020000D01*
X67184608Y-112020000D01*
X67657302Y-112492693D01*
X67657304Y-112492696D01*
X67826005Y-112605417D01*
X68025000Y-112645000D01*
X68055000Y-112645000D01*
X68055000Y-112775000D01*
X68094583Y-112973995D01*
X68207304Y-113142696D01*
X68376005Y-113255417D01*
X68394395Y-113259075D01*
X68440299Y-113304979D01*
X67385045Y-113304979D01*
X67262586Y-113329338D01*
X67229082Y-113351725D01*
X67158771Y-113398705D01*
X66952466Y-113605010D01*
X65038000Y-113605010D01*
X64915541Y-113629369D01*
X64849156Y-113673726D01*
X64811726Y-113698736D01*
X64098716Y-114411746D01*
X64029349Y-114515561D01*
X64004990Y-114638020D01*
X64004990Y-115402496D01*
X63052486Y-116355000D01*
X61619179Y-116355000D01*
X61607238Y-116350042D01*
X61634315Y-116338854D01*
X61738488Y-116234862D01*
X61794936Y-116098920D01*
X61795064Y-115951725D01*
X61738854Y-115815685D01*
X61634862Y-115711512D01*
X61607238Y-115700042D01*
X61634315Y-115688854D01*
X61738488Y-115584862D01*
X61794936Y-115448920D01*
X61795064Y-115301725D01*
X61738854Y-115165685D01*
X61634862Y-115061512D01*
X61498920Y-115005064D01*
X61351725Y-115004936D01*
X61215685Y-115061146D01*
X61111512Y-115165138D01*
X61100042Y-115192762D01*
X61088854Y-115165685D01*
X60984862Y-115061512D01*
X60957238Y-115050042D01*
X60984315Y-115038854D01*
X61088488Y-114934862D01*
X61144936Y-114798920D01*
X61145064Y-114651725D01*
X61142285Y-114644999D01*
X63125001Y-114644999D01*
X63247460Y-114620640D01*
X63351275Y-114551273D01*
X63463968Y-114438580D01*
X63584315Y-114388854D01*
X63688488Y-114284862D01*
X63744936Y-114148920D01*
X63745064Y-114001725D01*
X63688854Y-113865685D01*
X63584862Y-113761512D01*
X63448920Y-113705064D01*
X63301725Y-113704936D01*
X63165685Y-113761146D01*
X63061512Y-113865138D01*
X63011236Y-113986216D01*
X62992453Y-114004999D01*
X62597549Y-114004999D01*
X62813968Y-113788580D01*
X62934315Y-113738854D01*
X63038488Y-113634862D01*
X63094936Y-113498920D01*
X63095064Y-113351725D01*
X63038854Y-113215685D01*
X62934862Y-113111512D01*
X62798920Y-113055064D01*
X62651725Y-113054936D01*
X62515685Y-113111146D01*
X62411512Y-113215138D01*
X62400042Y-113242762D01*
X62388854Y-113215685D01*
X62284862Y-113111512D01*
X62148920Y-113055064D01*
X62001725Y-113054936D01*
X61865685Y-113111146D01*
X61761512Y-113215138D01*
X61750042Y-113242762D01*
X61738854Y-113215685D01*
X61634862Y-113111512D01*
X61607238Y-113100042D01*
X61634315Y-113088854D01*
X61738488Y-112984862D01*
X61794936Y-112848920D01*
X61795064Y-112701725D01*
X61738854Y-112565685D01*
X61634862Y-112461512D01*
X61607238Y-112450042D01*
X61634315Y-112438854D01*
X61738488Y-112334862D01*
X61785721Y-112221113D01*
X62057302Y-112492693D01*
X62057304Y-112492696D01*
X62210623Y-112595139D01*
X62226005Y-112605417D01*
X62425000Y-112645001D01*
X62425005Y-112645000D01*
X62725000Y-112645000D01*
X62923995Y-112605417D01*
X63092696Y-112492696D01*
X63205417Y-112323995D01*
X63245000Y-112125000D01*
X63205417Y-111926005D01*
X63092696Y-111757304D01*
X62923995Y-111644583D01*
X62725000Y-111605000D01*
X62640391Y-111605000D01*
X62595000Y-111559608D01*
X62595000Y-111345000D01*
X63159608Y-111345000D01*
X63682302Y-111867693D01*
X63682302Y-111867693D01*
G37*
X63682302Y-111867693D02*
X63682304Y-111867696D01*
X63764262Y-111922458D01*
X63851004Y-111980417D01*
X64050000Y-112020001D01*
X64050005Y-112020000D01*
X67184608Y-112020000D01*
X67657302Y-112492693D01*
X67657304Y-112492696D01*
X67826005Y-112605417D01*
X68025000Y-112645000D01*
X68055000Y-112645000D01*
X68055000Y-112775000D01*
X68094583Y-112973995D01*
X68207304Y-113142696D01*
X68376005Y-113255417D01*
X68394395Y-113259075D01*
X68440299Y-113304979D01*
X67385045Y-113304979D01*
X67262586Y-113329338D01*
X67229082Y-113351725D01*
X67158771Y-113398705D01*
X66952466Y-113605010D01*
X65038000Y-113605010D01*
X64915541Y-113629369D01*
X64849156Y-113673726D01*
X64811726Y-113698736D01*
X64098716Y-114411746D01*
X64029349Y-114515561D01*
X64004990Y-114638020D01*
X64004990Y-115402496D01*
X63052486Y-116355000D01*
X61619179Y-116355000D01*
X61607238Y-116350042D01*
X61634315Y-116338854D01*
X61738488Y-116234862D01*
X61794936Y-116098920D01*
X61795064Y-115951725D01*
X61738854Y-115815685D01*
X61634862Y-115711512D01*
X61607238Y-115700042D01*
X61634315Y-115688854D01*
X61738488Y-115584862D01*
X61794936Y-115448920D01*
X61795064Y-115301725D01*
X61738854Y-115165685D01*
X61634862Y-115061512D01*
X61498920Y-115005064D01*
X61351725Y-115004936D01*
X61215685Y-115061146D01*
X61111512Y-115165138D01*
X61100042Y-115192762D01*
X61088854Y-115165685D01*
X60984862Y-115061512D01*
X60957238Y-115050042D01*
X60984315Y-115038854D01*
X61088488Y-114934862D01*
X61144936Y-114798920D01*
X61145064Y-114651725D01*
X61142285Y-114644999D01*
X63125001Y-114644999D01*
X63247460Y-114620640D01*
X63351275Y-114551273D01*
X63463968Y-114438580D01*
X63584315Y-114388854D01*
X63688488Y-114284862D01*
X63744936Y-114148920D01*
X63745064Y-114001725D01*
X63688854Y-113865685D01*
X63584862Y-113761512D01*
X63448920Y-113705064D01*
X63301725Y-113704936D01*
X63165685Y-113761146D01*
X63061512Y-113865138D01*
X63011236Y-113986216D01*
X62992453Y-114004999D01*
X62597549Y-114004999D01*
X62813968Y-113788580D01*
X62934315Y-113738854D01*
X63038488Y-113634862D01*
X63094936Y-113498920D01*
X63095064Y-113351725D01*
X63038854Y-113215685D01*
X62934862Y-113111512D01*
X62798920Y-113055064D01*
X62651725Y-113054936D01*
X62515685Y-113111146D01*
X62411512Y-113215138D01*
X62400042Y-113242762D01*
X62388854Y-113215685D01*
X62284862Y-113111512D01*
X62148920Y-113055064D01*
X62001725Y-113054936D01*
X61865685Y-113111146D01*
X61761512Y-113215138D01*
X61750042Y-113242762D01*
X61738854Y-113215685D01*
X61634862Y-113111512D01*
X61607238Y-113100042D01*
X61634315Y-113088854D01*
X61738488Y-112984862D01*
X61794936Y-112848920D01*
X61795064Y-112701725D01*
X61738854Y-112565685D01*
X61634862Y-112461512D01*
X61607238Y-112450042D01*
X61634315Y-112438854D01*
X61738488Y-112334862D01*
X61785721Y-112221113D01*
X62057302Y-112492693D01*
X62057304Y-112492696D01*
X62210623Y-112595139D01*
X62226005Y-112605417D01*
X62425000Y-112645001D01*
X62425005Y-112645000D01*
X62725000Y-112645000D01*
X62923995Y-112605417D01*
X63092696Y-112492696D01*
X63205417Y-112323995D01*
X63245000Y-112125000D01*
X63205417Y-111926005D01*
X63092696Y-111757304D01*
X62923995Y-111644583D01*
X62725000Y-111605000D01*
X62640391Y-111605000D01*
X62595000Y-111559608D01*
X62595000Y-111345000D01*
X63159608Y-111345000D01*
X63682302Y-111867693D01*
G36*
X66905064Y-114651080D02*
X66904936Y-114798275D01*
X66928374Y-114855000D01*
X65325000Y-114855000D01*
X65126005Y-114894583D01*
X64995000Y-114982117D01*
X64995000Y-114915546D01*
X65288030Y-114622516D01*
X65297460Y-114620640D01*
X65335803Y-114595020D01*
X66928342Y-114595020D01*
X66905064Y-114651080D01*
X66905064Y-114651080D01*
G37*
X66905064Y-114651080D02*
X66904936Y-114798275D01*
X66928374Y-114855000D01*
X65325000Y-114855000D01*
X65126005Y-114894583D01*
X64995000Y-114982117D01*
X64995000Y-114915546D01*
X65288030Y-114622516D01*
X65297460Y-114620640D01*
X65335803Y-114595020D01*
X66928342Y-114595020D01*
X66905064Y-114651080D01*
G36*
X60461146Y-112334315D02*
X60565138Y-112438488D01*
X60701080Y-112494936D01*
X60848275Y-112495064D01*
X60984315Y-112438854D01*
X61088488Y-112334862D01*
X61099958Y-112307238D01*
X61111146Y-112334315D01*
X61215138Y-112438488D01*
X61242762Y-112449958D01*
X61215685Y-112461146D01*
X61111512Y-112565138D01*
X61055064Y-112701080D01*
X61054936Y-112848275D01*
X61111146Y-112984315D01*
X61215138Y-113088488D01*
X61242762Y-113099958D01*
X61215685Y-113111146D01*
X61111512Y-113215138D01*
X61055064Y-113351080D01*
X61054936Y-113498275D01*
X61088704Y-113580000D01*
X60394179Y-113580000D01*
X60273920Y-113530064D01*
X60126725Y-113529936D01*
X59990685Y-113586146D01*
X59920000Y-113656708D01*
X59920000Y-112698234D01*
X60409328Y-112208906D01*
X60461146Y-112334315D01*
X60461146Y-112334315D01*
G37*
X60461146Y-112334315D02*
X60565138Y-112438488D01*
X60701080Y-112494936D01*
X60848275Y-112495064D01*
X60984315Y-112438854D01*
X61088488Y-112334862D01*
X61099958Y-112307238D01*
X61111146Y-112334315D01*
X61215138Y-112438488D01*
X61242762Y-112449958D01*
X61215685Y-112461146D01*
X61111512Y-112565138D01*
X61055064Y-112701080D01*
X61054936Y-112848275D01*
X61111146Y-112984315D01*
X61215138Y-113088488D01*
X61242762Y-113099958D01*
X61215685Y-113111146D01*
X61111512Y-113215138D01*
X61055064Y-113351080D01*
X61054936Y-113498275D01*
X61088704Y-113580000D01*
X60394179Y-113580000D01*
X60273920Y-113530064D01*
X60126725Y-113529936D01*
X59990685Y-113586146D01*
X59920000Y-113656708D01*
X59920000Y-112698234D01*
X60409328Y-112208906D01*
X60461146Y-112334315D01*
G36*
X74180001Y-111232589D02*
X74173920Y-111230064D01*
X74026725Y-111229936D01*
X73905560Y-111280000D01*
X73867600Y-111280000D01*
X73745142Y-111304358D01*
X73641326Y-111373726D01*
X73441328Y-111573724D01*
X73441325Y-111573726D01*
X72928748Y-112086304D01*
X72741328Y-112273724D01*
X72741325Y-112273726D01*
X71410042Y-113605010D01*
X71284123Y-113605010D01*
X71284223Y-113604861D01*
X71320000Y-113425000D01*
X71284223Y-113245139D01*
X71182340Y-113092660D01*
X71029861Y-112990777D01*
X70850000Y-112955000D01*
X69419680Y-112955000D01*
X69095000Y-112630320D01*
X69095000Y-112125000D01*
X69055417Y-111926005D01*
X68984588Y-111820000D01*
X69117452Y-111820000D01*
X69511421Y-112213970D01*
X69561146Y-112334315D01*
X69665138Y-112438488D01*
X69801080Y-112494936D01*
X69948275Y-112495064D01*
X70084315Y-112438854D01*
X70188488Y-112334862D01*
X70214061Y-112273275D01*
X70729936Y-112273275D01*
X70786146Y-112409315D01*
X70890138Y-112513488D01*
X71026080Y-112569936D01*
X71173275Y-112570064D01*
X71309315Y-112513854D01*
X71413488Y-112409862D01*
X71469936Y-112273920D01*
X71470064Y-112126725D01*
X71413854Y-111990685D01*
X71309862Y-111886512D01*
X71173920Y-111830064D01*
X71026725Y-111829936D01*
X70890685Y-111886146D01*
X70786512Y-111990138D01*
X70730064Y-112126080D01*
X70729936Y-112273275D01*
X70214061Y-112273275D01*
X70244936Y-112198920D01*
X70245064Y-112051725D01*
X70188854Y-111915685D01*
X70084862Y-111811512D01*
X70057238Y-111800042D01*
X70084315Y-111788854D01*
X70188488Y-111684862D01*
X70244936Y-111548920D01*
X70245064Y-111401725D01*
X70188854Y-111265685D01*
X70084862Y-111161512D01*
X70057238Y-111150042D01*
X70069440Y-111145000D01*
X70729961Y-111145000D01*
X70729936Y-111173275D01*
X70786146Y-111309315D01*
X70890138Y-111413488D01*
X71026080Y-111469936D01*
X71173275Y-111470064D01*
X71309315Y-111413854D01*
X71413488Y-111309862D01*
X71469936Y-111173920D01*
X71470064Y-111026725D01*
X71425967Y-110920000D01*
X73500000Y-110920000D01*
X73622459Y-110895641D01*
X73726274Y-110826274D01*
X74026274Y-110526274D01*
X74040489Y-110505000D01*
X74095641Y-110422459D01*
X74120000Y-110300000D01*
X74120000Y-109732548D01*
X74180001Y-109672547D01*
X74180001Y-111232589D01*
X74180001Y-111232589D01*
G37*
X74180001Y-111232589D02*
X74173920Y-111230064D01*
X74026725Y-111229936D01*
X73905560Y-111280000D01*
X73867600Y-111280000D01*
X73745142Y-111304358D01*
X73641326Y-111373726D01*
X73441328Y-111573724D01*
X73441325Y-111573726D01*
X72928748Y-112086304D01*
X72741328Y-112273724D01*
X72741325Y-112273726D01*
X71410042Y-113605010D01*
X71284123Y-113605010D01*
X71284223Y-113604861D01*
X71320000Y-113425000D01*
X71284223Y-113245139D01*
X71182340Y-113092660D01*
X71029861Y-112990777D01*
X70850000Y-112955000D01*
X69419680Y-112955000D01*
X69095000Y-112630320D01*
X69095000Y-112125000D01*
X69055417Y-111926005D01*
X68984588Y-111820000D01*
X69117452Y-111820000D01*
X69511421Y-112213970D01*
X69561146Y-112334315D01*
X69665138Y-112438488D01*
X69801080Y-112494936D01*
X69948275Y-112495064D01*
X70084315Y-112438854D01*
X70188488Y-112334862D01*
X70214061Y-112273275D01*
X70729936Y-112273275D01*
X70786146Y-112409315D01*
X70890138Y-112513488D01*
X71026080Y-112569936D01*
X71173275Y-112570064D01*
X71309315Y-112513854D01*
X71413488Y-112409862D01*
X71469936Y-112273920D01*
X71470064Y-112126725D01*
X71413854Y-111990685D01*
X71309862Y-111886512D01*
X71173920Y-111830064D01*
X71026725Y-111829936D01*
X70890685Y-111886146D01*
X70786512Y-111990138D01*
X70730064Y-112126080D01*
X70729936Y-112273275D01*
X70214061Y-112273275D01*
X70244936Y-112198920D01*
X70245064Y-112051725D01*
X70188854Y-111915685D01*
X70084862Y-111811512D01*
X70057238Y-111800042D01*
X70084315Y-111788854D01*
X70188488Y-111684862D01*
X70244936Y-111548920D01*
X70245064Y-111401725D01*
X70188854Y-111265685D01*
X70084862Y-111161512D01*
X70057238Y-111150042D01*
X70069440Y-111145000D01*
X70729961Y-111145000D01*
X70729936Y-111173275D01*
X70786146Y-111309315D01*
X70890138Y-111413488D01*
X71026080Y-111469936D01*
X71173275Y-111470064D01*
X71309315Y-111413854D01*
X71413488Y-111309862D01*
X71469936Y-111173920D01*
X71470064Y-111026725D01*
X71425967Y-110920000D01*
X73500000Y-110920000D01*
X73622459Y-110895641D01*
X73726274Y-110826274D01*
X74026274Y-110526274D01*
X74040489Y-110505000D01*
X74095641Y-110422459D01*
X74120000Y-110300000D01*
X74120000Y-109732548D01*
X74180001Y-109672547D01*
X74180001Y-111232589D01*
G36*
X53967451Y-112180001D02*
X51780441Y-112180001D01*
X51570451Y-111970011D01*
X53586979Y-111970011D01*
X53587085Y-111969990D01*
X54177462Y-111969990D01*
X53967451Y-112180001D01*
X53967451Y-112180001D01*
G37*
X53967451Y-112180001D02*
X51780441Y-112180001D01*
X51570451Y-111970011D01*
X53586979Y-111970011D01*
X53587085Y-111969990D01*
X54177462Y-111969990D01*
X53967451Y-112180001D01*
G36*
X61705064Y-109451080D02*
X61704936Y-109598275D01*
X61761146Y-109734315D01*
X61865138Y-109838488D01*
X61986216Y-109888764D01*
X62023726Y-109926274D01*
X62127541Y-109995641D01*
X62250000Y-110020000D01*
X67367452Y-110020000D01*
X67580000Y-110232548D01*
X67580000Y-111000000D01*
X67583273Y-111016456D01*
X67400000Y-110979999D01*
X67399995Y-110980000D01*
X64265391Y-110980000D01*
X63742696Y-110457304D01*
X63573995Y-110344583D01*
X63375000Y-110304999D01*
X63374995Y-110305000D01*
X62567829Y-110305000D01*
X62350532Y-110159807D01*
X62075000Y-110105000D01*
X60775000Y-110105000D01*
X60704155Y-110119092D01*
X60763488Y-110059862D01*
X60813764Y-109938784D01*
X61432549Y-109320000D01*
X61759493Y-109320000D01*
X61705064Y-109451080D01*
X61705064Y-109451080D01*
G37*
X61705064Y-109451080D02*
X61704936Y-109598275D01*
X61761146Y-109734315D01*
X61865138Y-109838488D01*
X61986216Y-109888764D01*
X62023726Y-109926274D01*
X62127541Y-109995641D01*
X62250000Y-110020000D01*
X67367452Y-110020000D01*
X67580000Y-110232548D01*
X67580000Y-111000000D01*
X67583273Y-111016456D01*
X67400000Y-110979999D01*
X67399995Y-110980000D01*
X64265391Y-110980000D01*
X63742696Y-110457304D01*
X63573995Y-110344583D01*
X63375000Y-110304999D01*
X63374995Y-110305000D01*
X62567829Y-110305000D01*
X62350532Y-110159807D01*
X62075000Y-110105000D01*
X60775000Y-110105000D01*
X60704155Y-110119092D01*
X60763488Y-110059862D01*
X60813764Y-109938784D01*
X61432549Y-109320000D01*
X61759493Y-109320000D01*
X61705064Y-109451080D01*
G36*
X56270458Y-110979980D02*
X53622568Y-110979980D01*
X53982549Y-110619999D01*
X56630439Y-110619999D01*
X56270458Y-110979980D01*
X56270458Y-110979980D01*
G37*
X56270458Y-110979980D02*
X53622568Y-110979980D01*
X53982549Y-110619999D01*
X56630439Y-110619999D01*
X56270458Y-110979980D01*
G36*
X68390391Y-107900938D02*
X68365685Y-107911146D01*
X68261512Y-108015138D01*
X68205064Y-108151080D01*
X68204936Y-108298275D01*
X68261146Y-108434315D01*
X68365138Y-108538488D01*
X68392762Y-108549958D01*
X68365685Y-108561146D01*
X68261512Y-108665138D01*
X68205064Y-108801080D01*
X68204936Y-108948275D01*
X68261146Y-109084315D01*
X68365138Y-109188488D01*
X68501080Y-109244936D01*
X68648275Y-109245064D01*
X68784315Y-109188854D01*
X68888488Y-109084862D01*
X68944936Y-108948920D01*
X68945064Y-108801725D01*
X68888854Y-108665685D01*
X68784862Y-108561512D01*
X68757238Y-108550042D01*
X68784315Y-108538854D01*
X68888488Y-108434862D01*
X68899000Y-108409547D01*
X68915727Y-108426274D01*
X68986745Y-108473726D01*
X69019543Y-108495641D01*
X69142002Y-108520000D01*
X70267452Y-108520000D01*
X70736421Y-108988970D01*
X70786146Y-109109315D01*
X70890138Y-109213488D01*
X71026080Y-109269936D01*
X71173275Y-109270064D01*
X71280000Y-109225967D01*
X71280000Y-109480000D01*
X70700000Y-109480000D01*
X70501004Y-109519583D01*
X70462052Y-109545610D01*
X70332304Y-109632304D01*
X70332302Y-109632307D01*
X70309609Y-109655000D01*
X69550005Y-109655000D01*
X69550000Y-109654999D01*
X69351005Y-109694583D01*
X69182304Y-109807304D01*
X69182302Y-109807307D01*
X68684608Y-110305000D01*
X68575000Y-110305000D01*
X68376005Y-110344583D01*
X68220000Y-110448821D01*
X68220000Y-110100000D01*
X68195641Y-109977541D01*
X68126274Y-109873726D01*
X67726274Y-109473726D01*
X67692382Y-109451080D01*
X67622459Y-109404359D01*
X67500000Y-109380000D01*
X66572548Y-109380000D01*
X68013970Y-107938579D01*
X68119440Y-107895000D01*
X68384454Y-107895000D01*
X68390391Y-107900938D01*
X68390391Y-107900938D01*
G37*
X68390391Y-107900938D02*
X68365685Y-107911146D01*
X68261512Y-108015138D01*
X68205064Y-108151080D01*
X68204936Y-108298275D01*
X68261146Y-108434315D01*
X68365138Y-108538488D01*
X68392762Y-108549958D01*
X68365685Y-108561146D01*
X68261512Y-108665138D01*
X68205064Y-108801080D01*
X68204936Y-108948275D01*
X68261146Y-109084315D01*
X68365138Y-109188488D01*
X68501080Y-109244936D01*
X68648275Y-109245064D01*
X68784315Y-109188854D01*
X68888488Y-109084862D01*
X68944936Y-108948920D01*
X68945064Y-108801725D01*
X68888854Y-108665685D01*
X68784862Y-108561512D01*
X68757238Y-108550042D01*
X68784315Y-108538854D01*
X68888488Y-108434862D01*
X68899000Y-108409547D01*
X68915727Y-108426274D01*
X68986745Y-108473726D01*
X69019543Y-108495641D01*
X69142002Y-108520000D01*
X70267452Y-108520000D01*
X70736421Y-108988970D01*
X70786146Y-109109315D01*
X70890138Y-109213488D01*
X71026080Y-109269936D01*
X71173275Y-109270064D01*
X71280000Y-109225967D01*
X71280000Y-109480000D01*
X70700000Y-109480000D01*
X70501004Y-109519583D01*
X70462052Y-109545610D01*
X70332304Y-109632304D01*
X70332302Y-109632307D01*
X70309609Y-109655000D01*
X69550005Y-109655000D01*
X69550000Y-109654999D01*
X69351005Y-109694583D01*
X69182304Y-109807304D01*
X69182302Y-109807307D01*
X68684608Y-110305000D01*
X68575000Y-110305000D01*
X68376005Y-110344583D01*
X68220000Y-110448821D01*
X68220000Y-110100000D01*
X68195641Y-109977541D01*
X68126274Y-109873726D01*
X67726274Y-109473726D01*
X67692382Y-109451080D01*
X67622459Y-109404359D01*
X67500000Y-109380000D01*
X66572548Y-109380000D01*
X68013970Y-107938579D01*
X68119440Y-107895000D01*
X68384454Y-107895000D01*
X68390391Y-107900938D01*
G36*
X66961146Y-107134315D02*
X67065138Y-107238488D01*
X67092762Y-107249958D01*
X67065685Y-107261146D01*
X66961512Y-107365138D01*
X66905064Y-107501080D01*
X66904936Y-107648275D01*
X66961146Y-107784315D01*
X67065138Y-107888488D01*
X67131435Y-107916017D01*
X66092451Y-108955001D01*
X64392411Y-108955001D01*
X64394936Y-108948920D01*
X64395064Y-108801725D01*
X64338854Y-108665685D01*
X64234862Y-108561512D01*
X64098920Y-108505064D01*
X63951725Y-108504936D01*
X63815685Y-108561146D01*
X63711512Y-108665138D01*
X63655064Y-108801080D01*
X63654936Y-108948275D01*
X63657715Y-108955001D01*
X62707549Y-108955001D01*
X62526274Y-108773726D01*
X62445870Y-108720002D01*
X62422459Y-108704359D01*
X62300000Y-108680000D01*
X61300000Y-108680000D01*
X61177542Y-108704358D01*
X61120564Y-108742429D01*
X61088854Y-108665685D01*
X60984862Y-108561512D01*
X60957238Y-108550042D01*
X60984315Y-108538854D01*
X61088488Y-108434862D01*
X61099958Y-108407238D01*
X61111146Y-108434315D01*
X61215138Y-108538488D01*
X61351080Y-108594936D01*
X61498275Y-108595064D01*
X61634315Y-108538854D01*
X61738488Y-108434862D01*
X61749958Y-108407238D01*
X61761146Y-108434315D01*
X61865138Y-108538488D01*
X62001080Y-108594936D01*
X62148275Y-108595064D01*
X62284315Y-108538854D01*
X62388488Y-108434862D01*
X62399958Y-108407238D01*
X62411146Y-108434315D01*
X62515138Y-108538488D01*
X62651080Y-108594936D01*
X62798275Y-108595064D01*
X62934315Y-108538854D01*
X63038488Y-108434862D01*
X63094936Y-108298920D01*
X63095064Y-108151725D01*
X63038854Y-108015685D01*
X62934862Y-107911512D01*
X62798920Y-107855064D01*
X62789022Y-107855055D01*
X62795001Y-107824999D01*
X62795001Y-107382999D01*
X62777506Y-107295046D01*
X62798275Y-107295064D01*
X62934315Y-107238854D01*
X63038488Y-107134862D01*
X63049958Y-107107238D01*
X63061146Y-107134315D01*
X63165138Y-107238488D01*
X63192762Y-107249958D01*
X63165685Y-107261146D01*
X63061512Y-107365138D01*
X63005064Y-107501080D01*
X63004936Y-107648275D01*
X63061146Y-107784315D01*
X63165138Y-107888488D01*
X63301080Y-107944936D01*
X63448275Y-107945064D01*
X63584315Y-107888854D01*
X63688488Y-107784862D01*
X63738764Y-107663784D01*
X64026274Y-107376274D01*
X64048524Y-107342974D01*
X64048725Y-107343275D01*
X64506724Y-107801274D01*
X64592648Y-107858687D01*
X64465685Y-107911146D01*
X64361512Y-108015138D01*
X64305064Y-108151080D01*
X64304936Y-108298275D01*
X64361146Y-108434315D01*
X64465138Y-108538488D01*
X64601080Y-108594936D01*
X64748275Y-108595064D01*
X64884315Y-108538854D01*
X64988488Y-108434862D01*
X64999958Y-108407238D01*
X65011146Y-108434315D01*
X65115138Y-108538488D01*
X65251080Y-108594936D01*
X65398275Y-108595064D01*
X65534315Y-108538854D01*
X65638488Y-108434862D01*
X65649958Y-108407238D01*
X65661146Y-108434315D01*
X65765138Y-108538488D01*
X65901080Y-108594936D01*
X66048275Y-108595064D01*
X66184315Y-108538854D01*
X66288488Y-108434862D01*
X66344936Y-108298920D01*
X66345064Y-108151725D01*
X66288854Y-108015685D01*
X66184862Y-107911512D01*
X66048920Y-107855064D01*
X65901725Y-107854936D01*
X65765685Y-107911146D01*
X65661512Y-108015138D01*
X65650042Y-108042762D01*
X65638854Y-108015685D01*
X65534862Y-107911512D01*
X65507238Y-107900042D01*
X65534315Y-107888854D01*
X65638488Y-107784862D01*
X65694936Y-107648920D01*
X65695064Y-107501725D01*
X65638854Y-107365685D01*
X65534862Y-107261512D01*
X65507238Y-107250042D01*
X65534315Y-107238854D01*
X65638488Y-107134862D01*
X65649958Y-107107238D01*
X65661146Y-107134315D01*
X65765138Y-107238488D01*
X65901080Y-107294936D01*
X66048275Y-107295064D01*
X66184315Y-107238854D01*
X66288488Y-107134862D01*
X66299958Y-107107238D01*
X66311146Y-107134315D01*
X66415138Y-107238488D01*
X66551080Y-107294936D01*
X66698275Y-107295064D01*
X66834315Y-107238854D01*
X66938488Y-107134862D01*
X66949958Y-107107238D01*
X66961146Y-107134315D01*
X66961146Y-107134315D01*
G37*
X66961146Y-107134315D02*
X67065138Y-107238488D01*
X67092762Y-107249958D01*
X67065685Y-107261146D01*
X66961512Y-107365138D01*
X66905064Y-107501080D01*
X66904936Y-107648275D01*
X66961146Y-107784315D01*
X67065138Y-107888488D01*
X67131435Y-107916017D01*
X66092451Y-108955001D01*
X64392411Y-108955001D01*
X64394936Y-108948920D01*
X64395064Y-108801725D01*
X64338854Y-108665685D01*
X64234862Y-108561512D01*
X64098920Y-108505064D01*
X63951725Y-108504936D01*
X63815685Y-108561146D01*
X63711512Y-108665138D01*
X63655064Y-108801080D01*
X63654936Y-108948275D01*
X63657715Y-108955001D01*
X62707549Y-108955001D01*
X62526274Y-108773726D01*
X62445870Y-108720002D01*
X62422459Y-108704359D01*
X62300000Y-108680000D01*
X61300000Y-108680000D01*
X61177542Y-108704358D01*
X61120564Y-108742429D01*
X61088854Y-108665685D01*
X60984862Y-108561512D01*
X60957238Y-108550042D01*
X60984315Y-108538854D01*
X61088488Y-108434862D01*
X61099958Y-108407238D01*
X61111146Y-108434315D01*
X61215138Y-108538488D01*
X61351080Y-108594936D01*
X61498275Y-108595064D01*
X61634315Y-108538854D01*
X61738488Y-108434862D01*
X61749958Y-108407238D01*
X61761146Y-108434315D01*
X61865138Y-108538488D01*
X62001080Y-108594936D01*
X62148275Y-108595064D01*
X62284315Y-108538854D01*
X62388488Y-108434862D01*
X62399958Y-108407238D01*
X62411146Y-108434315D01*
X62515138Y-108538488D01*
X62651080Y-108594936D01*
X62798275Y-108595064D01*
X62934315Y-108538854D01*
X63038488Y-108434862D01*
X63094936Y-108298920D01*
X63095064Y-108151725D01*
X63038854Y-108015685D01*
X62934862Y-107911512D01*
X62798920Y-107855064D01*
X62789022Y-107855055D01*
X62795001Y-107824999D01*
X62795001Y-107382999D01*
X62777506Y-107295046D01*
X62798275Y-107295064D01*
X62934315Y-107238854D01*
X63038488Y-107134862D01*
X63049958Y-107107238D01*
X63061146Y-107134315D01*
X63165138Y-107238488D01*
X63192762Y-107249958D01*
X63165685Y-107261146D01*
X63061512Y-107365138D01*
X63005064Y-107501080D01*
X63004936Y-107648275D01*
X63061146Y-107784315D01*
X63165138Y-107888488D01*
X63301080Y-107944936D01*
X63448275Y-107945064D01*
X63584315Y-107888854D01*
X63688488Y-107784862D01*
X63738764Y-107663784D01*
X64026274Y-107376274D01*
X64048524Y-107342974D01*
X64048725Y-107343275D01*
X64506724Y-107801274D01*
X64592648Y-107858687D01*
X64465685Y-107911146D01*
X64361512Y-108015138D01*
X64305064Y-108151080D01*
X64304936Y-108298275D01*
X64361146Y-108434315D01*
X64465138Y-108538488D01*
X64601080Y-108594936D01*
X64748275Y-108595064D01*
X64884315Y-108538854D01*
X64988488Y-108434862D01*
X64999958Y-108407238D01*
X65011146Y-108434315D01*
X65115138Y-108538488D01*
X65251080Y-108594936D01*
X65398275Y-108595064D01*
X65534315Y-108538854D01*
X65638488Y-108434862D01*
X65649958Y-108407238D01*
X65661146Y-108434315D01*
X65765138Y-108538488D01*
X65901080Y-108594936D01*
X66048275Y-108595064D01*
X66184315Y-108538854D01*
X66288488Y-108434862D01*
X66344936Y-108298920D01*
X66345064Y-108151725D01*
X66288854Y-108015685D01*
X66184862Y-107911512D01*
X66048920Y-107855064D01*
X65901725Y-107854936D01*
X65765685Y-107911146D01*
X65661512Y-108015138D01*
X65650042Y-108042762D01*
X65638854Y-108015685D01*
X65534862Y-107911512D01*
X65507238Y-107900042D01*
X65534315Y-107888854D01*
X65638488Y-107784862D01*
X65694936Y-107648920D01*
X65695064Y-107501725D01*
X65638854Y-107365685D01*
X65534862Y-107261512D01*
X65507238Y-107250042D01*
X65534315Y-107238854D01*
X65638488Y-107134862D01*
X65649958Y-107107238D01*
X65661146Y-107134315D01*
X65765138Y-107238488D01*
X65901080Y-107294936D01*
X66048275Y-107295064D01*
X66184315Y-107238854D01*
X66288488Y-107134862D01*
X66299958Y-107107238D01*
X66311146Y-107134315D01*
X66415138Y-107238488D01*
X66551080Y-107294936D01*
X66698275Y-107295064D01*
X66834315Y-107238854D01*
X66938488Y-107134862D01*
X66949958Y-107107238D01*
X66961146Y-107134315D01*
G36*
X59835485Y-107129989D02*
X59530557Y-107129989D01*
X59815547Y-106844999D01*
X60120475Y-106844999D01*
X59835485Y-107129989D01*
X59835485Y-107129989D01*
G37*
X59835485Y-107129989D02*
X59530557Y-107129989D01*
X59815547Y-106844999D01*
X60120475Y-106844999D01*
X59835485Y-107129989D01*
G36*
X65965728Y-100726274D02*
X66069544Y-100795642D01*
X66192002Y-100820000D01*
X67705821Y-100820000D01*
X67826080Y-100869936D01*
X67973275Y-100870064D01*
X68094440Y-100820000D01*
X71949242Y-100820000D01*
X71986146Y-100909315D01*
X72090138Y-101013488D01*
X72226080Y-101069936D01*
X72306679Y-101070006D01*
X72286512Y-101090138D01*
X72230064Y-101226080D01*
X72229936Y-101373275D01*
X72280000Y-101494440D01*
X72280000Y-101659454D01*
X72024062Y-101915392D01*
X72013854Y-101890685D01*
X71909862Y-101786512D01*
X71773920Y-101730064D01*
X71626725Y-101729936D01*
X71490685Y-101786146D01*
X71386512Y-101890138D01*
X71330064Y-102026080D01*
X71329936Y-102173275D01*
X71386146Y-102309315D01*
X71490138Y-102413488D01*
X71515454Y-102424000D01*
X70409444Y-103530010D01*
X70170214Y-103530010D01*
X70209315Y-103513854D01*
X70313488Y-103409862D01*
X70369936Y-103273920D01*
X70370064Y-103126725D01*
X70313854Y-102990685D01*
X70209862Y-102886512D01*
X70073920Y-102830064D01*
X69926725Y-102829936D01*
X69814934Y-102876127D01*
X69738406Y-102761594D01*
X69537264Y-102627195D01*
X69300000Y-102580000D01*
X67300000Y-102580000D01*
X67062736Y-102627195D01*
X66933590Y-102713488D01*
X66861594Y-102761594D01*
X65143188Y-104480000D01*
X63125888Y-104480000D01*
X63169936Y-104373920D01*
X63170064Y-104226725D01*
X63113854Y-104090685D01*
X63009862Y-103986512D01*
X62873920Y-103930064D01*
X62726725Y-103929936D01*
X62605560Y-103980000D01*
X59494179Y-103980000D01*
X59373920Y-103930064D01*
X59226725Y-103929936D01*
X59090685Y-103986146D01*
X58986512Y-104090138D01*
X58930064Y-104226080D01*
X58929936Y-104373275D01*
X58974033Y-104480000D01*
X58500005Y-104480000D01*
X58594171Y-104441091D01*
X58740577Y-104294941D01*
X58819909Y-104103888D01*
X58820059Y-103932489D01*
X58832548Y-103920000D01*
X64400000Y-103920000D01*
X64522459Y-103895641D01*
X64550477Y-103876920D01*
X64530064Y-103926080D01*
X64529936Y-104073275D01*
X64586146Y-104209315D01*
X64690138Y-104313488D01*
X64826080Y-104369936D01*
X64973275Y-104370064D01*
X65109315Y-104313854D01*
X65213488Y-104209862D01*
X65269936Y-104073920D01*
X65270064Y-103926725D01*
X65213854Y-103790685D01*
X65109862Y-103686512D01*
X64973920Y-103630064D01*
X64826725Y-103629936D01*
X64819716Y-103632832D01*
X65326274Y-103126275D01*
X65395641Y-103022459D01*
X65405424Y-102973275D01*
X65420000Y-102900000D01*
X65420000Y-100194179D01*
X65424000Y-100184546D01*
X65965728Y-100726274D01*
X65965728Y-100726274D01*
G37*
X65965728Y-100726274D02*
X66069544Y-100795642D01*
X66192002Y-100820000D01*
X67705821Y-100820000D01*
X67826080Y-100869936D01*
X67973275Y-100870064D01*
X68094440Y-100820000D01*
X71949242Y-100820000D01*
X71986146Y-100909315D01*
X72090138Y-101013488D01*
X72226080Y-101069936D01*
X72306679Y-101070006D01*
X72286512Y-101090138D01*
X72230064Y-101226080D01*
X72229936Y-101373275D01*
X72280000Y-101494440D01*
X72280000Y-101659454D01*
X72024062Y-101915392D01*
X72013854Y-101890685D01*
X71909862Y-101786512D01*
X71773920Y-101730064D01*
X71626725Y-101729936D01*
X71490685Y-101786146D01*
X71386512Y-101890138D01*
X71330064Y-102026080D01*
X71329936Y-102173275D01*
X71386146Y-102309315D01*
X71490138Y-102413488D01*
X71515454Y-102424000D01*
X70409444Y-103530010D01*
X70170214Y-103530010D01*
X70209315Y-103513854D01*
X70313488Y-103409862D01*
X70369936Y-103273920D01*
X70370064Y-103126725D01*
X70313854Y-102990685D01*
X70209862Y-102886512D01*
X70073920Y-102830064D01*
X69926725Y-102829936D01*
X69814934Y-102876127D01*
X69738406Y-102761594D01*
X69537264Y-102627195D01*
X69300000Y-102580000D01*
X67300000Y-102580000D01*
X67062736Y-102627195D01*
X66933590Y-102713488D01*
X66861594Y-102761594D01*
X65143188Y-104480000D01*
X63125888Y-104480000D01*
X63169936Y-104373920D01*
X63170064Y-104226725D01*
X63113854Y-104090685D01*
X63009862Y-103986512D01*
X62873920Y-103930064D01*
X62726725Y-103929936D01*
X62605560Y-103980000D01*
X59494179Y-103980000D01*
X59373920Y-103930064D01*
X59226725Y-103929936D01*
X59090685Y-103986146D01*
X58986512Y-104090138D01*
X58930064Y-104226080D01*
X58929936Y-104373275D01*
X58974033Y-104480000D01*
X58500005Y-104480000D01*
X58594171Y-104441091D01*
X58740577Y-104294941D01*
X58819909Y-104103888D01*
X58820059Y-103932489D01*
X58832548Y-103920000D01*
X64400000Y-103920000D01*
X64522459Y-103895641D01*
X64550477Y-103876920D01*
X64530064Y-103926080D01*
X64529936Y-104073275D01*
X64586146Y-104209315D01*
X64690138Y-104313488D01*
X64826080Y-104369936D01*
X64973275Y-104370064D01*
X65109315Y-104313854D01*
X65213488Y-104209862D01*
X65269936Y-104073920D01*
X65270064Y-103926725D01*
X65213854Y-103790685D01*
X65109862Y-103686512D01*
X64973920Y-103630064D01*
X64826725Y-103629936D01*
X64819716Y-103632832D01*
X65326274Y-103126275D01*
X65395641Y-103022459D01*
X65405424Y-102973275D01*
X65420000Y-102900000D01*
X65420000Y-100194179D01*
X65424000Y-100184546D01*
X65965728Y-100726274D01*
M02*
